<svg width="22" height="43" viewBox="0 0 22 43" fill="none" xmlns="http://www.w3.org/2000/svg">
<path d="M15.4927 10.863C15.4927 8.43162 13.5134 6.45404 11.0837 6.45404C8.65324 6.45404 6.6748 8.43162 6.6748 10.863C6.6748 13.2935 8.65324 15.2719 11.0837 15.2719C13.5134 15.2719 15.4927 13.2943 15.4927 10.863ZM11.0837 13.6502C9.54706 13.6502 8.29657 12.4005 8.29657 10.8638C8.29657 9.32716 9.54706 8.07581 11.0837 8.07581C12.6213 8.07581 13.8718 9.3263 13.8718 10.863C13.8718 12.3997 12.6204 13.6502 11.0837 13.6502Z" fill="#237DEA" stroke="#237DEA" stroke-width="0.5"/>
<path d="M13.9724 20.5179C18.2413 19.2485 21.1685 15.3672 21.1685 10.8637C21.1685 5.3023 16.6444 0.779053 11.0838 0.779053C5.52325 0.779053 1 5.3023 1 10.8629C1 15.1352 3.74334 18.9597 7.74404 20.3692V42.23H13.9724V38.7836H20.8651V26.0131H13.9724V20.5179ZM19.2425 27.6358V37.1627H12.3498V40.6091H9.36409V19.1651L8.77452 18.9975C5.15025 17.967 2.62005 14.6221 2.62005 10.8637C2.62005 6.19698 6.41707 2.40082 11.083 2.40082C15.7489 2.40082 19.5459 6.19698 19.5459 10.8637C19.5459 14.7622 16.7837 18.2275 12.9789 19.1041L12.3498 19.2485V27.6366L19.2425 27.6358Z" fill="#237DEA" stroke="#237DEA" stroke-width="0.5"/>
</svg>
