<svg width="34" height="34" viewBox="0 0 34 34" fill="none" xmlns="http://www.w3.org/2000/svg">
<path d="M9.07903 21.4881L9.07906 21.488C9.14465 21.2771 9.0717 21.0535 8.90869 20.9302L8.9083 20.9299L1.58279 15.3653C1.58275 15.3653 1.58271 15.3652 1.58268 15.3652C1.14527 15.0333 0.859286 14.5444 0.775229 13.9913L0.775227 13.9913C0.691358 13.4392 0.818067 12.8826 1.13399 12.4274L1.134 12.4274C1.51233 11.8823 2.12593 11.5525 2.77933 11.5525H11.8339C12.0279 11.5525 12.207 11.4233 12.2716 11.2146L12.2717 11.2143L15.07 2.21101C15.412 1.1096 16.5562 0.490561 17.6293 0.853816L17.6294 0.853864C18.2483 1.06377 18.7319 1.57267 18.9307 2.21025L18.942 2.24659V2.2472L21.7284 11.2143L21.7285 11.2144C21.7932 11.4228 21.9731 11.5527 22.167 11.5527H31.2227C31.7665 11.5527 32.2776 11.7749 32.659 12.1738C33.0413 12.5727 33.25 13.1019 33.25 13.6611C33.25 13.6612 33.25 13.6612 33.25 13.6613L9.07903 21.4881ZM9.07903 21.4881L6.28123 30.4913L6.51991 30.5656L6.28117 30.4914L6.2812 30.4914C6.08269 31.1286 6.18849 31.8324 6.56719 32.3768C7.22244 33.3204 8.49905 33.5353 9.40764 32.8438L16.7334 27.2791C16.8938 27.1572 17.1068 27.1574 17.2674 27.2792L24.594 32.8438M9.07903 21.4881L24.594 32.8438M24.9215 21.4866L24.9216 21.4869L27.7208 30.4913C27.8867 31.0238 27.8438 31.5935 27.6007 32.0933L27.6006 32.0935C27.3568 32.594 26.9391 32.9698 26.4219 33.1456M24.9215 21.4866L26.4219 33.1456M24.9215 21.4866C24.8561 21.2772 24.9287 21.0536 25.0925 20.9293L32.4168 15.3659C32.417 15.3659 32.4171 15.3658 32.4172 15.3657L24.9215 21.4866ZM26.4219 33.1456C26.2166 33.2155 26.0038 33.25 25.7923 33.25C25.3659 33.25 24.9444 33.1104 24.594 32.8438M26.4219 33.1456L24.594 32.8438M2.40879 13.3668L2.40862 13.3671C2.33379 13.475 2.30286 13.607 2.32305 13.7414C2.34376 13.8754 2.41162 13.9886 2.51164 14.0644L2.51195 14.0646L9.83732 19.6291L2.40879 13.3668ZM2.40879 13.3668C2.49628 13.2403 2.63597 13.1681 2.77948 13.1681H11.8339C12.7229 13.1681 13.4949 12.5743 13.764 11.7068C13.764 11.7067 13.764 11.7067 13.7641 11.7067L16.5624 2.70375L16.5625 2.70341C16.6442 2.43918 16.9081 2.30954 17.1395 2.38828L17.1398 2.38837C17.2765 2.43472 17.3909 2.55087 17.4388 2.70448L17.4389 2.70447M2.40879 13.3668L17.4389 2.70447M31.9333 13.662C31.9339 13.8993 31.8239 14.1243 31.6394 14.2642L31.9333 13.662ZM31.9333 13.662C31.9333 13.4625 31.8593 13.2758 31.7248 13.1358L31.9333 13.662ZM17.4389 2.70447L20.2365 11.7068C20.5061 12.5742 21.2785 13.1681 22.167 13.1681H31.2218H31.2218H31.2218H31.2218H31.2218H31.2218H31.2219H31.2219H31.2219H31.2219H31.2219H31.2219H31.222H31.222H31.222H31.222H31.222H31.222H31.222H31.2221H31.2221H31.2221H31.2221H31.2221H31.2221H31.2222H31.2222H31.2222H31.2222H31.2222H31.2222C31.3419 13.1681 31.4558 13.2162 31.544 13.3085L31.5445 13.309C31.633 13.4011 31.6833 13.5251 31.6833 13.662V13.6626C31.6837 13.8236 31.6087 13.9737 31.4884 14.065L31.4882 14.0651L24.163 19.6292C24.163 19.6293 24.1629 19.6293 24.1629 19.6293C23.4515 20.1692 23.1601 21.1152 23.4295 21.9807C23.4295 21.9807 23.4295 21.9808 23.4295 21.9808L26.2287 30.9851L26.2288 30.9854C26.2689 31.1136 26.2585 31.249 26.2002 31.3683L26.1998 31.3691C26.1421 31.488 26.0463 31.5719 25.9311 31.6112C25.7938 31.6573 25.6423 31.6331 25.5235 31.5437C25.5233 31.5436 25.5232 31.5435 25.523 31.5433L18.1971 25.9793L17.4389 2.70447ZM7.773 30.9844L7.77297 30.9845C7.72502 31.1385 7.7514 31.3075 7.84052 31.4354L7.84062 31.4356C7.99232 31.6535 8.27688 31.6967 8.47781 31.5439L8.47789 31.5438L15.8035 25.9794C16.5185 25.4347 17.4831 25.4358 18.1968 25.9791L7.773 30.9844ZM7.773 30.9844L10.5709 21.9814M7.773 30.9844L10.5709 21.9814M10.5709 21.9814C10.8408 21.1161 10.5501 20.1693 9.83757 19.6293L10.5709 21.9814Z" fill="#237DEA" stroke="#237DEA" stroke-width="0.5"/>
</svg>
