<svg width="808" height="45" viewBox="0 0 808 45" fill="none" xmlns="http://www.w3.org/2000/svg">
<path d="M8.13086 1.63477V3.95898H7.85742C6.58138 3.97852 5.55273 4.31055 4.77148 4.95508C3.99674 5.59961 3.53125 6.49479 3.375 7.64062C4.13021 6.8724 5.08398 6.48828 6.23633 6.48828C7.47331 6.48828 8.45638 6.93099 9.18555 7.81641C9.91471 8.70182 10.2793 9.86719 10.2793 11.3125C10.2793 12.237 10.0775 13.0736 9.67383 13.8223C9.27669 14.571 8.71029 15.1536 7.97461 15.5703C7.24544 15.987 6.41862 16.1953 5.49414 16.1953C3.99674 16.1953 2.78581 15.6745 1.86133 14.6328C0.943359 13.5911 0.484375 12.2012 0.484375 10.4629V9.44727C0.484375 7.9043 0.774089 6.54362 1.35352 5.36523C1.93945 4.18034 2.77604 3.26562 3.86328 2.62109C4.95703 1.97005 6.22331 1.64128 7.66211 1.63477H8.13086ZM5.37695 8.75391C4.92122 8.75391 4.50781 8.87435 4.13672 9.11523C3.76562 9.34961 3.49219 9.66211 3.31641 10.0527V10.9121C3.31641 11.8561 3.50195 12.5951 3.87305 13.1289C4.24414 13.6562 4.76497 13.9199 5.43555 13.9199C6.04102 13.9199 6.5293 13.6823 6.90039 13.207C7.27799 12.7253 7.4668 12.1035 7.4668 11.3418C7.4668 10.5671 7.27799 9.94206 6.90039 9.4668C6.52279 8.99154 6.01497 8.75391 5.37695 8.75391ZM21.5293 10.1211C21.5293 12.0872 21.1224 13.5911 20.3086 14.6328C19.4948 15.6745 18.3034 16.1953 16.7344 16.1953C15.1849 16.1953 14 15.6842 13.1797 14.6621C12.3594 13.64 11.9395 12.1751 11.9199 10.2676V7.65039C11.9199 5.66471 12.3301 4.15755 13.1504 3.12891C13.9772 2.10026 15.1654 1.58594 16.7148 1.58594C18.2643 1.58594 19.4492 2.09701 20.2695 3.11914C21.0898 4.13477 21.5098 5.59635 21.5293 7.50391V10.1211ZM18.707 7.25C18.707 6.07161 18.5443 5.21549 18.2188 4.68164C17.8997 4.14128 17.3984 3.87109 16.7148 3.87109C16.0508 3.87109 15.5592 4.12826 15.2402 4.64258C14.9277 5.15039 14.7617 5.94792 14.7422 7.03516V10.4922C14.7422 11.651 14.8984 12.5137 15.2109 13.0801C15.5299 13.64 16.0378 13.9199 16.7344 13.9199C17.4245 13.9199 17.9225 13.6497 18.2285 13.1094C18.5345 12.569 18.694 11.7422 18.707 10.6289V7.25ZM23.4043 4.51562C23.4043 3.64323 23.6875 2.93685 24.2539 2.39648C24.8203 1.84961 25.5625 1.57617 26.4805 1.57617C27.4115 1.57617 28.1602 1.84635 28.7266 2.38672C29.293 2.92057 29.5762 3.64648 29.5762 4.56445V5.26758C29.5762 6.14648 29.293 6.85286 28.7266 7.38672C28.1602 7.92057 27.418 8.1875 26.5 8.1875C25.5755 8.1875 24.8268 7.92057 24.2539 7.38672C23.6875 6.84635 23.4043 6.12044 23.4043 5.20898V4.51562ZM25.2793 5.26758C25.2793 5.6582 25.39 5.97396 25.6113 6.21484C25.8392 6.44922 26.1354 6.56641 26.5 6.56641C26.8646 6.56641 27.1543 6.44596 27.3691 6.20508C27.584 5.96419 27.6914 5.64193 27.6914 5.23828V4.51562C27.6914 4.125 27.584 3.80924 27.3691 3.56836C27.1543 3.32747 26.8581 3.20703 26.4805 3.20703C26.1224 3.20703 25.8327 3.32747 25.6113 3.56836C25.39 3.80273 25.2793 4.13151 25.2793 4.55469V5.26758ZM30.2012 12.5137C30.2012 11.6348 30.4876 10.9284 31.0605 10.3945C31.6335 9.85417 32.3757 9.58398 33.2871 9.58398C34.2116 9.58398 34.957 9.85091 35.5234 10.3848C36.0964 10.9121 36.3828 11.6413 36.3828 12.5723V13.2754C36.3828 14.1478 36.1029 14.8542 35.543 15.3945C34.9831 15.9284 34.2376 16.1953 33.3066 16.1953C32.3691 16.1953 31.6172 15.9251 31.0508 15.3848C30.4844 14.8444 30.2012 14.1283 30.2012 13.2363V12.5137ZM32.0762 13.2754C32.0762 13.6335 32.1934 13.9395 32.4277 14.1934C32.6621 14.4473 32.9551 14.5742 33.3066 14.5742C34.1009 14.5742 34.498 14.1348 34.498 13.2559V12.5137C34.498 12.123 34.3874 11.8105 34.166 11.5762C33.9447 11.3353 33.6517 11.2148 33.2871 11.2148C32.9225 11.2148 32.6296 11.3353 32.4082 11.5762C32.1868 11.8105 32.0762 12.1328 32.0762 12.543V13.2754ZM27.0566 14.9355L25.6797 14.1934L32.623 3.08008L34 3.82227L27.0566 14.9355ZM42.8672 10.6191C42.8672 9.57096 43.069 8.63672 43.4727 7.81641C43.8763 6.99609 44.4557 6.36133 45.2109 5.91211C45.9727 5.46289 46.8548 5.23828 47.8574 5.23828C49.2832 5.23828 50.4453 5.67448 51.3438 6.54688C52.2487 7.41927 52.7533 8.60417 52.8574 10.1016L52.877 10.8242C52.877 12.4453 52.4245 13.7474 51.5195 14.7305C50.6146 15.707 49.4004 16.1953 47.877 16.1953C46.3535 16.1953 45.1361 15.707 44.2246 14.7305C43.3197 13.7539 42.8672 12.4258 42.8672 10.7461V10.6191ZM45.6895 10.8242C45.6895 11.8268 45.8783 12.5951 46.2559 13.1289C46.6335 13.6562 47.1738 13.9199 47.877 13.9199C48.5605 13.9199 49.0944 13.6595 49.4785 13.1387C49.8626 12.6113 50.0547 11.7715 50.0547 10.6191C50.0547 9.63607 49.8626 8.87435 49.4785 8.33398C49.0944 7.79362 48.554 7.52344 47.8574 7.52344C47.1673 7.52344 46.6335 7.79362 46.2559 8.33398C45.8783 8.86784 45.6895 9.69792 45.6895 10.8242ZM55.3867 16V7.50391H53.8145V5.43359H55.3867V4.53516C55.3867 3.35026 55.7253 2.43229 56.4023 1.78125C57.0859 1.1237 58.0397 0.794922 59.2637 0.794922C59.6543 0.794922 60.1328 0.860026 60.6992 0.990234L60.6699 3.17773C60.4355 3.11914 60.1491 3.08984 59.8105 3.08984C58.7493 3.08984 58.2188 3.58789 58.2188 4.58398V5.43359H60.3184V7.50391H58.2188V16H55.3867ZM74.3223 12.2695C74.3223 11.7161 74.127 11.293 73.7363 11C73.3457 10.7005 72.6426 10.388 71.627 10.0625C70.6113 9.73047 69.8073 9.40495 69.2148 9.08594C67.6003 8.21354 66.793 7.03841 66.793 5.56055C66.793 4.79232 67.0078 4.10872 67.4375 3.50977C67.8737 2.9043 68.4954 2.43229 69.3027 2.09375C70.1165 1.75521 71.028 1.58594 72.0371 1.58594C73.0527 1.58594 73.9577 1.77148 74.752 2.14258C75.5462 2.50716 76.1615 3.02474 76.5977 3.69531C77.0404 4.36589 77.2617 5.1276 77.2617 5.98047H74.332C74.332 5.32943 74.127 4.82487 73.7168 4.4668C73.3066 4.10221 72.7305 3.91992 71.9883 3.91992C71.2721 3.91992 70.7155 4.07292 70.3184 4.37891C69.9212 4.67839 69.7227 5.07552 69.7227 5.57031C69.7227 6.03255 69.9538 6.41992 70.416 6.73242C70.8848 7.04492 71.5716 7.33789 72.4766 7.61133C74.1432 8.11263 75.3574 8.73438 76.1191 9.47656C76.8809 10.2188 77.2617 11.1432 77.2617 12.25C77.2617 13.4805 76.7962 14.4473 75.8652 15.1504C74.9342 15.847 73.681 16.1953 72.1055 16.1953C71.0117 16.1953 70.0156 15.9967 69.1172 15.5996C68.2188 15.196 67.5319 14.6458 67.0566 13.9492C66.5879 13.2526 66.3535 12.4453 66.3535 11.5273H69.293C69.293 13.0964 70.2305 13.8809 72.1055 13.8809C72.8021 13.8809 73.3457 13.7409 73.7363 13.4609C74.127 13.1745 74.3223 12.7773 74.3223 12.2695ZM81.7148 5.43359L81.8027 6.61523C82.5514 5.69727 83.5638 5.23828 84.8398 5.23828C86.2005 5.23828 87.1348 5.77539 87.6426 6.84961C88.3848 5.77539 89.4427 5.23828 90.8164 5.23828C91.9622 5.23828 92.8151 5.57357 93.375 6.24414C93.9349 6.9082 94.2148 7.91081 94.2148 9.25195V16H91.3828V9.26172C91.3828 8.66276 91.2656 8.22656 91.0312 7.95312C90.7969 7.67318 90.3835 7.5332 89.791 7.5332C88.9447 7.5332 88.3587 7.93685 88.0332 8.74414L88.043 16H85.2207V9.27148C85.2207 8.65951 85.1003 8.2168 84.8594 7.94336C84.6185 7.66992 84.2083 7.5332 83.6289 7.5332C82.8281 7.5332 82.2487 7.86523 81.8906 8.5293V16H79.0684V5.43359H81.7148ZM102.516 16C102.385 15.7461 102.291 15.4303 102.232 15.0527C101.549 15.8145 100.66 16.1953 99.5664 16.1953C98.5312 16.1953 97.6719 15.8958 96.9883 15.2969C96.3112 14.6979 95.9727 13.9427 95.9727 13.0312C95.9727 11.9115 96.3861 11.0521 97.2129 10.4531C98.0462 9.85417 99.2474 9.55143 100.816 9.54492H102.115V8.93945C102.115 8.45117 101.988 8.06055 101.734 7.76758C101.487 7.47461 101.093 7.32812 100.553 7.32812C100.077 7.32812 99.7031 7.44206 99.4297 7.66992C99.1628 7.89779 99.0293 8.21029 99.0293 8.60742H96.207C96.207 7.99544 96.3958 7.42904 96.7734 6.9082C97.151 6.38737 97.6849 5.98047 98.375 5.6875C99.0651 5.38802 99.8398 5.23828 100.699 5.23828C102.001 5.23828 103.033 5.56706 103.795 6.22461C104.563 6.87565 104.947 7.79362 104.947 8.97852V13.5586C104.954 14.5612 105.094 15.3197 105.367 15.834V16H102.516ZM100.182 14.0371C100.598 14.0371 100.982 13.946 101.334 13.7637C101.686 13.5749 101.946 13.3242 102.115 13.0117V11.1953H101.061C99.6478 11.1953 98.8958 11.6836 98.8047 12.6602L98.7949 12.8262C98.7949 13.1777 98.9186 13.4674 99.166 13.6953C99.4134 13.9232 99.752 14.0371 100.182 14.0371ZM110.094 16H107.262V1H110.094V16ZM115.406 16H112.574V1H115.406V16ZM128.844 16C128.714 15.7461 128.619 15.4303 128.561 15.0527C127.877 15.8145 126.988 16.1953 125.895 16.1953C124.859 16.1953 124 15.8958 123.316 15.2969C122.639 14.6979 122.301 13.9427 122.301 13.0312C122.301 11.9115 122.714 11.0521 123.541 10.4531C124.374 9.85417 125.576 9.55143 127.145 9.54492H128.443V8.93945C128.443 8.45117 128.316 8.06055 128.062 7.76758C127.815 7.47461 127.421 7.32812 126.881 7.32812C126.406 7.32812 126.031 7.44206 125.758 7.66992C125.491 7.89779 125.357 8.21029 125.357 8.60742H122.535C122.535 7.99544 122.724 7.42904 123.102 6.9082C123.479 6.38737 124.013 5.98047 124.703 5.6875C125.393 5.38802 126.168 5.23828 127.027 5.23828C128.329 5.23828 129.361 5.56706 130.123 6.22461C130.891 6.87565 131.275 7.79362 131.275 8.97852V13.5586C131.282 14.5612 131.422 15.3197 131.695 15.834V16H128.844ZM126.51 14.0371C126.926 14.0371 127.311 13.946 127.662 13.7637C128.014 13.5749 128.274 13.3242 128.443 13.0117V11.1953H127.389C125.976 11.1953 125.224 11.6836 125.133 12.6602L125.123 12.8262C125.123 13.1777 125.247 13.4674 125.494 13.6953C125.742 13.9232 126.08 14.0371 126.51 14.0371ZM136.041 5.43359L136.129 6.6543C136.884 5.71029 137.896 5.23828 139.166 5.23828C140.286 5.23828 141.119 5.56706 141.666 6.22461C142.213 6.88216 142.493 7.86523 142.506 9.17383V16H139.684V9.24219C139.684 8.64323 139.553 8.21029 139.293 7.94336C139.033 7.66992 138.6 7.5332 137.994 7.5332C137.2 7.5332 136.604 7.87174 136.207 8.54883V16H133.385V5.43359H136.041ZM144.215 10.6387C144.215 8.99154 144.583 7.67969 145.318 6.70312C146.061 5.72656 147.073 5.23828 148.355 5.23828C149.384 5.23828 150.234 5.6224 150.904 6.39062V1H153.736V16H151.188L151.051 14.877C150.348 15.7559 149.443 16.1953 148.336 16.1953C147.092 16.1953 146.093 15.707 145.338 14.7305C144.589 13.7474 144.215 12.3835 144.215 10.6387ZM147.037 10.8438C147.037 11.8333 147.21 12.5918 147.555 13.1191C147.9 13.6465 148.401 13.9102 149.059 13.9102C149.931 13.9102 150.546 13.5423 150.904 12.8066V8.63672C150.553 7.90104 149.944 7.5332 149.078 7.5332C147.717 7.5332 147.037 8.63672 147.037 10.8438ZM164.918 1.78125L168.57 12.0938L172.203 1.78125H176.051V16H173.111V12.1133L173.404 5.4043L169.566 16H167.555L163.727 5.41406L164.02 12.1133V16H161.09V1.78125H164.918ZM181.402 16H178.57V5.43359H181.402V16ZM178.404 2.69922C178.404 2.27604 178.544 1.92773 178.824 1.6543C179.111 1.38086 179.498 1.24414 179.986 1.24414C180.468 1.24414 180.852 1.38086 181.139 1.6543C181.425 1.92773 181.568 2.27604 181.568 2.69922C181.568 3.12891 181.422 3.48047 181.129 3.75391C180.842 4.02734 180.462 4.16406 179.986 4.16406C179.511 4.16406 179.127 4.02734 178.834 3.75391C178.548 3.48047 178.404 3.12891 178.404 2.69922ZM183.297 10.6387C183.297 8.99154 183.665 7.67969 184.4 6.70312C185.143 5.72656 186.155 5.23828 187.438 5.23828C188.466 5.23828 189.316 5.6224 189.986 6.39062V1H192.818V16H190.27L190.133 14.877C189.43 15.7559 188.525 16.1953 187.418 16.1953C186.174 16.1953 185.175 15.707 184.42 14.7305C183.671 13.7474 183.297 12.3835 183.297 10.6387ZM186.119 10.8438C186.119 11.8333 186.292 12.5918 186.637 13.1191C186.982 13.6465 187.483 13.9102 188.141 13.9102C189.013 13.9102 189.628 13.5423 189.986 12.8066V8.63672C189.635 7.90104 189.026 7.5332 188.16 7.5332C186.799 7.5332 186.119 8.63672 186.119 10.8438ZM200.729 13.0801C200.729 12.735 200.556 12.4648 200.211 12.2695C199.872 12.0677 199.326 11.8887 198.57 11.7324C196.057 11.2051 194.801 10.1374 194.801 8.5293C194.801 7.5918 195.188 6.81055 195.963 6.18555C196.744 5.55404 197.763 5.23828 199.02 5.23828C200.361 5.23828 201.432 5.55404 202.232 6.18555C203.04 6.81706 203.443 7.63737 203.443 8.64648H200.621C200.621 8.24284 200.491 7.91081 200.23 7.65039C199.97 7.38346 199.563 7.25 199.01 7.25C198.535 7.25 198.167 7.35742 197.906 7.57227C197.646 7.78711 197.516 8.06055 197.516 8.39258C197.516 8.70508 197.662 8.95898 197.955 9.1543C198.255 9.3431 198.756 9.50911 199.459 9.65234C200.162 9.78906 200.755 9.94531 201.236 10.1211C202.727 10.668 203.473 11.6152 203.473 12.9629C203.473 13.9264 203.059 14.7077 202.232 15.3066C201.406 15.8991 200.338 16.1953 199.029 16.1953C198.144 16.1953 197.356 16.0391 196.666 15.7266C195.982 15.4076 195.445 14.9746 195.055 14.4277C194.664 13.8743 194.469 13.2786 194.469 12.6406H197.145C197.171 13.1419 197.356 13.526 197.701 13.793C198.046 14.0599 198.508 14.1934 199.088 14.1934C199.628 14.1934 200.035 14.0924 200.309 13.8906C200.589 13.6823 200.729 13.4121 200.729 13.0801ZM208.277 16H205.445V5.43359H208.277V16ZM205.279 2.69922C205.279 2.27604 205.419 1.92773 205.699 1.6543C205.986 1.38086 206.373 1.24414 206.861 1.24414C207.343 1.24414 207.727 1.38086 208.014 1.6543C208.3 1.92773 208.443 2.27604 208.443 2.69922C208.443 3.12891 208.297 3.48047 208.004 3.75391C207.717 4.02734 207.337 4.16406 206.861 4.16406C206.386 4.16406 206.002 4.02734 205.709 3.75391C205.423 3.48047 205.279 3.12891 205.279 2.69922ZM213.854 13.7246H219.02V16H210.25V14.2812L215.221 7.71875H210.396V5.43359H218.863V7.10352L213.854 13.7246ZM225.494 16.1953C223.945 16.1953 222.682 15.7201 221.705 14.7695C220.735 13.819 220.25 12.5527 220.25 10.9707V10.6973C220.25 9.63607 220.455 8.6888 220.865 7.85547C221.275 7.01562 221.855 6.37109 222.604 5.92188C223.359 5.46615 224.218 5.23828 225.182 5.23828C226.627 5.23828 227.763 5.69401 228.59 6.60547C229.423 7.51693 229.84 8.80924 229.84 10.4824V11.6348H223.111C223.202 12.3249 223.476 12.8783 223.932 13.2949C224.394 13.7116 224.977 13.9199 225.68 13.9199C226.767 13.9199 227.617 13.526 228.229 12.7383L229.615 14.291C229.192 14.89 228.619 15.3587 227.896 15.6973C227.174 16.0293 226.373 16.1953 225.494 16.1953ZM225.172 7.52344C224.612 7.52344 224.156 7.71224 223.805 8.08984C223.46 8.46745 223.238 9.00781 223.141 9.71094H227.066V9.48633C227.053 8.86133 226.884 8.37956 226.559 8.04102C226.233 7.69596 225.771 7.52344 225.172 7.52344ZM236.617 16V1.78125H241.598C243.323 1.78125 244.632 2.11328 245.523 2.77734C246.415 3.4349 246.861 4.40169 246.861 5.67773C246.861 6.37435 246.682 6.98958 246.324 7.52344C245.966 8.05078 245.468 8.43815 244.83 8.68555C245.559 8.86784 246.132 9.23568 246.549 9.78906C246.972 10.3424 247.184 11.0195 247.184 11.8203C247.184 13.1875 246.747 14.2227 245.875 14.9258C245.003 15.6289 243.759 15.987 242.145 16H236.617ZM239.547 9.80859V13.6465H242.057C242.747 13.6465 243.284 13.4837 243.668 13.1582C244.059 12.8262 244.254 12.3704 244.254 11.791C244.254 10.4889 243.58 9.82812 242.232 9.80859H239.547ZM239.547 7.73828H241.715C243.193 7.71224 243.932 7.12305 243.932 5.9707C243.932 5.32617 243.743 4.86393 243.365 4.58398C242.994 4.29753 242.405 4.1543 241.598 4.1543H239.547V7.73828ZM255.533 14.9258C254.837 15.7721 253.873 16.1953 252.643 16.1953C251.51 16.1953 250.644 15.8698 250.045 15.2188C249.452 14.5677 249.15 13.6139 249.137 12.3574V5.43359H251.959V12.2598C251.959 13.36 252.46 13.9102 253.463 13.9102C254.42 13.9102 255.077 13.5781 255.436 12.9141V5.43359H258.268V16H255.611L255.533 14.9258ZM266.119 13.0801C266.119 12.735 265.947 12.4648 265.602 12.2695C265.263 12.0677 264.716 11.8887 263.961 11.7324C261.448 11.2051 260.191 10.1374 260.191 8.5293C260.191 7.5918 260.579 6.81055 261.354 6.18555C262.135 5.55404 263.154 5.23828 264.41 5.23828C265.751 5.23828 266.822 5.55404 267.623 6.18555C268.43 6.81706 268.834 7.63737 268.834 8.64648H266.012C266.012 8.24284 265.882 7.91081 265.621 7.65039C265.361 7.38346 264.954 7.25 264.4 7.25C263.925 7.25 263.557 7.35742 263.297 7.57227C263.036 7.78711 262.906 8.06055 262.906 8.39258C262.906 8.70508 263.053 8.95898 263.346 9.1543C263.645 9.3431 264.146 9.50911 264.85 9.65234C265.553 9.78906 266.145 9.94531 266.627 10.1211C268.118 10.668 268.863 11.6152 268.863 12.9629C268.863 13.9264 268.45 14.7077 267.623 15.3066C266.796 15.8991 265.729 16.1953 264.42 16.1953C263.535 16.1953 262.747 16.0391 262.057 15.7266C261.373 15.4076 260.836 14.9746 260.445 14.4277C260.055 13.8743 259.859 13.2786 259.859 12.6406H262.535C262.561 13.1419 262.747 13.526 263.092 13.793C263.437 14.0599 263.899 14.1934 264.479 14.1934C265.019 14.1934 265.426 14.0924 265.699 13.8906C265.979 13.6823 266.119 13.4121 266.119 13.0801ZM273.668 16H270.836V5.43359H273.668V16ZM270.67 2.69922C270.67 2.27604 270.81 1.92773 271.09 1.6543C271.376 1.38086 271.764 1.24414 272.252 1.24414C272.734 1.24414 273.118 1.38086 273.404 1.6543C273.691 1.92773 273.834 2.27604 273.834 2.69922C273.834 3.12891 273.688 3.48047 273.395 3.75391C273.108 4.02734 272.727 4.16406 272.252 4.16406C271.777 4.16406 271.393 4.02734 271.1 3.75391C270.813 3.48047 270.67 3.12891 270.67 2.69922ZM278.6 5.43359L278.688 6.6543C279.443 5.71029 280.455 5.23828 281.725 5.23828C282.844 5.23828 283.678 5.56706 284.225 6.22461C284.771 6.88216 285.051 7.86523 285.064 9.17383V16H282.242V9.24219C282.242 8.64323 282.112 8.21029 281.852 7.94336C281.591 7.66992 281.158 7.5332 280.553 7.5332C279.758 7.5332 279.163 7.87174 278.766 8.54883V16H275.943V5.43359H278.6ZM292.076 16.1953C290.527 16.1953 289.264 15.7201 288.287 14.7695C287.317 13.819 286.832 12.5527 286.832 10.9707V10.6973C286.832 9.63607 287.037 8.6888 287.447 7.85547C287.857 7.01562 288.437 6.37109 289.186 5.92188C289.941 5.46615 290.8 5.23828 291.764 5.23828C293.209 5.23828 294.345 5.69401 295.172 6.60547C296.005 7.51693 296.422 8.80924 296.422 10.4824V11.6348H289.693C289.785 12.3249 290.058 12.8783 290.514 13.2949C290.976 13.7116 291.559 13.9199 292.262 13.9199C293.349 13.9199 294.199 13.526 294.811 12.7383L296.197 14.291C295.774 14.89 295.201 15.3587 294.479 15.6973C293.756 16.0293 292.955 16.1953 292.076 16.1953ZM291.754 7.52344C291.194 7.52344 290.738 7.71224 290.387 8.08984C290.042 8.46745 289.82 9.00781 289.723 9.71094H293.648V9.48633C293.635 8.86133 293.466 8.37956 293.141 8.04102C292.815 7.69596 292.353 7.52344 291.754 7.52344ZM303.756 13.0801C303.756 12.735 303.583 12.4648 303.238 12.2695C302.9 12.0677 302.353 11.8887 301.598 11.7324C299.085 11.2051 297.828 10.1374 297.828 8.5293C297.828 7.5918 298.215 6.81055 298.99 6.18555C299.771 5.55404 300.79 5.23828 302.047 5.23828C303.388 5.23828 304.459 5.55404 305.26 6.18555C306.067 6.81706 306.471 7.63737 306.471 8.64648H303.648C303.648 8.24284 303.518 7.91081 303.258 7.65039C302.997 7.38346 302.59 7.25 302.037 7.25C301.562 7.25 301.194 7.35742 300.934 7.57227C300.673 7.78711 300.543 8.06055 300.543 8.39258C300.543 8.70508 300.689 8.95898 300.982 9.1543C301.282 9.3431 301.783 9.50911 302.486 9.65234C303.189 9.78906 303.782 9.94531 304.264 10.1211C305.755 10.668 306.5 11.6152 306.5 12.9629C306.5 13.9264 306.087 14.7077 305.26 15.3066C304.433 15.8991 303.365 16.1953 302.057 16.1953C301.171 16.1953 300.383 16.0391 299.693 15.7266C299.01 15.4076 298.473 14.9746 298.082 14.4277C297.691 13.8743 297.496 13.2786 297.496 12.6406H300.172C300.198 13.1419 300.383 13.526 300.729 13.793C301.074 14.0599 301.536 14.1934 302.115 14.1934C302.656 14.1934 303.062 14.0924 303.336 13.8906C303.616 13.6823 303.756 13.4121 303.756 13.0801ZM314.049 13.0801C314.049 12.735 313.876 12.4648 313.531 12.2695C313.193 12.0677 312.646 11.8887 311.891 11.7324C309.378 11.2051 308.121 10.1374 308.121 8.5293C308.121 7.5918 308.508 6.81055 309.283 6.18555C310.064 5.55404 311.083 5.23828 312.34 5.23828C313.681 5.23828 314.752 5.55404 315.553 6.18555C316.36 6.81706 316.764 7.63737 316.764 8.64648H313.941C313.941 8.24284 313.811 7.91081 313.551 7.65039C313.29 7.38346 312.883 7.25 312.33 7.25C311.855 7.25 311.487 7.35742 311.227 7.57227C310.966 7.78711 310.836 8.06055 310.836 8.39258C310.836 8.70508 310.982 8.95898 311.275 9.1543C311.575 9.3431 312.076 9.50911 312.779 9.65234C313.482 9.78906 314.075 9.94531 314.557 10.1211C316.048 10.668 316.793 11.6152 316.793 12.9629C316.793 13.9264 316.38 14.7077 315.553 15.3066C314.726 15.8991 313.658 16.1953 312.35 16.1953C311.464 16.1953 310.676 16.0391 309.986 15.7266C309.303 15.4076 308.766 14.9746 308.375 14.4277C307.984 13.8743 307.789 13.2786 307.789 12.6406H310.465C310.491 13.1419 310.676 13.526 311.021 13.793C311.367 14.0599 311.829 14.1934 312.408 14.1934C312.949 14.1934 313.355 14.0924 313.629 13.8906C313.909 13.6823 314.049 13.4121 314.049 13.0801ZM323.482 16.1953C321.933 16.1953 320.67 15.7201 319.693 14.7695C318.723 13.819 318.238 12.5527 318.238 10.9707V10.6973C318.238 9.63607 318.443 8.6888 318.854 7.85547C319.264 7.01562 319.843 6.37109 320.592 5.92188C321.347 5.46615 322.206 5.23828 323.17 5.23828C324.615 5.23828 325.751 5.69401 326.578 6.60547C327.411 7.51693 327.828 8.80924 327.828 10.4824V11.6348H321.1C321.191 12.3249 321.464 12.8783 321.92 13.2949C322.382 13.7116 322.965 13.9199 323.668 13.9199C324.755 13.9199 325.605 13.526 326.217 12.7383L327.604 14.291C327.18 14.89 326.607 15.3587 325.885 15.6973C325.162 16.0293 324.361 16.1953 323.482 16.1953ZM323.16 7.52344C322.6 7.52344 322.145 7.71224 321.793 8.08984C321.448 8.46745 321.227 9.00781 321.129 9.71094H325.055V9.48633C325.042 8.86133 324.872 8.37956 324.547 8.04102C324.221 7.69596 323.759 7.52344 323.16 7.52344ZM335.162 13.0801C335.162 12.735 334.99 12.4648 334.645 12.2695C334.306 12.0677 333.759 11.8887 333.004 11.7324C330.491 11.2051 329.234 10.1374 329.234 8.5293C329.234 7.5918 329.622 6.81055 330.396 6.18555C331.178 5.55404 332.197 5.23828 333.453 5.23828C334.794 5.23828 335.865 5.55404 336.666 6.18555C337.473 6.81706 337.877 7.63737 337.877 8.64648H335.055C335.055 8.24284 334.924 7.91081 334.664 7.65039C334.404 7.38346 333.997 7.25 333.443 7.25C332.968 7.25 332.6 7.35742 332.34 7.57227C332.079 7.78711 331.949 8.06055 331.949 8.39258C331.949 8.70508 332.096 8.95898 332.389 9.1543C332.688 9.3431 333.189 9.50911 333.893 9.65234C334.596 9.78906 335.188 9.94531 335.67 10.1211C337.161 10.668 337.906 11.6152 337.906 12.9629C337.906 13.9264 337.493 14.7077 336.666 15.3066C335.839 15.8991 334.771 16.1953 333.463 16.1953C332.577 16.1953 331.79 16.0391 331.1 15.7266C330.416 15.4076 329.879 14.9746 329.488 14.4277C329.098 13.8743 328.902 13.2786 328.902 12.6406H331.578C331.604 13.1419 331.79 13.526 332.135 13.793C332.48 14.0599 332.942 14.1934 333.521 14.1934C334.062 14.1934 334.469 14.0924 334.742 13.8906C335.022 13.6823 335.162 13.4121 335.162 13.0801ZM348.092 2.83594V5.43359H349.898V7.50391H348.092V12.7773C348.092 13.168 348.167 13.4479 348.316 13.6172C348.466 13.7865 348.753 13.8711 349.176 13.8711C349.488 13.8711 349.765 13.8483 350.006 13.8027V15.9414C349.452 16.1107 348.883 16.1953 348.297 16.1953C346.318 16.1953 345.309 15.196 345.27 13.1973V7.50391H343.727V5.43359H345.27V2.83594H348.092ZM354.225 6.58594C354.973 5.6875 355.914 5.23828 357.047 5.23828C359.339 5.23828 360.501 6.56966 360.533 9.23242V16H357.711V9.31055C357.711 8.70508 357.581 8.25911 357.32 7.97266C357.06 7.67969 356.627 7.5332 356.021 7.5332C355.195 7.5332 354.596 7.85221 354.225 8.49023V16H351.402V1H354.225V6.58594ZM368.785 16C368.655 15.7461 368.561 15.4303 368.502 15.0527C367.818 15.8145 366.93 16.1953 365.836 16.1953C364.801 16.1953 363.941 15.8958 363.258 15.2969C362.581 14.6979 362.242 13.9427 362.242 13.0312C362.242 11.9115 362.656 11.0521 363.482 10.4531C364.316 9.85417 365.517 9.55143 367.086 9.54492H368.385V8.93945C368.385 8.45117 368.258 8.06055 368.004 7.76758C367.757 7.47461 367.363 7.32812 366.822 7.32812C366.347 7.32812 365.973 7.44206 365.699 7.66992C365.432 7.89779 365.299 8.21029 365.299 8.60742H362.477C362.477 7.99544 362.665 7.42904 363.043 6.9082C363.421 6.38737 363.954 5.98047 364.645 5.6875C365.335 5.38802 366.109 5.23828 366.969 5.23828C368.271 5.23828 369.303 5.56706 370.064 6.22461C370.833 6.87565 371.217 7.79362 371.217 8.97852V13.5586C371.223 14.5612 371.363 15.3197 371.637 15.834V16H368.785ZM366.451 14.0371C366.868 14.0371 367.252 13.946 367.604 13.7637C367.955 13.5749 368.215 13.3242 368.385 13.0117V11.1953H367.33C365.917 11.1953 365.165 11.6836 365.074 12.6602L365.064 12.8262C365.064 13.1777 365.188 13.4674 365.436 13.6953C365.683 13.9232 366.021 14.0371 366.451 14.0371ZM376.764 2.83594V5.43359H378.57V7.50391H376.764V12.7773C376.764 13.168 376.839 13.4479 376.988 13.6172C377.138 13.7865 377.424 13.8711 377.848 13.8711C378.16 13.8711 378.437 13.8483 378.678 13.8027V15.9414C378.124 16.1107 377.555 16.1953 376.969 16.1953C374.99 16.1953 373.98 15.196 373.941 13.1973V7.50391H372.398V5.43359H373.941V2.83594H376.764ZM391.246 16C391.116 15.7461 391.021 15.4303 390.963 15.0527C390.279 15.8145 389.391 16.1953 388.297 16.1953C387.262 16.1953 386.402 15.8958 385.719 15.2969C385.042 14.6979 384.703 13.9427 384.703 13.0312C384.703 11.9115 385.117 11.0521 385.943 10.4531C386.777 9.85417 387.978 9.55143 389.547 9.54492H390.846V8.93945C390.846 8.45117 390.719 8.06055 390.465 7.76758C390.217 7.47461 389.824 7.32812 389.283 7.32812C388.808 7.32812 388.434 7.44206 388.16 7.66992C387.893 7.89779 387.76 8.21029 387.76 8.60742H384.938C384.938 7.99544 385.126 7.42904 385.504 6.9082C385.882 6.38737 386.415 5.98047 387.105 5.6875C387.796 5.38802 388.57 5.23828 389.43 5.23828C390.732 5.23828 391.764 5.56706 392.525 6.22461C393.294 6.87565 393.678 7.79362 393.678 8.97852V13.5586C393.684 14.5612 393.824 15.3197 394.098 15.834V16H391.246ZM388.912 14.0371C389.329 14.0371 389.713 13.946 390.064 13.7637C390.416 13.5749 390.676 13.3242 390.846 13.0117V11.1953H389.791C388.378 11.1953 387.626 11.6836 387.535 12.6602L387.525 12.8262C387.525 13.1777 387.649 13.4674 387.896 13.6953C388.144 13.9232 388.482 14.0371 388.912 14.0371ZM401.783 8.08008C401.399 8.02799 401.061 8.00195 400.768 8.00195C399.7 8.00195 399 8.36328 398.668 9.08594V16H395.846V5.43359H398.512L398.59 6.69336C399.156 5.72331 399.941 5.23828 400.943 5.23828C401.256 5.23828 401.549 5.2806 401.822 5.36523L401.783 8.08008ZM407.818 16.1953C406.269 16.1953 405.006 15.7201 404.029 14.7695C403.059 13.819 402.574 12.5527 402.574 10.9707V10.6973C402.574 9.63607 402.779 8.6888 403.189 7.85547C403.6 7.01562 404.179 6.37109 404.928 5.92188C405.683 5.46615 406.542 5.23828 407.506 5.23828C408.951 5.23828 410.087 5.69401 410.914 6.60547C411.747 7.51693 412.164 8.80924 412.164 10.4824V11.6348H405.436C405.527 12.3249 405.8 12.8783 406.256 13.2949C406.718 13.7116 407.301 13.9199 408.004 13.9199C409.091 13.9199 409.941 13.526 410.553 12.7383L411.939 14.291C411.516 14.89 410.943 15.3587 410.221 15.6973C409.498 16.0293 408.697 16.1953 407.818 16.1953ZM407.496 7.52344C406.936 7.52344 406.48 7.71224 406.129 8.08984C405.784 8.46745 405.562 9.00781 405.465 9.71094H409.391V9.48633C409.378 8.86133 409.208 8.37956 408.883 8.04102C408.557 7.69596 408.095 7.52344 407.496 7.52344ZM421.51 6.58594C422.258 5.6875 423.199 5.23828 424.332 5.23828C426.624 5.23828 427.786 6.56966 427.818 9.23242V16H424.996V9.31055C424.996 8.70508 424.866 8.25911 424.605 7.97266C424.345 7.67969 423.912 7.5332 423.307 7.5332C422.48 7.5332 421.881 7.85221 421.51 8.49023V16H418.688V1H421.51V6.58594ZM436.07 16C435.94 15.7461 435.846 15.4303 435.787 15.0527C435.104 15.8145 434.215 16.1953 433.121 16.1953C432.086 16.1953 431.227 15.8958 430.543 15.2969C429.866 14.6979 429.527 13.9427 429.527 13.0312C429.527 11.9115 429.941 11.0521 430.768 10.4531C431.601 9.85417 432.802 9.55143 434.371 9.54492H435.67V8.93945C435.67 8.45117 435.543 8.06055 435.289 7.76758C435.042 7.47461 434.648 7.32812 434.107 7.32812C433.632 7.32812 433.258 7.44206 432.984 7.66992C432.717 7.89779 432.584 8.21029 432.584 8.60742H429.762C429.762 7.99544 429.951 7.42904 430.328 6.9082C430.706 6.38737 431.24 5.98047 431.93 5.6875C432.62 5.38802 433.395 5.23828 434.254 5.23828C435.556 5.23828 436.588 5.56706 437.35 6.22461C438.118 6.87565 438.502 7.79362 438.502 8.97852V13.5586C438.508 14.5612 438.648 15.3197 438.922 15.834V16H436.07ZM433.736 14.0371C434.153 14.0371 434.537 13.946 434.889 13.7637C435.24 13.5749 435.501 13.3242 435.67 13.0117V11.1953H434.615C433.202 11.1953 432.451 11.6836 432.359 12.6602L432.35 12.8262C432.35 13.1777 432.473 13.4674 432.721 13.6953C432.968 13.9232 433.307 14.0371 433.736 14.0371ZM445.064 13.9199C445.585 13.9199 446.008 13.7767 446.334 13.4902C446.66 13.2038 446.829 12.8229 446.842 12.3477H449.488C449.482 13.0638 449.286 13.7214 448.902 14.3203C448.518 14.9128 447.991 15.375 447.32 15.707C446.656 16.0326 445.921 16.1953 445.113 16.1953C443.603 16.1953 442.411 15.7168 441.539 14.7598C440.667 13.7962 440.23 12.4681 440.23 10.7754V10.5898C440.23 8.96224 440.663 7.66341 441.529 6.69336C442.395 5.72331 443.583 5.23828 445.094 5.23828C446.415 5.23828 447.473 5.61589 448.268 6.37109C449.068 7.11979 449.475 8.11914 449.488 9.36914H446.842C446.829 8.82227 446.66 8.37956 446.334 8.04102C446.008 7.69596 445.579 7.52344 445.045 7.52344C444.387 7.52344 443.889 7.76432 443.551 8.24609C443.219 8.72135 443.053 9.49609 443.053 10.5703V10.8633C443.053 11.9505 443.219 12.7318 443.551 13.207C443.883 13.6823 444.387 13.9199 445.064 13.9199ZM454.938 11.7617L453.922 12.7773V16H451.1V1H453.922V9.31055L454.469 8.60742L457.174 5.43359H460.562L456.744 9.83789L460.895 16H457.652L454.938 11.7617ZM466.451 16.1953C464.902 16.1953 463.639 15.7201 462.662 14.7695C461.692 13.819 461.207 12.5527 461.207 10.9707V10.6973C461.207 9.63607 461.412 8.6888 461.822 7.85547C462.232 7.01562 462.812 6.37109 463.561 5.92188C464.316 5.46615 465.175 5.23828 466.139 5.23828C467.584 5.23828 468.72 5.69401 469.547 6.60547C470.38 7.51693 470.797 8.80924 470.797 10.4824V11.6348H464.068C464.16 12.3249 464.433 12.8783 464.889 13.2949C465.351 13.7116 465.934 13.9199 466.637 13.9199C467.724 13.9199 468.574 13.526 469.186 12.7383L470.572 14.291C470.149 14.89 469.576 15.3587 468.854 15.6973C468.131 16.0293 467.33 16.1953 466.451 16.1953ZM466.129 7.52344C465.569 7.52344 465.113 7.71224 464.762 8.08984C464.417 8.46745 464.195 9.00781 464.098 9.71094H468.023V9.48633C468.01 8.86133 467.841 8.37956 467.516 8.04102C467.19 7.69596 466.728 7.52344 466.129 7.52344ZM471.969 10.6387C471.969 8.99154 472.337 7.67969 473.072 6.70312C473.814 5.72656 474.827 5.23828 476.109 5.23828C477.138 5.23828 477.988 5.6224 478.658 6.39062V1H481.49V16H478.941L478.805 14.877C478.102 15.7559 477.197 16.1953 476.09 16.1953C474.846 16.1953 473.847 15.707 473.092 14.7305C472.343 13.7474 471.969 12.3835 471.969 10.6387ZM474.791 10.8438C474.791 11.8333 474.964 12.5918 475.309 13.1191C475.654 13.6465 476.155 13.9102 476.812 13.9102C477.685 13.9102 478.3 13.5423 478.658 12.8066V8.63672C478.307 7.90104 477.698 7.5332 476.832 7.5332C475.471 7.5332 474.791 8.63672 474.791 10.8438ZM488.248 10.6387C488.248 9.01758 488.632 7.71224 489.4 6.72266C490.175 5.73307 491.217 5.23828 492.525 5.23828C493.684 5.23828 494.586 5.63542 495.23 6.42969L495.348 5.43359H497.906V15.6484C497.906 16.5729 497.695 17.377 497.271 18.0605C496.855 18.7441 496.266 19.265 495.504 19.623C494.742 19.9811 493.85 20.1602 492.828 20.1602C492.053 20.1602 491.298 20.0039 490.562 19.6914C489.827 19.3854 489.27 18.9883 488.893 18.5L490.143 16.7812C490.846 17.569 491.699 17.9629 492.701 17.9629C493.45 17.9629 494.033 17.7611 494.449 17.3574C494.866 16.9603 495.074 16.3939 495.074 15.6582V15.0918C494.423 15.8275 493.567 16.1953 492.506 16.1953C491.236 16.1953 490.208 15.7005 489.42 14.7109C488.639 13.7148 488.248 12.3965 488.248 10.7559V10.6387ZM491.07 10.8438C491.07 11.8008 491.262 12.5527 491.646 13.0996C492.031 13.64 492.558 13.9102 493.229 13.9102C494.088 13.9102 494.703 13.5879 495.074 12.9434V8.5C494.697 7.85547 494.088 7.5332 493.248 7.5332C492.571 7.5332 492.037 7.8099 491.646 8.36328C491.262 8.91667 491.07 9.74349 491.07 10.8438ZM499.645 10.6191C499.645 9.57096 499.846 8.63672 500.25 7.81641C500.654 6.99609 501.233 6.36133 501.988 5.91211C502.75 5.46289 503.632 5.23828 504.635 5.23828C506.061 5.23828 507.223 5.67448 508.121 6.54688C509.026 7.41927 509.531 8.60417 509.635 10.1016L509.654 10.8242C509.654 12.4453 509.202 13.7474 508.297 14.7305C507.392 15.707 506.178 16.1953 504.654 16.1953C503.131 16.1953 501.913 15.707 501.002 14.7305C500.097 13.7539 499.645 12.4258 499.645 10.7461V10.6191ZM502.467 10.8242C502.467 11.8268 502.656 12.5951 503.033 13.1289C503.411 13.6562 503.951 13.9199 504.654 13.9199C505.338 13.9199 505.872 13.6595 506.256 13.1387C506.64 12.6113 506.832 11.7715 506.832 10.6191C506.832 9.63607 506.64 8.87435 506.256 8.33398C505.872 7.79362 505.331 7.52344 504.635 7.52344C503.945 7.52344 503.411 7.79362 503.033 8.33398C502.656 8.86784 502.467 9.69792 502.467 10.8242ZM515.934 10.6191C515.934 9.57096 516.135 8.63672 516.539 7.81641C516.943 6.99609 517.522 6.36133 518.277 5.91211C519.039 5.46289 519.921 5.23828 520.924 5.23828C522.35 5.23828 523.512 5.67448 524.41 6.54688C525.315 7.41927 525.82 8.60417 525.924 10.1016L525.943 10.8242C525.943 12.4453 525.491 13.7474 524.586 14.7305C523.681 15.707 522.467 16.1953 520.943 16.1953C519.42 16.1953 518.202 15.707 517.291 14.7305C516.386 13.7539 515.934 12.4258 515.934 10.7461V10.6191ZM518.756 10.8242C518.756 11.8268 518.945 12.5951 519.322 13.1289C519.7 13.6562 520.24 13.9199 520.943 13.9199C521.627 13.9199 522.161 13.6595 522.545 13.1387C522.929 12.6113 523.121 11.7715 523.121 10.6191C523.121 9.63607 522.929 8.87435 522.545 8.33398C522.161 7.79362 521.62 7.52344 520.924 7.52344C520.234 7.52344 519.7 7.79362 519.322 8.33398C518.945 8.86784 518.756 9.69792 518.756 10.8242ZM534.01 14.9258C533.313 15.7721 532.35 16.1953 531.119 16.1953C529.986 16.1953 529.12 15.8698 528.521 15.2188C527.929 14.5677 527.626 13.6139 527.613 12.3574V5.43359H530.436V12.2598C530.436 13.36 530.937 13.9102 531.939 13.9102C532.896 13.9102 533.554 13.5781 533.912 12.9141V5.43359H536.744V16H534.088L534.01 14.9258ZM542.252 2.83594V5.43359H544.059V7.50391H542.252V12.7773C542.252 13.168 542.327 13.4479 542.477 13.6172C542.626 13.7865 542.913 13.8711 543.336 13.8711C543.648 13.8711 543.925 13.8483 544.166 13.8027V15.9414C543.613 16.1107 543.043 16.1953 542.457 16.1953C540.478 16.1953 539.469 15.196 539.43 13.1973V7.50391H537.887V5.43359H539.43V2.83594H542.252ZM550.172 10.6191C550.172 9.57096 550.374 8.63672 550.777 7.81641C551.181 6.99609 551.76 6.36133 552.516 5.91211C553.277 5.46289 554.16 5.23828 555.162 5.23828C556.588 5.23828 557.75 5.67448 558.648 6.54688C559.553 7.41927 560.058 8.60417 560.162 10.1016L560.182 10.8242C560.182 12.4453 559.729 13.7474 558.824 14.7305C557.919 15.707 556.705 16.1953 555.182 16.1953C553.658 16.1953 552.441 15.707 551.529 14.7305C550.624 13.7539 550.172 12.4258 550.172 10.7461V10.6191ZM552.994 10.8242C552.994 11.8268 553.183 12.5951 553.561 13.1289C553.938 13.6562 554.479 13.9199 555.182 13.9199C555.865 13.9199 556.399 13.6595 556.783 13.1387C557.167 12.6113 557.359 11.7715 557.359 10.6191C557.359 9.63607 557.167 8.87435 556.783 8.33398C556.399 7.79362 555.859 7.52344 555.162 7.52344C554.472 7.52344 553.938 7.79362 553.561 8.33398C553.183 8.86784 552.994 9.69792 552.994 10.8242ZM562.691 16V7.50391H561.119V5.43359H562.691V4.53516C562.691 3.35026 563.03 2.43229 563.707 1.78125C564.391 1.1237 565.344 0.794922 566.568 0.794922C566.959 0.794922 567.438 0.860026 568.004 0.990234L567.975 3.17773C567.74 3.11914 567.454 3.08984 567.115 3.08984C566.054 3.08984 565.523 3.58789 565.523 4.58398V5.43359H567.623V7.50391H565.523V16H562.691ZM583.59 10.8145C583.59 12.5072 583.229 13.8288 582.506 14.7793C581.783 15.7233 580.774 16.1953 579.479 16.1953C578.333 16.1953 577.418 15.7559 576.734 14.877L576.607 16H574.068V1H576.891V6.38086C577.542 5.61914 578.398 5.23828 579.459 5.23828C580.748 5.23828 581.757 5.71354 582.486 6.66406C583.222 7.60807 583.59 8.93945 583.59 10.6582V10.8145ZM580.768 10.6094C580.768 9.54167 580.598 8.76367 580.26 8.27539C579.921 7.7806 579.417 7.5332 578.746 7.5332C577.848 7.5332 577.229 7.90104 576.891 8.63672V12.8066C577.236 13.5488 577.861 13.9199 578.766 13.9199C579.677 13.9199 580.276 13.4707 580.562 12.5723C580.699 12.1426 580.768 11.4883 580.768 10.6094ZM591.666 14.9258C590.969 15.7721 590.006 16.1953 588.775 16.1953C587.643 16.1953 586.777 15.8698 586.178 15.2188C585.585 14.5677 585.283 13.6139 585.27 12.3574V5.43359H588.092V12.2598C588.092 13.36 588.593 13.9102 589.596 13.9102C590.553 13.9102 591.21 13.5781 591.568 12.9141V5.43359H594.4V16H591.744L591.666 14.9258ZM602.252 13.0801C602.252 12.735 602.079 12.4648 601.734 12.2695C601.396 12.0677 600.849 11.8887 600.094 11.7324C597.581 11.2051 596.324 10.1374 596.324 8.5293C596.324 7.5918 596.712 6.81055 597.486 6.18555C598.268 5.55404 599.286 5.23828 600.543 5.23828C601.884 5.23828 602.955 5.55404 603.756 6.18555C604.563 6.81706 604.967 7.63737 604.967 8.64648H602.145C602.145 8.24284 602.014 7.91081 601.754 7.65039C601.493 7.38346 601.087 7.25 600.533 7.25C600.058 7.25 599.69 7.35742 599.43 7.57227C599.169 7.78711 599.039 8.06055 599.039 8.39258C599.039 8.70508 599.186 8.95898 599.479 9.1543C599.778 9.3431 600.279 9.50911 600.982 9.65234C601.686 9.78906 602.278 9.94531 602.76 10.1211C604.251 10.668 604.996 11.6152 604.996 12.9629C604.996 13.9264 604.583 14.7077 603.756 15.3066C602.929 15.8991 601.861 16.1953 600.553 16.1953C599.667 16.1953 598.88 16.0391 598.189 15.7266C597.506 15.4076 596.969 14.9746 596.578 14.4277C596.188 13.8743 595.992 13.2786 595.992 12.6406H598.668C598.694 13.1419 598.88 13.526 599.225 13.793C599.57 14.0599 600.032 14.1934 600.611 14.1934C601.152 14.1934 601.559 14.0924 601.832 13.8906C602.112 13.6823 602.252 13.4121 602.252 13.0801ZM609.801 16H606.969V5.43359H609.801V16ZM606.803 2.69922C606.803 2.27604 606.943 1.92773 607.223 1.6543C607.509 1.38086 607.896 1.24414 608.385 1.24414C608.867 1.24414 609.251 1.38086 609.537 1.6543C609.824 1.92773 609.967 2.27604 609.967 2.69922C609.967 3.12891 609.82 3.48047 609.527 3.75391C609.241 4.02734 608.86 4.16406 608.385 4.16406C607.91 4.16406 607.525 4.02734 607.232 3.75391C606.946 3.48047 606.803 3.12891 606.803 2.69922ZM614.732 5.43359L614.82 6.6543C615.576 5.71029 616.588 5.23828 617.857 5.23828C618.977 5.23828 619.811 5.56706 620.357 6.22461C620.904 6.88216 621.184 7.86523 621.197 9.17383V16H618.375V9.24219C618.375 8.64323 618.245 8.21029 617.984 7.94336C617.724 7.66992 617.291 7.5332 616.686 7.5332C615.891 7.5332 615.296 7.87174 614.898 8.54883V16H612.076V5.43359H614.732ZM628.209 16.1953C626.66 16.1953 625.396 15.7201 624.42 14.7695C623.45 13.819 622.965 12.5527 622.965 10.9707V10.6973C622.965 9.63607 623.17 8.6888 623.58 7.85547C623.99 7.01562 624.57 6.37109 625.318 5.92188C626.074 5.46615 626.933 5.23828 627.896 5.23828C629.342 5.23828 630.478 5.69401 631.305 6.60547C632.138 7.51693 632.555 8.80924 632.555 10.4824V11.6348H625.826C625.917 12.3249 626.191 12.8783 626.646 13.2949C627.109 13.7116 627.691 13.9199 628.395 13.9199C629.482 13.9199 630.331 13.526 630.943 12.7383L632.33 14.291C631.907 14.89 631.334 15.3587 630.611 15.6973C629.889 16.0293 629.088 16.1953 628.209 16.1953ZM627.887 7.52344C627.327 7.52344 626.871 7.71224 626.52 8.08984C626.174 8.46745 625.953 9.00781 625.855 9.71094H629.781V9.48633C629.768 8.86133 629.599 8.37956 629.273 8.04102C628.948 7.69596 628.486 7.52344 627.887 7.52344ZM639.889 13.0801C639.889 12.735 639.716 12.4648 639.371 12.2695C639.033 12.0677 638.486 11.8887 637.73 11.7324C635.217 11.2051 633.961 10.1374 633.961 8.5293C633.961 7.5918 634.348 6.81055 635.123 6.18555C635.904 5.55404 636.923 5.23828 638.18 5.23828C639.521 5.23828 640.592 5.55404 641.393 6.18555C642.2 6.81706 642.604 7.63737 642.604 8.64648H639.781C639.781 8.24284 639.651 7.91081 639.391 7.65039C639.13 7.38346 638.723 7.25 638.17 7.25C637.695 7.25 637.327 7.35742 637.066 7.57227C636.806 7.78711 636.676 8.06055 636.676 8.39258C636.676 8.70508 636.822 8.95898 637.115 9.1543C637.415 9.3431 637.916 9.50911 638.619 9.65234C639.322 9.78906 639.915 9.94531 640.396 10.1211C641.887 10.668 642.633 11.6152 642.633 12.9629C642.633 13.9264 642.219 14.7077 641.393 15.3066C640.566 15.8991 639.498 16.1953 638.189 16.1953C637.304 16.1953 636.516 16.0391 635.826 15.7266C635.143 15.4076 634.605 14.9746 634.215 14.4277C633.824 13.8743 633.629 13.2786 633.629 12.6406H636.305C636.331 13.1419 636.516 13.526 636.861 13.793C637.206 14.0599 637.669 14.1934 638.248 14.1934C638.788 14.1934 639.195 14.0924 639.469 13.8906C639.749 13.6823 639.889 13.4121 639.889 13.0801ZM650.182 13.0801C650.182 12.735 650.009 12.4648 649.664 12.2695C649.326 12.0677 648.779 11.8887 648.023 11.7324C645.51 11.2051 644.254 10.1374 644.254 8.5293C644.254 7.5918 644.641 6.81055 645.416 6.18555C646.197 5.55404 647.216 5.23828 648.473 5.23828C649.814 5.23828 650.885 5.55404 651.686 6.18555C652.493 6.81706 652.896 7.63737 652.896 8.64648H650.074C650.074 8.24284 649.944 7.91081 649.684 7.65039C649.423 7.38346 649.016 7.25 648.463 7.25C647.988 7.25 647.62 7.35742 647.359 7.57227C647.099 7.78711 646.969 8.06055 646.969 8.39258C646.969 8.70508 647.115 8.95898 647.408 9.1543C647.708 9.3431 648.209 9.50911 648.912 9.65234C649.615 9.78906 650.208 9.94531 650.689 10.1211C652.18 10.668 652.926 11.6152 652.926 12.9629C652.926 13.9264 652.512 14.7077 651.686 15.3066C650.859 15.8991 649.791 16.1953 648.482 16.1953C647.597 16.1953 646.809 16.0391 646.119 15.7266C645.436 15.4076 644.898 14.9746 644.508 14.4277C644.117 13.8743 643.922 13.2786 643.922 12.6406H646.598C646.624 13.1419 646.809 13.526 647.154 13.793C647.499 14.0599 647.962 14.1934 648.541 14.1934C649.081 14.1934 649.488 14.0924 649.762 13.8906C650.042 13.6823 650.182 13.4121 650.182 13.0801ZM668.922 12.1621L670.309 5.43359H673.033L670.338 16H667.975L665.973 9.34961L663.971 16H661.617L658.922 5.43359H661.646L663.023 12.1523L664.957 5.43359H666.998L668.922 12.1621ZM677.418 16H674.586V5.43359H677.418V16ZM674.42 2.69922C674.42 2.27604 674.56 1.92773 674.84 1.6543C675.126 1.38086 675.514 1.24414 676.002 1.24414C676.484 1.24414 676.868 1.38086 677.154 1.6543C677.441 1.92773 677.584 2.27604 677.584 2.69922C677.584 3.12891 677.438 3.48047 677.145 3.75391C676.858 4.02734 676.477 4.16406 676.002 4.16406C675.527 4.16406 675.143 4.02734 674.85 3.75391C674.563 3.48047 674.42 3.12891 674.42 2.69922ZM683.131 2.83594V5.43359H684.938V7.50391H683.131V12.7773C683.131 13.168 683.206 13.4479 683.355 13.6172C683.505 13.7865 683.792 13.8711 684.215 13.8711C684.527 13.8711 684.804 13.8483 685.045 13.8027V15.9414C684.492 16.1107 683.922 16.1953 683.336 16.1953C681.357 16.1953 680.348 15.196 680.309 13.1973V7.50391H678.766V5.43359H680.309V2.83594H683.131ZM689.264 6.58594C690.012 5.6875 690.953 5.23828 692.086 5.23828C694.378 5.23828 695.54 6.56966 695.572 9.23242V16H692.75V9.31055C692.75 8.70508 692.62 8.25911 692.359 7.97266C692.099 7.67969 691.666 7.5332 691.061 7.5332C690.234 7.5332 689.635 7.85221 689.264 8.49023V16H686.441V1H689.264V6.58594ZM700.68 16H697.848V5.43359H700.68V16ZM697.682 2.69922C697.682 2.27604 697.822 1.92773 698.102 1.6543C698.388 1.38086 698.775 1.24414 699.264 1.24414C699.745 1.24414 700.13 1.38086 700.416 1.6543C700.702 1.92773 700.846 2.27604 700.846 2.69922C700.846 3.12891 700.699 3.48047 700.406 3.75391C700.12 4.02734 699.739 4.16406 699.264 4.16406C698.788 4.16406 698.404 4.02734 698.111 3.75391C697.825 3.48047 697.682 3.12891 697.682 2.69922ZM705.611 5.43359L705.699 6.6543C706.454 5.71029 707.467 5.23828 708.736 5.23828C709.856 5.23828 710.689 5.56706 711.236 6.22461C711.783 6.88216 712.063 7.86523 712.076 9.17383V16H709.254V9.24219C709.254 8.64323 709.124 8.21029 708.863 7.94336C708.603 7.66992 708.17 7.5332 707.564 7.5332C706.77 7.5332 706.174 7.87174 705.777 8.54883V16H702.955V5.43359H705.611ZM726.744 1.63477V3.95898H726.471C725.195 3.97852 724.166 4.31055 723.385 4.95508C722.61 5.59961 722.145 6.49479 721.988 7.64062C722.743 6.8724 723.697 6.48828 724.85 6.48828C726.087 6.48828 727.07 6.93099 727.799 7.81641C728.528 8.70182 728.893 9.86719 728.893 11.3125C728.893 12.237 728.691 13.0736 728.287 13.8223C727.89 14.571 727.324 15.1536 726.588 15.5703C725.859 15.987 725.032 16.1953 724.107 16.1953C722.61 16.1953 721.399 15.6745 720.475 14.6328C719.557 13.5911 719.098 12.2012 719.098 10.4629V9.44727C719.098 7.9043 719.387 6.54362 719.967 5.36523C720.553 4.18034 721.389 3.26562 722.477 2.62109C723.57 1.97005 724.837 1.64128 726.275 1.63477H726.744ZM723.99 8.75391C723.535 8.75391 723.121 8.87435 722.75 9.11523C722.379 9.34961 722.105 9.66211 721.93 10.0527V10.9121C721.93 11.8561 722.115 12.5951 722.486 13.1289C722.857 13.6562 723.378 13.9199 724.049 13.9199C724.654 13.9199 725.143 13.6823 725.514 13.207C725.891 12.7253 726.08 12.1035 726.08 11.3418C726.08 10.5671 725.891 9.94206 725.514 9.4668C725.136 8.99154 724.628 8.75391 723.99 8.75391ZM738.316 5.43359L738.404 6.61523C739.153 5.69727 740.165 5.23828 741.441 5.23828C742.802 5.23828 743.736 5.77539 744.244 6.84961C744.986 5.77539 746.044 5.23828 747.418 5.23828C748.564 5.23828 749.417 5.57357 749.977 6.24414C750.536 6.9082 750.816 7.91081 750.816 9.25195V16H747.984V9.26172C747.984 8.66276 747.867 8.22656 747.633 7.95312C747.398 7.67318 746.985 7.5332 746.393 7.5332C745.546 7.5332 744.96 7.93685 744.635 8.74414L744.645 16H741.822V9.27148C741.822 8.65951 741.702 8.2168 741.461 7.94336C741.22 7.66992 740.81 7.5332 740.23 7.5332C739.43 7.5332 738.85 7.86523 738.492 8.5293V16H735.67V5.43359H738.316ZM752.555 10.6191C752.555 9.57096 752.757 8.63672 753.16 7.81641C753.564 6.99609 754.143 6.36133 754.898 5.91211C755.66 5.46289 756.542 5.23828 757.545 5.23828C758.971 5.23828 760.133 5.67448 761.031 6.54688C761.936 7.41927 762.441 8.60417 762.545 10.1016L762.564 10.8242C762.564 12.4453 762.112 13.7474 761.207 14.7305C760.302 15.707 759.088 16.1953 757.564 16.1953C756.041 16.1953 754.824 15.707 753.912 14.7305C753.007 13.7539 752.555 12.4258 752.555 10.7461V10.6191ZM755.377 10.8242C755.377 11.8268 755.566 12.5951 755.943 13.1289C756.321 13.6562 756.861 13.9199 757.564 13.9199C758.248 13.9199 758.782 13.6595 759.166 13.1387C759.55 12.6113 759.742 11.7715 759.742 10.6191C759.742 9.63607 759.55 8.87435 759.166 8.33398C758.782 7.79362 758.242 7.52344 757.545 7.52344C756.855 7.52344 756.321 7.79362 755.943 8.33398C755.566 8.86784 755.377 9.69792 755.377 10.8242ZM766.9 5.43359L766.988 6.6543C767.743 5.71029 768.756 5.23828 770.025 5.23828C771.145 5.23828 771.979 5.56706 772.525 6.22461C773.072 6.88216 773.352 7.86523 773.365 9.17383V16H770.543V9.24219C770.543 8.64323 770.413 8.21029 770.152 7.94336C769.892 7.66992 769.459 7.5332 768.854 7.5332C768.059 7.5332 767.464 7.87174 767.066 8.54883V16H764.244V5.43359H766.9ZM778.893 2.83594V5.43359H780.699V7.50391H778.893V12.7773C778.893 13.168 778.967 13.4479 779.117 13.6172C779.267 13.7865 779.553 13.8711 779.977 13.8711C780.289 13.8711 780.566 13.8483 780.807 13.8027V15.9414C780.253 16.1107 779.684 16.1953 779.098 16.1953C777.118 16.1953 776.109 15.196 776.07 13.1973V7.50391H774.527V5.43359H776.07V2.83594H778.893ZM785.025 6.58594C785.774 5.6875 786.715 5.23828 787.848 5.23828C790.139 5.23828 791.301 6.56966 791.334 9.23242V16H788.512V9.31055C788.512 8.70508 788.382 8.25911 788.121 7.97266C787.861 7.67969 787.428 7.5332 786.822 7.5332C785.995 7.5332 785.396 7.85221 785.025 8.49023V16H782.203V1H785.025V6.58594ZM799.186 13.0801C799.186 12.735 799.013 12.4648 798.668 12.2695C798.329 12.0677 797.783 11.8887 797.027 11.7324C794.514 11.2051 793.258 10.1374 793.258 8.5293C793.258 7.5918 793.645 6.81055 794.42 6.18555C795.201 5.55404 796.22 5.23828 797.477 5.23828C798.818 5.23828 799.889 5.55404 800.689 6.18555C801.497 6.81706 801.9 7.63737 801.9 8.64648H799.078C799.078 8.24284 798.948 7.91081 798.688 7.65039C798.427 7.38346 798.02 7.25 797.467 7.25C796.992 7.25 796.624 7.35742 796.363 7.57227C796.103 7.78711 795.973 8.06055 795.973 8.39258C795.973 8.70508 796.119 8.95898 796.412 9.1543C796.712 9.3431 797.213 9.50911 797.916 9.65234C798.619 9.78906 799.212 9.94531 799.693 10.1211C801.184 10.668 801.93 11.6152 801.93 12.9629C801.93 13.9264 801.516 14.7077 800.689 15.3066C799.863 15.8991 798.795 16.1953 797.486 16.1953C796.601 16.1953 795.813 16.0391 795.123 15.7266C794.439 15.4076 793.902 14.9746 793.512 14.4277C793.121 13.8743 792.926 13.2786 792.926 12.6406H795.602C795.628 13.1419 795.813 13.526 796.158 13.793C796.503 14.0599 796.965 14.1934 797.545 14.1934C798.085 14.1934 798.492 14.0924 798.766 13.8906C799.046 13.6823 799.186 13.4121 799.186 13.0801ZM803.902 14.6133C803.902 14.1641 804.052 13.7995 804.352 13.5195C804.658 13.2396 805.038 13.0996 805.494 13.0996C805.956 13.0996 806.337 13.2396 806.637 13.5195C806.943 13.7995 807.096 14.1641 807.096 14.6133C807.096 15.056 806.946 15.4173 806.646 15.6973C806.347 15.9707 805.963 16.1074 805.494 16.1074C805.032 16.1074 804.651 15.9707 804.352 15.6973C804.052 15.4173 803.902 15.056 803.902 14.6133Z" fill="#0B1F5C"/>
<path d="M283.92 37.5635C282.794 37.2399 281.974 36.8434 281.459 36.374C280.949 35.9001 280.693 35.3167 280.693 34.624C280.693 33.8402 281.006 33.193 281.63 32.6826C282.259 32.1676 283.075 31.9102 284.077 31.9102C284.761 31.9102 285.369 32.0423 285.902 32.3066C286.44 32.571 286.855 32.9355 287.146 33.4004C287.443 33.8652 287.591 34.3734 287.591 34.9248H286.271C286.271 34.3232 286.08 33.8516 285.697 33.5098C285.314 33.1634 284.774 32.9902 284.077 32.9902C283.43 32.9902 282.924 33.1338 282.56 33.4209C282.2 33.7035 282.02 34.0977 282.02 34.6035C282.02 35.0091 282.19 35.3532 282.532 35.6357C282.879 35.9137 283.464 36.1689 284.289 36.4014C285.118 36.6338 285.766 36.8913 286.23 37.1738C286.7 37.4518 287.046 37.7777 287.27 38.1514C287.497 38.5251 287.611 38.9648 287.611 39.4707C287.611 40.2773 287.297 40.9245 286.668 41.4121C286.039 41.8952 285.198 42.1367 284.146 42.1367C283.462 42.1367 282.824 42.0068 282.231 41.7471C281.639 41.4827 281.181 41.1227 280.857 40.667C280.538 40.2113 280.379 39.694 280.379 39.1152H281.698C281.698 39.7168 281.919 40.193 282.361 40.5439C282.808 40.8903 283.403 41.0635 284.146 41.0635C284.838 41.0635 285.369 40.9222 285.738 40.6396C286.107 40.3571 286.292 39.972 286.292 39.4844C286.292 38.9967 286.121 38.6208 285.779 38.3564C285.438 38.0876 284.818 37.8232 283.92 37.5635ZM288.767 38.2334C288.767 37.5088 288.908 36.8571 289.19 36.2783C289.478 35.6995 289.874 35.2529 290.38 34.9385C290.89 34.624 291.471 34.4668 292.123 34.4668C293.13 34.4668 293.944 34.8154 294.563 35.5127C295.188 36.21 295.5 37.1374 295.5 38.2949V38.3838C295.5 39.1038 295.361 39.751 295.083 40.3252C294.81 40.8949 294.415 41.3392 293.9 41.6582C293.39 41.9772 292.802 42.1367 292.137 42.1367C291.134 42.1367 290.321 41.7881 289.696 41.0908C289.076 40.3936 288.767 39.4707 288.767 38.3223V38.2334ZM290.038 38.3838C290.038 39.2041 290.227 39.8626 290.605 40.3594C290.988 40.8561 291.499 41.1045 292.137 41.1045C292.779 41.1045 293.29 40.8538 293.668 40.3525C294.046 39.8467 294.235 39.1403 294.235 38.2334C294.235 37.4222 294.042 36.766 293.654 36.2646C293.271 35.7588 292.761 35.5059 292.123 35.5059C291.499 35.5059 290.995 35.7542 290.612 36.251C290.229 36.7477 290.038 37.4587 290.038 38.3838ZM301.652 41.2686C301.16 41.8473 300.438 42.1367 299.485 42.1367C298.697 42.1367 298.095 41.9089 297.681 41.4531C297.271 40.9928 297.063 40.3138 297.059 39.416V34.6035H298.323V39.3818C298.323 40.5029 298.779 41.0635 299.69 41.0635C300.657 41.0635 301.299 40.7035 301.618 39.9834V34.6035H302.883V42H301.68L301.652 41.2686ZM308.386 35.7383C308.194 35.7064 307.987 35.6904 307.764 35.6904C306.934 35.6904 306.371 36.0436 306.075 36.75V42H304.811V34.6035H306.041L306.062 35.458C306.476 34.7972 307.064 34.4668 307.825 34.4668C308.071 34.4668 308.258 34.4987 308.386 34.5625V35.7383ZM312.385 41.1045C312.836 41.1045 313.23 40.9678 313.567 40.6943C313.905 40.4209 314.091 40.0791 314.128 39.6689H315.324C315.301 40.0928 315.156 40.4961 314.887 40.8789C314.618 41.2617 314.258 41.5671 313.807 41.7949C313.36 42.0228 312.886 42.1367 312.385 42.1367C311.378 42.1367 310.576 41.8018 309.979 41.1318C309.386 40.4574 309.09 39.5368 309.09 38.3701V38.1582C309.09 37.4382 309.222 36.7979 309.486 36.2373C309.751 35.6768 310.129 35.2415 310.621 34.9316C311.118 34.6217 311.703 34.4668 312.378 34.4668C313.207 34.4668 313.896 34.7152 314.442 35.2119C314.994 35.7087 315.288 36.3535 315.324 37.1465H314.128C314.091 36.668 313.909 36.276 313.581 35.9707C313.257 35.6608 312.856 35.5059 312.378 35.5059C311.735 35.5059 311.236 35.7383 310.881 36.2031C310.53 36.6634 310.354 37.3311 310.354 38.2061V38.4453C310.354 39.2975 310.53 39.9538 310.881 40.4141C311.232 40.8743 311.733 41.1045 312.385 41.1045ZM319.815 42.1367C318.813 42.1367 317.997 41.8086 317.368 41.1523C316.739 40.4915 316.425 39.6097 316.425 38.5068V38.2744C316.425 37.5407 316.564 36.8867 316.842 36.3125C317.124 35.7337 317.516 35.2826 318.018 34.959C318.523 34.6309 319.07 34.4668 319.658 34.4668C320.62 34.4668 321.367 34.7835 321.9 35.417C322.434 36.0505 322.7 36.9574 322.7 38.1377V38.6641H317.689C317.708 39.3932 317.92 39.9834 318.325 40.4346C318.735 40.8812 319.255 41.1045 319.884 41.1045C320.33 41.1045 320.709 41.0133 321.019 40.8311C321.328 40.6488 321.6 40.4072 321.832 40.1064L322.604 40.708C321.985 41.6605 321.055 42.1367 319.815 42.1367ZM319.658 35.5059C319.148 35.5059 318.719 35.6927 318.373 36.0664C318.027 36.4355 317.812 36.9551 317.73 37.625H321.436V37.5293C321.399 36.8867 321.226 36.39 320.916 36.0391C320.606 35.6836 320.187 35.5059 319.658 35.5059ZM324.129 41.3369C324.129 41.1182 324.193 40.9359 324.32 40.79C324.452 40.6442 324.648 40.5713 324.908 40.5713C325.168 40.5713 325.364 40.6442 325.496 40.79C325.633 40.9359 325.701 41.1182 325.701 41.3369C325.701 41.5465 325.633 41.722 325.496 41.8633C325.364 42.0046 325.168 42.0752 324.908 42.0752C324.648 42.0752 324.452 42.0046 324.32 41.8633C324.193 41.722 324.129 41.5465 324.129 41.3369ZM324.136 35.3008C324.136 35.082 324.2 34.8997 324.327 34.7539C324.459 34.6081 324.655 34.5352 324.915 34.5352C325.175 34.5352 325.371 34.6081 325.503 34.7539C325.64 34.8997 325.708 35.082 325.708 35.3008C325.708 35.5104 325.64 35.6859 325.503 35.8271C325.371 35.9684 325.175 36.0391 324.915 36.0391C324.655 36.0391 324.459 35.9684 324.327 35.8271C324.2 35.6859 324.136 35.5104 324.136 35.3008ZM338.881 42H337.562L332.551 34.3301V42H331.231V32.0469H332.551L337.575 39.751V32.0469H338.881V42ZM345.58 42C345.507 41.8542 345.448 41.5944 345.402 41.2207C344.814 41.8314 344.113 42.1367 343.297 42.1367C342.568 42.1367 341.968 41.9316 341.499 41.5215C341.034 41.1068 340.802 40.5827 340.802 39.9492C340.802 39.179 341.093 38.582 341.677 38.1582C342.265 37.7298 343.09 37.5156 344.151 37.5156H345.382V36.9346C345.382 36.4925 345.25 36.1416 344.985 35.8818C344.721 35.6175 344.331 35.4854 343.816 35.4854C343.365 35.4854 342.987 35.5993 342.682 35.8271C342.376 36.055 342.224 36.3307 342.224 36.6543H340.952C340.952 36.2852 341.082 35.9297 341.342 35.5879C341.606 35.2415 341.962 34.9681 342.408 34.7676C342.859 34.5671 343.354 34.4668 343.892 34.4668C344.744 34.4668 345.411 34.681 345.895 35.1094C346.378 35.5332 346.628 36.1188 346.646 36.8662V40.2705C346.646 40.9495 346.733 41.4896 346.906 41.8906V42H345.58ZM343.481 41.0361C343.878 41.0361 344.254 40.9336 344.609 40.7285C344.965 40.5234 345.222 40.2568 345.382 39.9287V38.4111H344.391C342.841 38.4111 342.066 38.8646 342.066 39.7715C342.066 40.168 342.199 40.4779 342.463 40.7012C342.727 40.9245 343.067 41.0361 343.481 41.0361ZM350.345 32.8125V34.6035H351.726V35.5811H350.345V40.168C350.345 40.4642 350.406 40.6875 350.529 40.8379C350.652 40.9837 350.862 41.0566 351.158 41.0566C351.304 41.0566 351.505 41.0293 351.76 40.9746V42C351.427 42.0911 351.104 42.1367 350.789 42.1367C350.224 42.1367 349.798 41.9658 349.511 41.624C349.224 41.2822 349.08 40.7969 349.08 40.168V35.5811H347.733V34.6035H349.08V32.8125H350.345ZM354.583 42H353.318V34.6035H354.583V42ZM353.216 32.6416C353.216 32.4365 353.277 32.2633 353.4 32.1221C353.528 31.9808 353.715 31.9102 353.961 31.9102C354.207 31.9102 354.394 31.9808 354.521 32.1221C354.649 32.2633 354.713 32.4365 354.713 32.6416C354.713 32.8467 354.649 33.0176 354.521 33.1543C354.394 33.291 354.207 33.3594 353.961 33.3594C353.715 33.3594 353.528 33.291 353.4 33.1543C353.277 33.0176 353.216 32.8467 353.216 32.6416ZM356.278 38.2334C356.278 37.5088 356.42 36.8571 356.702 36.2783C356.989 35.6995 357.386 35.2529 357.892 34.9385C358.402 34.624 358.983 34.4668 359.635 34.4668C360.642 34.4668 361.455 34.8154 362.075 35.5127C362.7 36.21 363.012 37.1374 363.012 38.2949V38.3838C363.012 39.1038 362.873 39.751 362.595 40.3252C362.321 40.8949 361.927 41.3392 361.412 41.6582C360.902 41.9772 360.314 42.1367 359.648 42.1367C358.646 42.1367 357.832 41.7881 357.208 41.0908C356.588 40.3936 356.278 39.4707 356.278 38.3223V38.2334ZM357.55 38.3838C357.55 39.2041 357.739 39.8626 358.117 40.3594C358.5 40.8561 359.01 41.1045 359.648 41.1045C360.291 41.1045 360.801 40.8538 361.18 40.3525C361.558 39.8467 361.747 39.1403 361.747 38.2334C361.747 37.4222 361.553 36.766 361.166 36.2646C360.783 35.7588 360.273 35.5059 359.635 35.5059C359.01 35.5059 358.507 35.7542 358.124 36.251C357.741 36.7477 357.55 37.4587 357.55 38.3838ZM365.794 34.6035L365.835 35.5332C366.4 34.8223 367.138 34.4668 368.05 34.4668C369.613 34.4668 370.401 35.3486 370.415 37.1123V42H369.15V37.1055C369.146 36.5723 369.023 36.1781 368.781 35.9229C368.544 35.6676 368.173 35.54 367.667 35.54C367.257 35.54 366.897 35.6494 366.587 35.8682C366.277 36.0869 366.035 36.374 365.862 36.7295V42H364.598V34.6035H365.794ZM376.889 42C376.816 41.8542 376.757 41.5944 376.711 41.2207C376.123 41.8314 375.421 42.1367 374.605 42.1367C373.876 42.1367 373.277 41.9316 372.808 41.5215C372.343 41.1068 372.11 40.5827 372.11 39.9492C372.11 39.179 372.402 38.582 372.985 38.1582C373.573 37.7298 374.398 37.5156 375.46 37.5156H376.69V36.9346C376.69 36.4925 376.558 36.1416 376.294 35.8818C376.03 35.6175 375.64 35.4854 375.125 35.4854C374.674 35.4854 374.296 35.5993 373.99 35.8271C373.685 36.055 373.532 36.3307 373.532 36.6543H372.261C372.261 36.2852 372.391 35.9297 372.65 35.5879C372.915 35.2415 373.27 34.9681 373.717 34.7676C374.168 34.5671 374.662 34.4668 375.2 34.4668C376.052 34.4668 376.72 34.681 377.203 35.1094C377.686 35.5332 377.937 36.1188 377.955 36.8662V40.2705C377.955 40.9495 378.042 41.4896 378.215 41.8906V42H376.889ZM374.79 41.0361C375.187 41.0361 375.562 40.9336 375.918 40.7285C376.273 40.5234 376.531 40.2568 376.69 39.9287V38.4111H375.699C374.15 38.4111 373.375 38.8646 373.375 39.7715C373.375 40.168 373.507 40.4779 373.771 40.7012C374.036 40.9245 374.375 41.0361 374.79 41.0361ZM381.312 42H380.047V31.5H381.312V42ZM394.334 38.8418C394.211 39.8945 393.821 40.708 393.165 41.2822C392.513 41.8519 391.645 42.1367 390.561 42.1367C389.385 42.1367 388.441 41.7152 387.73 40.8721C387.024 40.029 386.671 38.901 386.671 37.4883V36.5312C386.671 35.6061 386.835 34.7926 387.163 34.0908C387.496 33.389 387.965 32.8512 388.571 32.4775C389.177 32.0993 389.879 31.9102 390.677 31.9102C391.734 31.9102 392.582 32.2064 393.22 32.7988C393.858 33.3867 394.229 34.2025 394.334 35.2461H393.015C392.901 34.4531 392.652 33.8789 392.27 33.5234C391.891 33.168 391.36 32.9902 390.677 32.9902C389.838 32.9902 389.18 33.3001 388.701 33.9199C388.227 34.5397 387.99 35.4215 387.99 36.5654V37.5293C387.99 38.6094 388.216 39.4684 388.667 40.1064C389.118 40.7445 389.749 41.0635 390.561 41.0635C391.29 41.0635 391.848 40.8994 392.235 40.5713C392.627 40.2386 392.887 39.6621 393.015 38.8418H394.334ZM398.354 40.1475L400.076 34.6035H401.43L398.456 43.1416C397.996 44.3721 397.264 44.9873 396.262 44.9873L396.022 44.9668L395.551 44.8779V43.8525L395.893 43.8799C396.321 43.8799 396.654 43.7933 396.891 43.6201C397.132 43.4469 397.33 43.1302 397.485 42.6699L397.766 41.918L395.127 34.6035H396.508L398.354 40.1475ZM408.826 38.3838C408.826 39.514 408.566 40.4232 408.047 41.1113C407.527 41.7949 406.83 42.1367 405.955 42.1367C405.021 42.1367 404.299 41.8063 403.788 41.1455L403.727 42H402.564V31.5H403.829V35.417C404.34 34.7835 405.044 34.4668 405.941 34.4668C406.839 34.4668 407.543 34.8063 408.054 35.4854C408.569 36.1644 408.826 37.0941 408.826 38.2744V38.3838ZM407.562 38.2402C407.562 37.3789 407.395 36.7135 407.062 36.2441C406.73 35.7747 406.251 35.54 405.627 35.54C404.793 35.54 404.194 35.9274 403.829 36.7021V39.9014C404.216 40.6761 404.82 41.0635 405.641 41.0635C406.247 41.0635 406.718 40.8288 407.056 40.3594C407.393 39.89 407.562 39.1836 407.562 38.2402ZM413.495 42.1367C412.493 42.1367 411.677 41.8086 411.048 41.1523C410.419 40.4915 410.104 39.6097 410.104 38.5068V38.2744C410.104 37.5407 410.243 36.8867 410.521 36.3125C410.804 35.7337 411.196 35.2826 411.697 34.959C412.203 34.6309 412.75 34.4668 413.338 34.4668C414.299 34.4668 415.047 34.7835 415.58 35.417C416.113 36.0505 416.38 36.9574 416.38 38.1377V38.6641H411.369C411.387 39.3932 411.599 39.9834 412.005 40.4346C412.415 40.8812 412.935 41.1045 413.563 41.1045C414.01 41.1045 414.388 41.0133 414.698 40.8311C415.008 40.6488 415.279 40.4072 415.512 40.1064L416.284 40.708C415.664 41.6605 414.735 42.1367 413.495 42.1367ZM413.338 35.5059C412.827 35.5059 412.399 35.6927 412.053 36.0664C411.706 36.4355 411.492 36.9551 411.41 37.625H415.115V37.5293C415.079 36.8867 414.906 36.39 414.596 36.0391C414.286 35.6836 413.867 35.5059 413.338 35.5059ZM421.425 35.7383C421.233 35.7064 421.026 35.6904 420.803 35.6904C419.973 35.6904 419.41 36.0436 419.114 36.75V42H417.85V34.6035H419.08L419.101 35.458C419.515 34.7972 420.103 34.4668 420.864 34.4668C421.11 34.4668 421.297 34.4987 421.425 34.5625V35.7383ZM429.197 37.5635C428.072 37.2399 427.251 36.8434 426.736 36.374C426.226 35.9001 425.971 35.3167 425.971 34.624C425.971 33.8402 426.283 33.193 426.907 32.6826C427.536 32.1676 428.352 31.9102 429.354 31.9102C430.038 31.9102 430.646 32.0423 431.18 32.3066C431.717 32.571 432.132 32.9355 432.424 33.4004C432.72 33.8652 432.868 34.3734 432.868 34.9248H431.549C431.549 34.3232 431.357 33.8516 430.975 33.5098C430.592 33.1634 430.052 32.9902 429.354 32.9902C428.707 32.9902 428.201 33.1338 427.837 33.4209C427.477 33.7035 427.297 34.0977 427.297 34.6035C427.297 35.0091 427.468 35.3532 427.81 35.6357C428.156 35.9137 428.742 36.1689 429.566 36.4014C430.396 36.6338 431.043 36.8913 431.508 37.1738C431.977 37.4518 432.324 37.7777 432.547 38.1514C432.775 38.5251 432.889 38.9648 432.889 39.4707C432.889 40.2773 432.574 40.9245 431.945 41.4121C431.316 41.8952 430.476 42.1367 429.423 42.1367C428.739 42.1367 428.101 42.0068 427.509 41.7471C426.916 41.4827 426.458 41.1227 426.135 40.667C425.816 40.2113 425.656 39.694 425.656 39.1152H426.976C426.976 39.7168 427.197 40.193 427.639 40.5439C428.085 40.8903 428.68 41.0635 429.423 41.0635C430.116 41.0635 430.646 40.9222 431.016 40.6396C431.385 40.3571 431.569 39.972 431.569 39.4844C431.569 38.9967 431.398 38.6208 431.057 38.3564C430.715 38.0876 430.095 37.8232 429.197 37.5635ZM437.448 42.1367C436.446 42.1367 435.63 41.8086 435.001 41.1523C434.372 40.4915 434.058 39.6097 434.058 38.5068V38.2744C434.058 37.5407 434.197 36.8867 434.475 36.3125C434.757 35.7337 435.149 35.2826 435.65 34.959C436.156 34.6309 436.703 34.4668 437.291 34.4668C438.253 34.4668 439 34.7835 439.533 35.417C440.066 36.0505 440.333 36.9574 440.333 38.1377V38.6641H435.322C435.34 39.3932 435.552 39.9834 435.958 40.4346C436.368 40.8812 436.888 41.1045 437.517 41.1045C437.963 41.1045 438.341 41.0133 438.651 40.8311C438.961 40.6488 439.232 40.4072 439.465 40.1064L440.237 40.708C439.618 41.6605 438.688 42.1367 437.448 42.1367ZM437.291 35.5059C436.781 35.5059 436.352 35.6927 436.006 36.0664C435.66 36.4355 435.445 36.9551 435.363 37.625H439.068V37.5293C439.032 36.8867 438.859 36.39 438.549 36.0391C438.239 35.6836 437.82 35.5059 437.291 35.5059ZM444.77 41.1045C445.221 41.1045 445.615 40.9678 445.952 40.6943C446.289 40.4209 446.476 40.0791 446.513 39.6689H447.709C447.686 40.0928 447.54 40.4961 447.271 40.8789C447.003 41.2617 446.643 41.5671 446.191 41.7949C445.745 42.0228 445.271 42.1367 444.77 42.1367C443.762 42.1367 442.96 41.8018 442.363 41.1318C441.771 40.4574 441.475 39.5368 441.475 38.3701V38.1582C441.475 37.4382 441.607 36.7979 441.871 36.2373C442.135 35.6768 442.514 35.2415 443.006 34.9316C443.503 34.6217 444.088 34.4668 444.763 34.4668C445.592 34.4668 446.28 34.7152 446.827 35.2119C447.379 35.7087 447.673 36.3535 447.709 37.1465H446.513C446.476 36.668 446.294 36.276 445.966 35.9707C445.642 35.6608 445.241 35.5059 444.763 35.5059C444.12 35.5059 443.621 35.7383 443.266 36.2031C442.915 36.6634 442.739 37.3311 442.739 38.2061V38.4453C442.739 39.2975 442.915 39.9538 443.266 40.4141C443.617 40.8743 444.118 41.1045 444.77 41.1045ZM453.697 41.2686C453.205 41.8473 452.483 42.1367 451.53 42.1367C450.742 42.1367 450.14 41.9089 449.726 41.4531C449.315 40.9928 449.108 40.3138 449.104 39.416V34.6035H450.368V39.3818C450.368 40.5029 450.824 41.0635 451.735 41.0635C452.701 41.0635 453.344 40.7035 453.663 39.9834V34.6035H454.928V42H453.725L453.697 41.2686ZM460.431 35.7383C460.239 35.7064 460.032 35.6904 459.809 35.6904C458.979 35.6904 458.416 36.0436 458.12 36.75V42H456.855V34.6035H458.086L458.106 35.458C458.521 34.7972 459.109 34.4668 459.87 34.4668C460.116 34.4668 460.303 34.4987 460.431 34.5625V35.7383ZM462.974 42H461.709V34.6035H462.974V42ZM461.606 32.6416C461.606 32.4365 461.668 32.2633 461.791 32.1221C461.919 31.9808 462.105 31.9102 462.352 31.9102C462.598 31.9102 462.785 31.9808 462.912 32.1221C463.04 32.2633 463.104 32.4365 463.104 32.6416C463.104 32.8467 463.04 33.0176 462.912 33.1543C462.785 33.291 462.598 33.3594 462.352 33.3594C462.105 33.3594 461.919 33.291 461.791 33.1543C461.668 33.0176 461.606 32.8467 461.606 32.6416ZM466.72 32.8125V34.6035H468.101V35.5811H466.72V40.168C466.72 40.4642 466.781 40.6875 466.904 40.8379C467.027 40.9837 467.237 41.0566 467.533 41.0566C467.679 41.0566 467.88 41.0293 468.135 40.9746V42C467.802 42.0911 467.479 42.1367 467.164 42.1367C466.599 42.1367 466.173 41.9658 465.886 41.624C465.599 41.2822 465.455 40.7969 465.455 40.168V35.5811H464.108V34.6035H465.455V32.8125H466.72ZM472.004 40.1475L473.727 34.6035H475.08L472.106 43.1416C471.646 44.3721 470.915 44.9873 469.912 44.9873L469.673 44.9668L469.201 44.8779V43.8525L469.543 43.8799C469.971 43.8799 470.304 43.7933 470.541 43.6201C470.783 43.4469 470.981 43.1302 471.136 42.6699L471.416 41.918L468.777 34.6035H470.158L472.004 40.1475ZM485.382 39.4023H481.212L480.275 42H478.922L482.723 32.0469H483.871L487.679 42H486.332L485.382 39.4023ZM481.608 38.3223H484.992L483.297 33.667L481.608 38.3223ZM490.194 42H488.93V31.5H490.194V42ZM493.599 42H492.334V31.5H493.599V42ZM497.003 42H495.738V34.6035H497.003V42ZM495.636 32.6416C495.636 32.4365 495.697 32.2633 495.82 32.1221C495.948 31.9808 496.135 31.9102 496.381 31.9102C496.627 31.9102 496.814 31.9808 496.941 32.1221C497.069 32.2633 497.133 32.4365 497.133 32.6416C497.133 32.8467 497.069 33.0176 496.941 33.1543C496.814 33.291 496.627 33.3594 496.381 33.3594C496.135 33.3594 495.948 33.291 495.82 33.1543C495.697 33.0176 495.636 32.8467 495.636 32.6416ZM503.6 42C503.527 41.8542 503.467 41.5944 503.422 41.2207C502.834 41.8314 502.132 42.1367 501.316 42.1367C500.587 42.1367 499.988 41.9316 499.519 41.5215C499.054 41.1068 498.821 40.5827 498.821 39.9492C498.821 39.179 499.113 38.582 499.696 38.1582C500.284 37.7298 501.109 37.5156 502.171 37.5156H503.401V36.9346C503.401 36.4925 503.269 36.1416 503.005 35.8818C502.741 35.6175 502.351 35.4854 501.836 35.4854C501.385 35.4854 501.007 35.5993 500.701 35.8271C500.396 36.055 500.243 36.3307 500.243 36.6543H498.972C498.972 36.2852 499.102 35.9297 499.361 35.5879C499.626 35.2415 499.981 34.9681 500.428 34.7676C500.879 34.5671 501.373 34.4668 501.911 34.4668C502.763 34.4668 503.431 34.681 503.914 35.1094C504.397 35.5332 504.648 36.1188 504.666 36.8662V40.2705C504.666 40.9495 504.753 41.4896 504.926 41.8906V42H503.6ZM501.501 41.0361C501.897 41.0361 502.273 40.9336 502.629 40.7285C502.984 40.5234 503.242 40.2568 503.401 39.9287V38.4111H502.41C500.861 38.4111 500.086 38.8646 500.086 39.7715C500.086 40.168 500.218 40.4779 500.482 40.7012C500.747 40.9245 501.086 41.0361 501.501 41.0361ZM507.845 34.6035L507.886 35.5332C508.451 34.8223 509.189 34.4668 510.101 34.4668C511.664 34.4668 512.452 35.3486 512.466 37.1123V42H511.201V37.1055C511.197 36.5723 511.074 36.1781 510.832 35.9229C510.595 35.6676 510.224 35.54 509.718 35.54C509.308 35.54 508.948 35.6494 508.638 35.8682C508.328 36.0869 508.086 36.374 507.913 36.7295V42H506.648V34.6035H507.845ZM517.34 41.1045C517.791 41.1045 518.185 40.9678 518.522 40.6943C518.86 40.4209 519.047 40.0791 519.083 39.6689H520.279C520.257 40.0928 520.111 40.4961 519.842 40.8789C519.573 41.2617 519.213 41.5671 518.762 41.7949C518.315 42.0228 517.841 42.1367 517.34 42.1367C516.333 42.1367 515.531 41.8018 514.934 41.1318C514.341 40.4574 514.045 39.5368 514.045 38.3701V38.1582C514.045 37.4382 514.177 36.7979 514.441 36.2373C514.706 35.6768 515.084 35.2415 515.576 34.9316C516.073 34.6217 516.659 34.4668 517.333 34.4668C518.162 34.4668 518.851 34.7152 519.397 35.2119C519.949 35.7087 520.243 36.3535 520.279 37.1465H519.083C519.047 36.668 518.864 36.276 518.536 35.9707C518.213 35.6608 517.812 35.5059 517.333 35.5059C516.69 35.5059 516.191 35.7383 515.836 36.2031C515.485 36.6634 515.31 37.3311 515.31 38.2061V38.4453C515.31 39.2975 515.485 39.9538 515.836 40.4141C516.187 40.8743 516.688 41.1045 517.34 41.1045ZM524.771 42.1367C523.768 42.1367 522.952 41.8086 522.323 41.1523C521.694 40.4915 521.38 39.6097 521.38 38.5068V38.2744C521.38 37.5407 521.519 36.8867 521.797 36.3125C522.079 35.7337 522.471 35.2826 522.973 34.959C523.479 34.6309 524.025 34.4668 524.613 34.4668C525.575 34.4668 526.322 34.7835 526.855 35.417C527.389 36.0505 527.655 36.9574 527.655 38.1377V38.6641H522.645C522.663 39.3932 522.875 39.9834 523.28 40.4346C523.69 40.8812 524.21 41.1045 524.839 41.1045C525.285 41.1045 525.664 41.0133 525.974 40.8311C526.284 40.6488 526.555 40.4072 526.787 40.1064L527.56 40.708C526.94 41.6605 526.01 42.1367 524.771 42.1367ZM524.613 35.5059C524.103 35.5059 523.674 35.6927 523.328 36.0664C522.982 36.4355 522.768 36.9551 522.686 37.625H526.391V37.5293C526.354 36.8867 526.181 36.39 525.871 36.0391C525.561 35.6836 525.142 35.5059 524.613 35.5059Z" fill="#999999"/>
</svg>

