<svg width="1381" height="309" viewBox="0 0 1381 309" fill="none" xmlns="http://www.w3.org/2000/svg">
<path d="M377.227 57.3909L378.455 59.1404L379.507 60.9775L380.998 62.5522L382.05 64.3893L384.154 64.8266L385.294 66.6637L387.398 67.1011L389.064 67.9759L390.993 68.6758L392.922 69.2006L395.026 69.0257L397.043 69.3756H399.322L401.427 68.5008L403.706 68.4133L405.81 67.9759L407.564 66.8387L409.668 66.5762L411.597 65.9639L413.351 64.9141L415.28 64.2143L417.033 63.077L419.05 62.6396L420.628 63.077L421.855 64.3893L422.995 65.7889L424.749 66.5762L425.889 67.8884L427.291 68.8507L428.782 69.7255L430.36 70.4254L432.026 70.9502L433.78 71.2127L435.533 71.1252L437.287 71.3002L439.128 72L440.882 71.5626L442.547 70.5128L444.389 70.3379L446.23 70.0754L447.457 68.5883L449.211 67.9759L450.877 67.1011L452.104 65.8764L453.244 64.5642L454.296 63.1645L455.962 62.3772L456.488 60.6276L456.927 58.9655L457.803 57.4783L458.68 55.9912L459.206 54.2416V52.492L458.68 50.6549L459.118 48.9053L460.083 47.5931L461.749 46.6308L463.678 46.4559L465.344 45.6685L467.273 45.4936L468.763 44.0064L470.867 44.2689L472.533 43.3066L474.111 41.9944L475.953 40.9446L477.706 39.7199L479.986 39.37L481.389 37.7953L482.265 36.0457L483.318 34.3836L485.071 33.2464L485.773 31.4093L486.211 29.5722L486.123 27.5602L486.737 25.7231V23.886L487 21.7865L486.123 19.862L486.036 17.7624L485.159 16.4502L484.37 15.313L483.931 13.9133L482.791 13.0385L482.265 11.7263L481.389 10.5891L480.424 9.53933L479.284 8.66453L478.583 7.52729L477.355 6.91493L476.04 6.65249L474.9 5.86517L473.585 5.51525L472.358 4.90289L471.043 4.46549L469.464 4.64045L468.675 3.32825L467.886 2.19101L467.273 0.878815L466.133 -0.0834656L465.87 -1.6581L464.379 -2.27047L463.59 -3.4077L463.152 -4.80738L461.924 -6.0321L460.96 -6.73194L459.82 -7.69422H458.329L457.277 -8.74398L456.05 -9.35634L454.647 -9.61878L453.419 -10.1437L452.192 -10.6685L451.578 -11.6308L450.526 -13.0305L450 -14.5177L449.036 -15.6549L447.896 -16.7047L446.668 -17.7544L445.967 -19.1541L445.178 -20.4663L444.213 -21.6035L442.81 -22.3034L441.232 -22.3909L439.917 -23.2656L438.514 -23.7905L437.111 -24.3154L435.621 -24.5778L433.867 -24.4904L432.464 -25.1027L431.149 -26.24L429.922 -27.8146L428.957 -29.5642L427.642 -30.9639L426.327 -32.451L424.398 -32.8884L422.82 -33.9382L421.505 -35.3379L419.576 -35.8628L417.647 -35.9502L415.806 -36.2127L414.052 -37L412.123 -36.6501L410.194 -36.0377H408.178L406.161 -35.8628L404.32 -35.1629L402.391 -34.4631L401.076 -32.801L399.235 -32.0136L398.095 -30.614L396.78 -29.3018L395.201 -28.252L394.588 -26.4149L393.009 -25.1902L392.746 -23.3531L392.22 -21.6035L391.782 -19.7665L391.431 -17.9294L391.081 -16.0048L391.519 -14.0803V-12.1557L391.081 -10.4061L389.502 -9.5313L388.538 -8.2191L387.486 -6.9069L386.434 -5.76966L385.82 -4.2825L384.943 -2.9703L384.066 -1.6581L383.54 -0.170944V1.40369L382.576 2.89085L382.488 4.46549L383.014 6.12761V7.87721L383.54 9.53933L383.891 11.2014L384.943 12.6011L384.417 14.0883L383.54 15.138L382.927 16.3628L382.4 17.5875L382.313 19.0746L381.085 19.9494L380.209 20.9992V22.5738L379.419 23.7111L379.682 25.1108L379.858 26.5104L380.472 27.9101L380.296 29.3973L380.209 30.797L380.033 32.1966L380.559 33.5963L381.085 34.9085L380.822 36.2207L380.209 37.4454L380.033 38.8451L378.893 39.8074L378.367 41.0321L377.754 42.2568L377.315 43.569L376 44.3563L376.263 45.8435L376.088 47.2432L376.614 48.6429L376.526 50.0425L376.351 51.4422L377.052 52.7544L376.964 54.1541L376.789 55.6413L377.227 57.3909ZM388.45 51.1798L389.239 49.6051L389.59 47.943L389.765 46.2809L390.028 45.1437L391.431 44.1814L392.834 43.3066L393.623 41.557L395.464 41.4695L396.78 40.1573L398.796 40.5947L400.287 39.7199L401.865 39.0201L403.355 38.0578L405.021 37.7079L406.687 37.2705L408.265 36.5706L409.844 35.8708L411.422 35.171L413.175 34.821L414.841 34.2962L416.244 33.0714L418.173 33.2464L419.751 32.4591L420.54 31.0594L419.927 29.3098L418.436 29.4847L416.507 30.1846L414.315 30.2721L412.562 31.5843L410.37 31.6718L408.616 32.8965L406.336 32.809L404.408 33.5963L402.742 34.3836L401.076 34.7336L399.498 34.6461L397.832 34.3836H396.166L395.552 32.634L394.412 31.4093L392.746 30.7095L392.22 29.2223L391.782 27.5602L392.746 25.9856L392.922 24.3234L393.623 23.4486L394.412 21.5241L395.815 20.6493L397.481 20.0369L399.059 19.0746L400.813 17.8499L402.829 17.325L404.934 16.9751L406.95 16.4502L408.791 15.488L410.633 14.5257L412.562 13.7384L413.351 12.7761L413 10.764L411.685 10.5016L410.37 10.8515L408.879 10.6766L408.002 12.0762H406.336L404.583 11.6388L402.917 12.1637L401.251 12.7761L399.761 11.9013L398.972 10.3266L397.656 9.27689L396.254 8.40209L395.64 6.91493L396.078 5.25281L395.815 3.59069L395.64 1.92857L396.692 0.528893L398.095 -0.345905L399.498 -1.30818L400.462 -2.70786L402.04 -3.23274L403.268 -3.75763L404.846 -3.32022L405.898 -4.45746L406.687 -5.50722L406.161 -7.25682L405.46 -8.91894L404.408 -10.4061L404.145 -12.1557L404.583 -14.0803L404.495 -16.0048L403.794 -17.9294L404.583 -19.5915L406.424 -20.2913L407.213 -22.1284L409.142 -22.7408L410.37 -23.3531L412.211 -23.6156L414.052 -23.4406L415.893 -23.703L417.472 -22.7408L418.787 -21.3411L420.365 -20.1164L421.592 -18.6292L421.943 -16.7047L423.258 -15.2175L423.784 -13.4679L423.96 -11.6308L425.45 -11.3684L427.379 -12.1557L429.22 -12.4181L430.799 -12.8555L432.377 -12.4181L433.955 -11.8933L435.709 -12.0682L436.498 -10.756L437.024 -9.18138L438.777 -8.74398L439.216 -7.08186L438.514 -5.50722L439.128 -3.93258L439.303 -2.35794L438.602 -0.695827L436.936 -0.170944L435.533 0.616371L434.744 2.19101L433.078 3.24077H430.799L430.36 4.81541L430.974 6.73997L432.464 7.78973L433.955 6.30257L435.796 5.77769L437.725 5.42777L439.303 4.20305L441.408 4.29053L442.898 2.80337L445.09 3.15329L446.581 2.71589L448.159 2.01605L449.737 2.36597L451.315 2.54093L452.543 3.06581L453.332 4.46549L455.173 4.81541L455.436 6.65249L456.751 7.61477L456.225 9.18941L456.313 10.764L456.751 12.3387L455.787 13.8258L454.384 14.6132L453.244 15.7504L451.666 16.3628L450.263 17.2376L448.948 18.0249L447.019 18.2873L445.265 19.1621L443.512 19.9494L441.408 19.862L439.566 20.4743L438.076 21.874L437.462 22.8363L438.514 24.4109L439.216 25.1108L440.706 24.3234L442.372 23.9735L444.126 23.886L445.704 23.3612L447.194 22.6613L448.597 21.7865L450.175 21.2616L451.841 21.0867L453.419 20.4743L454.822 19.5995L456.488 19.3371L457.891 18.4623L459.294 17.5L460.872 17.0626L462.275 16.1878L464.028 16.8002L465.607 16.2753L467.185 15.7504L468.763 16.1003L469.903 17.0626L471.306 17.8499L471.919 19.4246L473.585 19.9494L474.287 21.5241L473.41 23.0987V24.6734V26.248L473.322 27.8226L471.569 28.26L470.692 29.6597L469.727 30.9719L467.799 30.8844L466.396 31.8467L465.081 32.9839L463.415 33.1589L462.012 34.0337L460.346 34.2962L458.768 34.821L457.19 35.2584L455.524 35.5209L453.946 35.9583L452.718 37.4454L450.964 37.3579L449.649 38.7576L447.72 38.4077L446.493 39.8074L444.652 39.5449L444.476 40.9446V42.6067L445.791 43.744L445.441 45.4936L446.405 46.9807L446.318 48.9053L446.581 50.8299L445.704 52.7544L445.616 54.3291L444.389 55.7287L442.723 56.6035L441.583 58.0907L439.917 58.9655L438.076 58.0907L436.235 58.2657L434.393 58.703L432.727 57.8283L431.851 55.9912L429.922 55.1164L429.396 53.0169L427.905 51.9671L427.467 50.4799L427.028 48.9928L426.064 47.6806L425.713 47.5931L424.047 47.943L422.294 48.2929L420.54 48.5554L418.874 49.1677L417.209 49.6926L415.718 50.7424L414.052 51.1798L412.386 51.7047L410.983 52.9294L409.055 52.5795L407.652 53.7167L405.898 53.9791L404.232 54.504L402.654 55.1164L401.164 55.9912L399.498 56.6035L397.744 55.9912L396.078 56.1661L394.5 57.0409L392.746 56.4286L391.519 55.2913L391.081 53.3668L389.941 52.1421L388.45 51.1798Z" fill="#2A4334" fill-opacity="0.1"/>
<path d="M1030 225.071L1030.99 226.5L1031.84 228L1033.05 229.286L1033.91 230.786L1035.61 231.143L1036.54 232.643L1038.24 233L1039.59 233.714L1041.16 234.286L1042.72 234.714L1044.43 234.571L1046.06 234.857H1047.91L1049.62 234.143L1051.46 234.071L1053.17 233.714L1054.59 232.786L1056.3 232.571L1057.86 232.071L1059.28 231.214L1060.85 230.643L1062.27 229.714L1063.91 229.357L1065.18 229.714L1066.18 230.786L1067.1 231.929L1068.53 232.571L1069.45 233.643L1070.59 234.429L1071.8 235.143L1073.08 235.714L1074.43 236.143L1075.85 236.357L1077.27 236.286L1078.69 236.429L1080.18 237L1081.61 236.643L1082.96 235.786L1084.45 235.643L1085.94 235.429L1086.94 234.214L1088.36 233.714L1089.71 233L1090.71 232L1091.63 230.929L1092.48 229.786L1093.83 229.143L1094.26 227.714L1094.62 226.357L1095.33 225.143L1096.04 223.929L1096.46 222.5V221.071L1096.04 219.571L1096.39 218.143L1097.18 217.071L1098.53 216.286L1100.09 216.143L1101.44 215.5L1103 215.357L1104.21 214.143L1105.92 214.357L1107.27 213.571L1108.55 212.5L1110.04 211.643L1111.46 210.643L1113.31 210.357L1114.45 209.071L1115.16 207.643L1116.01 206.286L1117.44 205.357L1118 203.857L1118.36 202.357L1118.29 200.714L1118.79 199.214V197.714L1119 196L1118.29 194.429L1118.22 192.714L1117.51 191.643L1116.87 190.714L1116.51 189.571L1115.59 188.857L1115.16 187.786L1114.45 186.857L1113.67 186L1112.74 185.286L1112.18 184.357L1111.18 183.857L1110.11 183.643L1109.19 183L1108.12 182.714L1107.13 182.214L1106.06 181.857L1104.78 182L1104.14 180.929L1103.5 180L1103 178.929L1102.08 178.143L1101.87 176.857L1100.66 176.357L1100.02 175.429L1099.66 174.286L1098.67 173.286L1097.89 172.714L1096.96 171.929H1095.75L1094.9 171.071L1093.91 170.571L1092.77 170.357L1091.77 169.929L1090.78 169.5L1090.28 168.714L1089.43 167.571L1089 166.357L1088.22 165.429L1087.29 164.571L1086.3 163.714L1085.73 162.571L1085.09 161.5L1084.31 160.571L1083.17 160L1081.89 159.929L1080.82 159.214L1079.69 158.786L1078.55 158.357L1077.34 158.143L1075.92 158.214L1074.78 157.714L1073.72 156.786L1072.72 155.5L1071.94 154.071L1070.87 152.929L1069.81 151.714L1068.24 151.357L1066.96 150.5L1065.9 149.357L1064.33 148.929L1062.77 148.857L1061.27 148.643L1059.85 148L1058.29 148.286L1056.73 148.786H1055.09L1053.45 148.929L1051.96 149.5L1050.4 150.071L1049.33 151.429L1047.84 152.071L1046.91 153.214L1045.85 154.286L1044.57 155.143L1044.07 156.643L1042.79 157.643L1042.58 159.143L1042.15 160.571L1041.8 162.071L1041.51 163.571L1041.23 165.143L1041.58 166.714V168.286L1041.23 169.714L1039.95 170.429L1039.17 171.5L1038.31 172.571L1037.46 173.5L1036.96 174.714L1036.25 175.786L1035.54 176.857L1035.11 178.071V179.357L1034.33 180.571L1034.26 181.857L1034.69 183.214V184.643L1035.11 186L1035.4 187.357L1036.25 188.5L1035.82 189.714L1035.11 190.571L1034.62 191.571L1034.19 192.571L1034.12 193.786L1033.12 194.5L1032.41 195.357V196.643L1031.77 197.571L1031.99 198.714L1032.13 199.857L1032.63 201L1032.48 202.214L1032.41 203.357L1032.27 204.5L1032.7 205.643L1033.12 206.714L1032.91 207.786L1032.41 208.786L1032.27 209.929L1031.35 210.714L1030.92 211.714L1030.42 212.714L1030.07 213.786L1029 214.429L1029.21 215.643L1029.07 216.786L1029.5 217.929L1029.43 219.071L1029.28 220.214L1029.85 221.286L1029.78 222.429L1029.64 223.643L1030 225.071ZM1039.09 220L1039.73 218.714L1040.02 217.357L1040.16 216L1040.37 215.071L1041.51 214.286L1042.65 213.571L1043.29 212.143L1044.78 212.071L1045.85 211L1047.48 211.357L1048.69 210.643L1049.97 210.071L1051.18 209.286L1052.53 209L1053.88 208.643L1055.16 208.071L1056.44 207.5L1057.72 206.929L1059.14 206.643L1060.49 206.214L1061.63 205.214L1063.19 205.357L1064.47 204.714L1065.11 203.571L1064.62 202.143L1063.41 202.286L1061.84 202.857L1060.07 202.929L1058.64 204L1056.87 204.071L1055.45 205.071L1053.6 205L1052.03 205.643L1050.68 206.286L1049.33 206.571L1048.05 206.5L1046.7 206.286H1045.35L1044.85 204.857L1043.93 203.857L1042.58 203.286L1042.15 202.071L1041.8 200.714L1042.58 199.429L1042.72 198.071L1043.29 197.357L1043.93 195.786L1045.07 195.071L1046.42 194.571L1047.7 193.786L1049.12 192.786L1050.75 192.357L1052.46 192.071L1054.09 191.643L1055.59 190.857L1057.08 190.071L1058.64 189.429L1059.28 188.643L1059 187L1057.93 186.786L1056.87 187.071L1055.66 186.929L1054.95 188.071H1053.6L1052.18 187.714L1050.82 188.143L1049.47 188.643L1048.27 187.929L1047.63 186.643L1046.56 185.786L1045.42 185.071L1044.92 183.857L1045.28 182.5L1045.07 181.143L1044.92 179.786L1045.78 178.643L1046.91 177.929L1048.05 177.143L1048.83 176L1050.11 175.571L1051.11 175.143L1052.39 175.5L1053.24 174.571L1053.88 173.714L1053.45 172.286L1052.89 170.929L1052.03 169.714L1051.82 168.286L1052.18 166.714L1052.1 165.143L1051.54 163.571L1052.18 162.214L1053.67 161.643L1054.31 160.143L1055.87 159.643L1056.87 159.143L1058.36 158.929L1059.85 159.071L1061.35 158.857L1062.63 159.643L1063.69 160.786L1064.97 161.786L1065.97 163L1066.25 164.571L1067.32 165.786L1067.74 167.214L1067.89 168.714L1069.09 168.929L1070.66 168.286L1072.15 168.071L1073.43 167.714L1074.71 168.071L1075.99 168.5L1077.41 168.357L1078.05 169.429L1078.48 170.714L1079.9 171.071L1080.26 172.429L1079.69 173.714L1080.18 175L1080.33 176.286L1079.76 177.643L1078.41 178.071L1077.27 178.714L1076.63 180L1075.28 180.857H1073.43L1073.08 182.143L1073.57 183.714L1074.78 184.571L1075.99 183.357L1077.48 182.929L1079.05 182.643L1080.33 181.643L1082.03 181.714L1083.24 180.5L1085.02 180.786L1086.23 180.429L1087.51 179.857L1088.79 180.143L1090.07 180.286L1091.06 180.714L1091.7 181.857L1093.19 182.143L1093.41 183.643L1094.47 184.429L1094.05 185.714L1094.12 187L1094.47 188.286L1093.69 189.5L1092.55 190.143L1091.63 191.071L1090.35 191.571L1089.21 192.286L1088.15 192.929L1086.58 193.143L1085.16 193.857L1083.74 194.5L1082.03 194.429L1080.54 194.929L1079.33 196.071L1078.83 196.857L1079.69 198.143L1080.26 198.714L1081.46 198.071L1082.82 197.786L1084.24 197.714L1085.52 197.286L1086.73 196.714L1087.86 196L1089.14 195.571L1090.49 195.429L1091.77 194.929L1092.91 194.214L1094.26 194L1095.4 193.286L1096.54 192.5L1097.82 192.143L1098.95 191.429L1100.37 191.929L1101.65 191.5L1102.93 191.071L1104.21 191.357L1105.14 192.143L1106.27 192.786L1106.77 194.071L1108.12 194.5L1108.69 195.786L1107.98 197.071V198.357V199.643L1107.91 200.929L1106.49 201.286L1105.78 202.429L1105 203.5L1103.43 203.429L1102.29 204.214L1101.23 205.143L1099.88 205.286L1098.74 206L1097.39 206.214L1096.11 206.643L1094.83 207L1093.48 207.214L1092.2 207.571L1091.2 208.786L1089.78 208.714L1088.72 209.857L1087.15 209.571L1086.16 210.714L1084.66 210.5L1084.52 211.643V213L1085.59 213.929L1085.3 215.357L1086.09 216.571L1086.01 218.143L1086.23 219.714L1085.52 221.286L1085.45 222.571L1084.45 223.714L1083.1 224.429L1082.18 225.643L1080.82 226.357L1079.33 225.643L1077.84 225.786L1076.35 226.143L1075 225.429L1074.28 223.929L1072.72 223.214L1072.29 221.5L1071.09 220.643L1070.73 219.429L1070.37 218.214L1069.59 217.143L1069.31 217.071L1067.96 217.357L1066.54 217.643L1065.11 217.857L1063.76 218.357L1062.41 218.786L1061.2 219.643L1059.85 220L1058.5 220.429L1057.36 221.429L1055.8 221.143L1054.66 222.071L1053.24 222.286L1051.89 222.714L1050.61 223.214L1049.4 223.929L1048.05 224.429L1046.63 223.929L1045.28 224.071L1044 224.786L1042.58 224.286L1041.58 223.357L1041.23 221.786L1040.3 220.786L1039.09 220Z" fill="#2A4334" fill-opacity="0.1"/>
<path d="M3.60506 395.977L7.21011 401.129L10.3002 406.539L14.6777 411.177L17.7678 416.587L23.9479 417.875L27.2954 423.285L33.4755 424.573L38.3681 427.149L44.0332 429.21L49.6983 430.756L55.8784 430.241L61.8009 431.271H68.4961L74.6761 428.695L81.3713 428.437L87.5513 427.149L92.7014 423.8L98.8815 423.027L104.547 421.224L109.697 418.132L115.362 416.071L120.512 412.722L126.434 411.434L131.07 412.722L134.675 416.587L138.022 420.709L143.172 423.027L146.52 426.892L150.64 429.726L155.017 432.302L159.652 434.363L164.545 435.909L169.695 436.681L174.845 436.424L179.995 436.939L185.403 439L190.553 437.712L195.446 434.62L200.853 434.105L206.261 433.332L209.866 428.953L215.016 427.149L219.908 424.573L223.513 420.966L226.861 417.102L229.951 412.98L234.844 410.661L236.389 405.509L237.676 400.614L240.251 396.234L242.826 391.855L244.371 386.702V381.55L242.826 376.14L244.114 370.987L246.946 367.123L251.839 364.289L257.504 363.774L262.397 361.455L268.062 360.94L272.439 356.56L278.619 357.333L283.512 354.499L288.147 350.635L293.555 347.543L298.705 343.937L305.4 342.906L309.52 338.269L312.095 333.116L315.185 328.222L320.335 324.872L322.395 319.462L323.682 314.052L323.425 308.127L325.228 302.717V297.307L326 291.124L323.425 285.456L323.167 279.273L320.592 275.409L318.275 272.059L316.987 267.937L313.64 265.361L312.095 261.497L309.52 258.148L306.687 255.056L303.34 252.48L301.28 249.131L297.675 247.327L293.812 246.555L290.464 244.236L286.602 243.205L282.997 241.402L279.134 240.114L274.499 240.629L272.182 236.765L269.864 233.416L268.062 229.551L264.714 226.718L263.942 222.08L259.564 220.277L257.246 216.928L255.959 212.806L252.354 209.199L249.521 207.138L246.174 204.304H241.796L238.706 201.213L235.101 199.409L230.981 198.636L227.376 197.091L223.771 195.545L221.968 192.711L218.878 188.589L217.333 184.209L214.501 180.86L211.153 177.769L207.548 174.677L205.488 170.555L203.171 166.691L200.338 163.342L196.218 161.281L191.583 161.023L187.72 158.447L183.6 156.901L179.48 155.356L175.103 154.583L169.953 154.84L165.833 153.037L161.97 149.688L158.365 145.051L155.532 139.898L151.67 135.776L147.807 131.396L142.142 130.108L137.507 127.017L133.645 122.895L127.979 121.349L122.314 121.091L116.907 120.319L111.757 118L106.092 119.03L100.427 120.834H94.504L88.5814 121.349L83.1738 123.41L77.5087 125.471L73.6461 130.366L68.2385 132.685L64.891 136.807L61.0284 140.671L56.3934 143.762L54.5908 149.173L49.9558 152.779L49.1833 158.189L47.6382 163.342L46.3507 168.752L45.3207 174.162L44.2907 179.83L45.5782 185.498V191.165L44.2907 196.318L39.6556 198.894L36.8231 202.758L33.733 206.623L30.643 209.972L28.8404 214.352L26.2654 218.216L23.6904 222.08L22.1453 226.46V231.097L19.3128 235.477L19.0553 240.114L20.6003 245.009V250.161L22.1453 255.056L23.1754 259.951L26.2654 264.073L24.7204 268.453L22.1453 271.544L20.3428 275.151L18.7978 278.758L18.5403 283.137L14.9352 285.713L12.3602 288.805V293.442L10.0427 296.791L10.8152 300.913L11.3302 305.035L13.1327 309.157L12.6177 313.537L12.3602 317.659L11.8452 321.781L13.3902 325.903L14.9352 329.767L14.1627 333.632L12.3602 337.238L11.8452 341.36L8.49763 344.194L6.95261 347.801L5.15008 351.408L3.86256 355.272L0 357.591L0.772512 361.97L0.257504 366.092L1.80253 370.214L1.54502 374.336L1.03002 378.458L3.09005 382.323L2.83254 386.445L2.31754 390.824L3.60506 395.977ZM36.5656 377.685L38.8831 373.048L39.9131 368.153L40.4281 363.258L41.2006 359.909L45.3207 357.075L49.4408 354.499L51.7583 349.347L57.1659 349.089L61.0284 345.225L66.951 346.513L71.3286 343.937L75.9637 341.876L80.3412 339.042L85.2338 338.011L90.1264 336.723L94.7615 334.662L99.3965 332.601L104.032 330.54L109.182 329.51L114.074 327.964L118.194 324.357L123.859 324.872L128.494 322.554L130.812 318.432L129.009 313.279L124.632 313.795L118.967 315.856L112.529 316.113L107.379 319.978L100.942 320.235L95.7915 323.842L89.0964 323.584L83.4313 325.903L78.5387 328.222L73.6461 329.252L69.0111 328.994L64.1185 328.222H59.2259L57.4234 323.069L54.0758 319.462L49.1833 317.401L47.6382 313.022L46.3507 308.127L49.1833 303.49L49.6983 298.595L51.7583 296.018L54.0758 290.351L58.1959 287.774L63.0885 285.971L67.7235 283.137L72.8736 279.531L78.7962 277.985L84.9763 276.954L90.8989 275.409L96.3065 272.575L101.714 269.741L107.379 267.422L109.697 264.588L108.667 258.663L104.804 257.89L100.942 258.921L96.564 258.405L93.9889 262.527H89.0964L83.9463 261.239L79.0537 262.785L74.1611 264.588L69.7836 262.012L67.466 257.375L63.6035 254.283L59.4834 251.707L57.6809 247.327L58.9684 242.433L58.1959 237.538L57.6809 232.643L60.7709 228.521L64.891 225.945L69.0111 223.111L71.8436 218.989L76.4787 217.443L80.0837 215.897L84.7188 217.185L87.8088 213.836L90.1264 210.745L88.5814 205.592L86.5213 200.697L83.4313 196.318L82.6588 191.165L83.9463 185.498L83.6888 179.83L81.6288 174.162L83.9463 169.267L89.3539 167.206L91.6714 161.796L97.3365 159.993L100.942 158.189L106.349 157.417L111.757 157.932L117.164 157.159L121.799 159.993L125.662 164.115L130.297 167.722L133.902 172.101L134.932 177.769L138.795 182.148L140.34 187.301L140.855 192.711L145.232 193.484L150.897 191.165L156.305 190.392L160.94 189.104L165.575 190.392L170.21 191.938L175.36 191.423L177.678 195.287L179.223 199.925L184.373 201.213L185.66 206.108L183.6 210.745L185.403 215.382L185.918 220.019L183.858 224.914L178.965 226.46L174.845 228.778L172.528 233.416L167.635 236.507H160.94L159.652 241.144L161.455 246.812L165.833 249.904L170.21 245.524L175.618 243.978L181.283 242.948L185.918 239.341L192.098 239.599L196.476 235.219L202.913 236.25L207.291 234.961L211.926 232.9L216.561 233.931L221.196 234.446L224.801 235.992L227.118 240.114L232.526 241.144L233.299 246.555L237.161 249.388L235.616 254.026L235.874 258.663L237.161 263.3L234.329 267.68L230.209 269.998L226.861 273.348L222.226 275.151L218.106 277.727L214.243 280.046L208.578 280.819L203.428 283.395L198.278 285.713L192.098 285.456L186.69 287.259L182.313 291.381L180.51 294.215L183.6 298.852L185.66 300.913L190.038 298.595L194.93 297.564L200.081 297.307L204.716 295.761L209.093 293.7L213.213 291.124L217.848 289.578L222.741 289.063L227.376 287.259L231.496 284.683L236.389 283.91L240.509 281.334L244.629 278.5L249.264 277.212L253.384 274.636L258.534 276.439L263.169 274.893L267.804 273.348L272.439 274.378L275.787 277.212L279.907 279.531L281.709 284.168L286.602 285.713L288.662 290.351L286.087 294.988V299.625V304.262L285.829 308.9L280.679 310.188L278.104 314.31L275.272 318.174L269.607 317.917L265.487 320.75L261.624 324.1L256.731 324.615L252.611 327.191L247.719 327.964L243.084 329.51L238.449 330.798L233.556 331.571L228.921 332.859L225.316 337.238L220.166 336.981L216.303 341.103L210.638 340.072L207.033 344.194L201.626 343.421L201.111 347.543V352.438L204.973 355.787L203.943 360.94L206.776 365.319L206.518 370.987L207.291 376.655L204.716 382.323L204.458 386.96L200.853 391.082L195.961 393.658L192.613 398.038L187.72 400.614L182.313 398.038L176.905 398.553L171.498 399.841L166.605 397.265L164.03 391.855L158.365 389.279L156.82 383.096L152.442 380.004L151.155 375.624L149.867 371.245L147.035 367.38L146.005 367.123L141.112 368.153L135.962 369.184L130.812 369.957L125.919 371.76L121.027 373.306L116.649 376.397L111.757 377.685L106.864 379.231L102.744 382.838L97.079 381.807L92.9589 385.157L87.8088 385.929L82.9163 387.475L78.2812 389.279L73.9036 391.855L69.0111 393.658L63.861 391.855L58.9684 392.37L54.3333 394.946L49.1833 393.143L45.5782 389.794L44.2907 384.126L40.9431 380.519L36.5656 377.685Z" fill="#2A4334" fill-opacity="0.1"/>
<path d="M1179.69 120.77L1183.39 126.067L1186.55 131.629L1191.04 136.396L1194.2 141.958L1200.54 143.283L1203.97 148.844L1210.3 150.169L1215.31 152.817L1221.11 154.936L1226.92 156.525L1233.25 155.995L1239.32 157.055H1246.18L1252.51 154.406L1259.37 154.141L1265.7 152.817L1270.98 149.374L1277.31 148.579L1283.11 146.726L1288.39 143.547L1294.19 141.429L1299.47 137.986L1305.54 136.661L1310.29 137.986L1313.98 141.958L1317.41 146.196L1322.69 148.579L1326.12 152.552L1330.34 155.465L1334.82 158.114L1339.57 160.233L1344.58 161.822L1349.86 162.616L1355.14 162.352L1360.41 162.881L1365.95 165L1371.23 163.676L1376.24 160.498L1381.78 159.968L1387.32 159.173L1391.02 154.671L1396.29 152.817L1401.3 150.169L1405 146.461L1408.43 142.488L1411.59 138.25L1416.61 135.867L1418.19 130.57L1419.51 125.538L1422.15 121.035L1424.79 116.533L1426.37 111.236V105.939L1424.79 100.377L1426.1 95.0803L1429.01 91.1076L1434.02 88.1942L1439.82 87.6645L1444.84 85.2809L1450.64 84.7512L1455.12 80.2488L1461.46 81.0434L1466.47 78.13L1471.22 74.1573L1476.76 70.9791L1482.03 67.2713L1488.89 66.2119L1493.12 61.4446L1495.75 56.1477L1498.92 51.1156L1504.2 47.6726L1506.31 42.1108L1507.63 36.549L1507.36 30.4575L1509.21 24.8957V19.3339L1510 12.9775L1507.36 7.15088L1507.1 0.794556L1504.46 -3.17816L1502.09 -6.62117L1500.77 -10.8587L1497.34 -13.5072L1495.75 -17.4799L1493.12 -20.9229L1490.21 -24.1011L1486.78 -26.7496L1484.67 -30.1926L1480.98 -32.0465L1477.02 -32.8411L1473.59 -35.2247L1469.64 -36.2841L1465.94 -38.138L1461.98 -39.4623L1457.24 -38.9326L1454.86 -42.9053L1452.49 -46.3483L1450.64 -50.321L1447.21 -53.2343L1446.42 -58.0016L1441.93 -59.8555L1439.56 -63.2985L1438.24 -67.5361L1434.55 -71.244L1431.64 -73.3628L1428.21 -76.2761H1423.73L1420.56 -79.4542L1416.87 -81.3082L1412.65 -82.1027L1408.96 -83.6918L1405.26 -85.2809L1403.42 -88.1942L1400.25 -92.4318L1398.67 -96.9342L1395.76 -100.377L1392.33 -103.555L1388.64 -106.734L1386.53 -110.971L1384.16 -114.944L1381.25 -118.387L1377.03 -120.506L1372.28 -120.77L1368.33 -123.419L1364.11 -125.008L1359.88 -126.597L1355.4 -127.392L1350.12 -127.127L1345.9 -128.981L1341.94 -132.424L1338.25 -137.191L1335.35 -142.488L1331.39 -146.726L1327.43 -151.228L1321.63 -152.552L1316.88 -155.73L1312.92 -159.968L1307.12 -161.557L1301.32 -161.822L1295.78 -162.616L1290.5 -165L1284.7 -163.941L1278.89 -162.087H1272.82L1266.76 -161.557L1261.21 -159.438L1255.41 -157.319L1251.45 -152.287L1245.91 -149.904L1242.48 -145.666L1238.53 -141.693L1233.78 -138.515L1231.93 -132.953L1227.18 -129.246L1226.39 -123.684L1224.81 -118.387L1223.49 -112.825L1222.43 -107.263L1221.38 -101.437L1222.7 -95.61V-89.7833L1221.38 -84.4864L1216.63 -81.8379L1213.73 -77.8652L1210.56 -73.8924L1207.39 -70.4494L1205.55 -65.947L1202.91 -61.9743L1200.27 -58.0016L1198.69 -53.4992V-48.7319L1195.79 -44.2295L1195.52 -39.4623L1197.11 -34.4302V-29.1332L1198.69 -24.1011L1199.74 -19.069L1202.91 -14.8315L1201.33 -10.329L1198.69 -7.15088L1196.84 -3.44301L1195.26 0.264862L1195 4.76726L1191.3 7.41573L1188.66 10.5939V15.3612L1186.29 18.8042L1187.08 23.0417L1187.61 27.2793L1189.45 31.5169L1188.93 36.0193L1188.66 40.2568L1188.14 44.4944L1189.72 48.732L1191.3 52.7047L1190.51 56.6774L1188.66 60.3852L1188.14 64.6228L1184.71 67.5361L1183.12 71.244L1181.28 74.9518L1179.96 78.9246L1176 81.3082L1176.79 85.8106L1176.26 90.0482L1177.85 94.2857L1177.58 98.5233L1177.06 102.761L1179.17 106.734L1178.9 110.971L1178.37 115.474L1179.69 120.77ZM1213.46 101.966L1215.84 97.199L1216.89 92.1669L1217.42 87.1348L1218.21 83.6918L1222.43 80.7785L1226.65 78.13L1229.03 72.8331L1234.57 72.5682L1238.53 68.5955L1244.59 69.9198L1249.08 67.2713L1253.83 65.1525L1258.31 62.2392L1263.33 61.1798L1268.34 59.8555L1273.09 57.7368L1277.84 55.618L1282.58 53.4992L1287.86 52.4398L1292.87 50.8507L1297.09 47.1429L1302.9 47.6726L1307.65 45.2889L1310.02 41.0514L1308.18 35.7544L1303.69 36.2841L1297.89 38.4029L1291.29 38.6677L1286.01 42.6405L1279.42 42.9053L1274.14 46.6132L1267.28 46.3483L1261.48 48.732L1256.47 51.1156L1251.45 52.175L1246.7 51.9101L1241.69 51.1156H1236.68L1234.83 45.8186L1231.4 42.1108L1226.39 39.992L1224.81 35.4896L1223.49 30.4575L1226.39 25.6902L1226.92 20.6581L1229.03 18.0096L1231.4 12.183L1235.62 9.53452L1240.64 7.68059L1245.39 4.76726L1250.66 1.0594L1256.73 -0.529678L1263.06 -1.58908L1269.13 -3.17816L1274.67 -6.09149L1280.21 -9.00481L1286.01 -11.3884L1288.39 -14.3018L1287.33 -20.3932L1283.38 -21.1878L1279.42 -20.1284L1274.93 -20.6581L1272.3 -16.4205H1267.28L1262.01 -17.7448L1256.99 -16.1557L1251.98 -14.3018L1247.5 -16.9502L1245.12 -21.7175L1241.16 -24.8957L1236.94 -27.5441L1235.1 -32.0465L1236.42 -37.0786L1235.62 -42.1107L1235.1 -47.1429L1238.26 -51.3804L1242.48 -54.0289L1246.7 -56.9422L1249.61 -61.1798L1254.36 -62.7689L1258.05 -64.3579L1262.8 -63.0337L1265.96 -66.4767L1268.34 -69.6549L1266.76 -74.9518L1264.64 -79.9839L1261.48 -84.4864L1260.69 -89.7833L1262.01 -95.61L1261.74 -101.437L1259.63 -107.263L1262.01 -112.295L1267.55 -114.414L1269.92 -119.976L1275.73 -121.83L1279.42 -123.684L1284.96 -124.478L1290.5 -123.949L1296.04 -124.743L1300.79 -121.83L1304.75 -117.592L1309.49 -113.884L1313.19 -109.382L1314.24 -103.555L1318.2 -99.053L1319.78 -93.756L1320.31 -88.1942L1324.8 -87.3997L1330.6 -89.7833L1336.14 -90.5779L1340.89 -91.9021L1345.64 -90.5779L1350.39 -88.9888L1355.66 -89.5185L1358.04 -85.5457L1359.62 -80.7785L1364.9 -79.4542L1366.22 -74.4221L1364.11 -69.6549L1365.95 -64.8876L1366.48 -60.1204L1364.37 -55.0883L1359.36 -53.4992L1355.14 -51.1156L1352.76 -46.3483L1347.75 -43.1701H1340.89L1339.57 -38.4029L1341.42 -32.5762L1345.9 -29.3981L1350.39 -33.9005L1355.93 -35.4896L1361.73 -36.549L1366.48 -40.2568L1372.81 -39.992L1377.3 -44.4944L1383.89 -43.435L1388.38 -44.7592L1393.13 -46.878L1397.88 -45.8186L1402.62 -45.2889L1406.32 -43.6998L1408.69 -39.4623L1414.23 -38.4029L1415.02 -32.8411L1418.98 -29.9278L1417.4 -25.1605L1417.66 -20.3932L1418.98 -15.626L1416.08 -11.1236L1411.86 -8.73996L1408.43 -5.29694L1403.68 -3.44301L1399.46 -0.79454L1395.5 1.5891L1389.7 2.38364L1384.42 5.03212L1379.14 7.41573L1372.81 7.15088L1367.27 9.00484L1362.79 13.2424L1360.94 16.1557L1364.11 20.923L1366.22 23.0417L1370.7 20.6581L1375.71 19.5987L1380.99 19.3339L1385.74 17.7448L1390.22 15.626L1394.45 12.9775L1399.19 11.3884L1404.21 10.8587L1408.96 9.00484L1413.18 6.35635L1418.19 5.5618L1422.41 2.91333L1426.63 1.52588e-05L1431.38 -1.32423L1435.6 -3.9727L1440.88 -2.11877L1445.63 -3.70786L1450.38 -5.29694L1455.12 -4.23755L1458.55 -1.32423L1462.78 1.0594L1464.62 5.82664L1469.64 7.41573L1471.75 12.183L1469.11 16.9503V21.7175V26.4848L1468.84 31.252L1463.57 32.5762L1460.93 36.8138L1458.03 40.7865L1452.22 40.5217L1448 43.435L1444.04 46.878L1439.03 47.4077L1434.81 50.0562L1429.8 50.8507L1425.05 52.4398L1420.3 53.764L1415.29 54.5586L1410.54 55.8828L1406.85 60.3852L1401.57 60.1204L1397.61 64.3579L1391.81 63.2986L1388.11 67.5361L1382.57 66.7416L1382.05 70.9791V76.0112L1386 79.4543L1384.95 84.7512L1387.85 89.2536L1387.59 95.0803L1388.38 100.907L1385.74 106.734L1385.48 111.501L1381.78 115.738L1376.77 118.387L1373.34 122.889L1368.33 125.538L1362.79 122.889L1357.25 123.419L1351.71 124.743L1346.69 122.095L1344.06 116.533L1338.25 113.884L1336.67 107.528L1332.18 104.35L1330.86 99.8475L1329.55 95.3451L1326.64 91.3724L1325.59 91.1076L1320.58 92.1669L1315.3 93.2263L1310.02 94.0209L1305.01 95.8748L1300 97.4639L1295.51 100.642L1290.5 101.966L1285.49 103.555L1281.27 107.263L1275.46 106.204L1271.24 109.647L1265.96 110.441L1260.95 112.03L1256.2 113.884L1251.72 116.533L1246.7 118.387L1241.43 116.533L1236.42 117.063L1231.67 119.711L1226.39 117.857L1222.7 114.414L1221.38 108.587L1217.95 104.88L1213.46 101.966Z" fill="#2A4334" fill-opacity="0.1"/>
</svg>

