<svg width="675" height="47" viewBox="0 0 675 47" fill="none" xmlns="http://www.w3.org/2000/svg">
<path fill-rule="evenodd" clip-rule="evenodd" d="M24.3423 46.0982V32.0628H28.1056V46.0982H24.3423ZM41.4818 35.4624C41.4282 35.4469 39.8909 35.0387 38.6273 35.0387C37.1644 35.0387 36.3686 35.5094 36.3686 36.1771C36.3686 37.0239 37.4431 37.3196 38.0431 37.5023L39.0499 37.8106C41.4203 38.5348 42.499 40.0938 42.499 41.7874C42.499 45.2799 39.3042 46.4546 36.5088 46.4546C34.5672 46.4546 32.7481 46.11 32.5688 46.0743V42.8734C32.8908 42.9514 34.4208 43.3905 36.0173 43.3905C37.8333 43.3905 38.6688 42.8806 38.6688 42.0933C38.6688 41.3881 37.9449 40.9811 37.04 40.7091C36.8198 40.6365 36.4869 40.536 36.26 40.4664C34.2275 39.8481 32.5316 38.6984 32.5316 36.3985C32.5316 33.7974 34.558 32.0521 37.9242 32.0521C39.7012 32.0521 41.3733 32.4668 41.4812 32.4942V35.4618L41.4818 35.4624ZM76.2058 39.2524C76.2058 43.2311 73.0116 46.4534 68.5612 46.4534C64.1108 46.4534 60.9202 43.2311 60.9202 39.2512C60.9202 35.2809 64.112 32.055 68.5612 32.055C73.011 32.055 76.2058 35.2809 76.2058 39.2524ZM68.5612 35.5963C66.3951 35.5963 64.7858 37.2345 64.7858 39.2524C64.7858 41.2763 66.3951 42.9115 68.5612 42.9115C70.7242 42.9115 72.3377 41.2763 72.3377 39.2524C72.3377 37.2345 70.7242 35.5963 68.5612 35.5963ZM18.9664 36.2866C18.8194 36.2128 17.6461 35.5451 15.899 35.5451C13.5354 35.5451 11.898 37.1233 11.898 39.253C11.898 41.3191 13.4671 42.9639 15.9008 42.9639C17.6162 42.9639 18.8097 42.3087 18.9664 42.2266V45.9583C18.5133 46.0814 17.2668 46.4534 15.6362 46.4534C11.5346 46.4534 7.93304 43.7327 7.93304 39.2512C7.93304 35.1012 11.1937 32.055 15.6374 32.055C17.3552 32.055 18.623 32.4549 18.9664 32.5537V36.2866ZM57.0754 36.2866C56.9259 36.2128 55.7502 35.5451 54.0056 35.5451C51.6431 35.5451 50.0064 37.1233 50.0064 39.253C50.0064 41.3191 51.5724 42.9639 54.0043 42.9639C55.7203 42.9639 56.915 42.3087 57.0754 42.2266V45.9583C56.618 46.0814 55.3691 46.4534 53.7488 46.4534C49.6417 46.4534 46.0371 43.7327 46.0371 39.2512C46.0371 35.1012 49.299 32.055 53.7488 32.055C55.4606 32.055 56.7302 32.4549 57.0754 32.5537V36.2866Z" fill="#050038"/>
<path fill-rule="evenodd" clip-rule="evenodd" d="M83.2674 13.0832C83.2656 12.121 82.4551 11.3421 81.4587 11.3432C80.461 11.3421 79.6512 12.121 79.6494 13.0838V16.7334C79.6329 17.366 79.9744 17.9575 80.5403 18.2776C81.1068 18.5989 81.8087 18.5989 82.3758 18.2776C82.9424 17.9563 83.2826 17.3648 83.2662 16.7334V13.0832H83.2674ZM73.325 8.29351C73.325 7.33485 72.5176 6.55411 71.4956 6.55411C70.4998 6.55233 69.6911 7.33009 69.6893 8.29113V8.29232V16.734C69.6893 17.695 70.4961 18.474 71.4919 18.474H71.4956C72.5164 18.474 73.325 17.6962 73.325 16.7328V8.29053V8.29291V8.29351ZM63.3637 1.7388C63.3625 0.777168 62.5539 -0.00118402 61.5581 3.05658e-06H61.5569C60.561 -0.00177909 59.7518 0.775978 59.75 1.73761V1.73821V20.2009C59.7195 20.8412 60.0567 21.4464 60.6281 21.7736C61.2007 22.1015 61.9136 22.1003 62.485 21.7707C63.0546 21.444 63.3924 20.8412 63.3631 20.2021V1.7388H63.3637ZM53.4 8.29351C53.3988 7.33247 52.5896 6.55411 51.5944 6.5553C50.5979 6.55352 49.7893 7.33187 49.7869 8.29291V8.29351V16.7334C49.7887 17.6944 50.5973 18.4728 51.5938 18.471H51.5944C52.5896 18.4728 53.3988 17.6944 53.4 16.7334V8.29113V8.29351ZM43.44 13.0832C43.4375 12.124 42.6307 11.348 41.6367 11.3492C40.6421 11.3468 39.8329 12.1216 39.8268 13.082V16.734C39.828 17.695 40.6367 18.4734 41.6331 18.4716C42.6289 18.474 43.4381 17.6956 43.44 16.7346V16.734V13.0838V13.0832ZM33.4958 8.29351C33.4939 7.3283 32.6823 6.54816 31.6828 6.54935C30.6833 6.54816 29.871 7.3283 29.8698 8.29351V16.7334C29.871 17.6974 30.6827 18.4775 31.6816 18.4764H31.6822C32.681 18.4781 33.4921 17.698 33.4945 16.734V16.7334V8.29113V8.29351H33.4958ZM23.5381 1.7388C23.5381 0.780739 22.724 0.00238639 21.7258 0.00238639C20.7263 0.00238639 19.9122 0.778954 19.9122 1.7388V20.2009C19.914 21.1655 20.7257 21.9462 21.7252 21.9444C22.7246 21.9462 23.5363 21.1655 23.5381 20.2009V1.7388ZM13.5823 8.29351C13.5805 7.3283 12.7689 6.54816 11.7688 6.54935C10.7693 6.54816 9.95762 7.3283 9.95579 8.29351V16.7334C9.95762 17.6974 10.7687 18.4775 11.7675 18.4764H11.7682C12.7676 18.4781 13.5787 17.698 13.5811 16.734V16.7334V8.29113V8.29351H13.5823ZM3.62533 13.0838C3.62533 12.1264 2.81123 11.3486 1.81297 11.3486C0.814709 11.3486 0 12.1264 0 13.0826V16.7328C0.00182944 17.6974 0.813489 18.4781 1.81297 18.4764C2.81184 18.4781 3.62411 17.698 3.62594 16.7334V13.0832L3.62533 13.0838Z" fill="#050038"/>
<path d="M142.484 26.643C142.484 23.8039 140.6 22.1911 137.933 22.1911H136.301V31.098H137.887C140.366 31.098 142.484 29.7502 142.484 26.643ZM171.518 29.8476L159.493 39.316L148.504 30.6637C146.918 34.4732 143.086 37.1192 138.673 37.1192H129.267V16.1668H138.673C143.604 16.1668 147.157 19.3025 148.501 22.6433L159.493 14L163.565 17.2046L153.49 25.1231L155.426 26.6385L165.498 18.7245L169.576 21.9201L159.502 29.8476L161.436 31.366L171.518 23.437V16.1668H178.827V31.0036H186.118V37.1447H171.518V29.8476ZM195.377 31.0066H202.665V37.1447H188.06V16.1668H195.377V31.0066Z" fill="#050038"/>
<path d="M471.079 5C471.179 5.0335 471.246 5.1005 471.347 5.134C475.266 6.70854 479.219 8.31657 483.139 9.8911C483.407 9.9916 483.374 9.9581 483.374 10.2596C483.374 11.1306 483.374 11.9681 483.374 12.8392C483.374 12.9062 483.374 13.0067 483.374 13.1072C479.253 14.7822 475.132 16.4237 471.012 18.0988C471.012 16.7922 471.012 15.5192 471.012 14.2462C473.39 13.3752 475.769 12.4706 478.147 11.5996C478.147 11.5661 478.147 11.5661 478.147 11.5326C475.769 10.5946 473.39 9.69009 471.012 8.75207C471.012 7.51255 471.012 6.23952 471.012 5C471.045 5 471.079 5 471.079 5Z" fill="#050038"/>
<path d="M397.915 33.2746C397.949 33.1741 397.982 33.0401 398.016 32.9396C398.217 31.432 399.021 30.36 400.394 29.7235C401.198 29.3215 402.069 29.1205 402.974 29.02C403.677 28.9195 404.414 28.9195 405.118 28.9195C405.587 28.9195 406.089 28.9195 406.558 28.9195C406.592 28.886 406.592 28.886 406.592 28.8525C406.625 28.3835 406.625 27.881 406.525 27.4119C406.324 26.5074 405.788 26.0384 404.85 25.9044C404.515 25.8709 404.146 25.8709 403.811 25.9379C403.007 26.1389 402.538 26.6414 402.337 27.4454C402.304 27.5459 402.304 27.6129 402.27 27.7469C400.997 27.7469 399.724 27.7469 398.418 27.7469C398.384 27.5459 398.451 27.3449 398.485 27.1439C398.853 25.3349 399.925 24.1624 401.6 23.4924C402.605 23.0904 403.644 22.9899 404.716 22.9899C405.654 22.9899 406.558 23.0904 407.429 23.3919C407.965 23.5594 408.468 23.8274 408.937 24.1959C409.875 24.9329 410.377 25.8709 410.545 27.0099C410.612 27.4119 410.645 27.8139 410.645 28.2495C410.645 31.298 410.645 34.3801 410.645 37.4286C410.645 37.5291 410.645 37.6296 410.645 37.7636C409.305 37.7636 407.999 37.7636 406.692 37.7636C406.692 37.2276 406.692 36.7251 406.692 36.1891C406.625 36.2561 406.592 36.2896 406.558 36.3231C405.821 37.2946 404.816 37.8306 403.61 38.0316C403.342 38.0651 403.074 38.0986 402.806 38.1321C402.773 38.1321 402.706 38.1321 402.672 38.1321C402.572 38.1321 402.471 38.0986 402.371 38.0986C401.902 38.0651 401.466 37.9981 401.031 37.8976C399.356 37.3951 398.317 36.3231 398.083 34.5476C398.083 34.4471 398.016 34.3466 397.982 34.2461C397.915 33.8776 397.915 33.5761 397.915 33.2746ZM406.592 31.566C406.391 31.566 406.223 31.566 406.056 31.566C405.386 31.5995 404.682 31.5995 404.012 31.633C403.577 31.6665 403.141 31.767 402.739 32.0015C402.337 32.236 402.069 32.571 402.002 33.04C401.969 33.2411 401.969 33.4756 401.969 33.6766C402.002 34.4136 402.404 34.9496 403.141 35.1171C403.912 35.3181 404.682 35.2511 405.419 34.8826C406.056 34.5476 406.491 34.0116 406.558 33.2746C406.592 32.7385 406.592 32.169 406.592 31.566ZM449.875 38.0986C449.707 38.0986 449.573 38.0651 449.406 38.0651C448.434 37.9981 447.462 37.7971 446.558 37.3951C444.916 36.6246 443.878 35.3181 443.342 33.6096C443.107 32.8726 443.007 32.1355 442.973 31.365C442.906 30.1925 442.973 29.02 443.308 27.881C443.71 26.5074 444.414 25.3014 445.553 24.3969C446.491 23.6599 447.563 23.2244 448.736 23.0904C449.975 22.9229 451.181 22.9899 452.387 23.3919C454.498 24.0954 455.737 25.5694 456.24 27.7134C456.407 28.3835 456.441 29.087 456.474 29.7905C456.474 30.293 456.474 30.7955 456.474 31.3315C456.474 31.3985 456.474 31.4655 456.441 31.566C453.325 31.566 450.21 31.566 447.06 31.566C447.094 31.767 447.094 31.9345 447.094 32.0685C447.161 32.504 447.228 32.9395 447.395 33.3416C447.831 34.4471 448.635 35.0501 449.808 35.1171C450.21 35.1506 450.612 35.1171 451.014 34.9831C451.784 34.7486 452.32 34.2461 452.588 33.5091C452.622 33.4421 452.655 33.3416 452.689 33.2746C452.689 33.2746 452.689 33.2746 452.722 33.2411C453.928 33.2411 455.168 33.2411 456.407 33.2411C456.407 33.3416 456.374 33.4421 456.374 33.5091C455.938 35.5191 454.732 36.8256 452.823 37.5626C452.086 37.8641 451.282 37.9981 450.511 38.0317C450.377 38.0317 450.243 38.0651 450.109 38.0651C450.042 38.0986 449.942 38.0986 449.875 38.0986ZM447.127 28.819C447.462 28.886 452.354 28.8525 452.521 28.7855C452.488 28.149 452.387 27.5124 452.086 26.9429C451.784 26.3734 451.315 26.0049 450.679 25.8709C450.511 25.8374 450.344 25.8039 450.176 25.8039C449.439 25.7369 448.736 25.8709 448.166 26.4069C447.496 27.0769 447.261 27.948 447.127 28.819ZM516.775 38.0986C516.608 38.0986 516.44 38.0651 516.273 38.0651C515.335 37.9981 514.43 37.8306 513.559 37.4286C511.884 36.6581 510.812 35.3851 510.243 33.6431C509.807 32.3365 509.774 30.963 509.874 29.5895C509.941 28.618 510.142 27.6799 510.544 26.8089C511.516 24.6984 513.157 23.4589 515.435 23.0904C516.574 22.8894 517.713 22.9564 518.819 23.2244C521.097 23.8274 522.504 25.2679 523.073 27.5124C523.207 28.015 523.274 28.5175 523.308 29.0535C523.308 29.1205 523.341 29.221 523.341 29.288C523.341 30.025 523.341 30.762 523.341 31.499C523.241 31.499 523.107 31.499 523.006 31.499C520.092 31.499 517.211 31.499 514.296 31.499C514.196 31.499 514.095 31.499 513.928 31.499C513.961 31.767 513.961 31.968 513.995 32.2025C514.095 32.8055 514.229 33.3751 514.531 33.8776C514.832 34.3801 515.268 34.7486 515.837 34.9496C516.407 35.1171 516.976 35.1506 517.546 35.0501C518.517 34.8826 519.187 34.3466 519.489 33.4086C519.522 33.3416 519.522 33.2746 519.556 33.2411C519.924 33.1741 523.073 33.2076 523.241 33.2746C523.241 33.3416 523.241 33.4086 523.241 33.5091C523.241 33.5761 523.207 33.6096 523.207 33.6766C522.805 35.3516 521.8 36.5911 520.259 37.3616C519.355 37.7971 518.417 37.9981 517.445 38.0651C517.278 38.0651 517.11 38.0986 516.943 38.0986C516.909 38.0986 516.842 38.0986 516.775 38.0986ZM519.388 28.8525C519.355 28.1825 519.254 27.5459 518.953 26.9764C518.651 26.4404 518.182 26.0719 517.579 25.9379C517.412 25.9044 517.244 25.8709 517.077 25.8374C515.938 25.7369 515 26.1724 514.464 27.2444C514.229 27.7134 514.095 28.1825 514.028 28.685C514.028 28.7185 514.028 28.7855 514.028 28.819C515.837 28.8525 517.613 28.8525 519.388 28.8525ZM488.936 38.0986C488.836 38.0986 488.735 38.0651 488.635 38.0651C488.199 38.0317 487.764 37.9646 487.362 37.8306C485.955 37.3616 485.151 36.3566 484.749 34.9496C484.581 34.3801 484.514 33.8106 484.514 33.2076C484.514 29.9915 484.514 26.7754 484.514 23.5929C484.514 23.5259 484.514 23.4254 484.514 23.3249C485.888 23.3249 487.228 23.3249 488.568 23.3249C488.568 23.4254 488.568 23.5259 488.568 23.6264C488.568 26.5409 488.568 29.4555 488.568 32.37C488.568 32.7386 488.568 33.1071 488.668 33.4756C488.869 34.3131 489.439 34.8156 490.31 34.8826C490.678 34.9161 491.047 34.9161 491.415 34.8156C492.387 34.5476 492.956 33.9111 493.124 32.9396C493.157 32.7051 493.191 32.4705 493.191 32.2025C493.191 29.355 493.191 26.4739 493.191 23.6264C493.191 23.5259 493.191 23.4254 493.191 23.3249C493.392 23.2579 496.842 23.2579 497.211 23.2914C497.211 28.082 497.211 32.9061 497.211 37.6966C497.043 37.7636 493.593 37.7636 493.191 37.7301C493.191 37.3951 493.191 37.0601 493.191 36.7586C493.191 36.4236 493.191 36.1221 493.157 35.7871C493.124 35.8541 493.09 35.9211 493.057 35.9546C492.353 37.1271 491.281 37.7971 489.941 37.9982C489.74 38.0317 489.539 38.0317 489.305 38.0652C489.238 38.0652 489.171 38.0986 489.07 38.0986C489.037 38.0986 489.003 38.0986 488.936 38.0986ZM419.69 38.0986C419.523 38.0986 419.389 38.0651 419.221 38.0651C418.216 37.9981 417.245 37.7971 416.34 37.3281C414.766 36.5241 413.794 35.2176 413.292 33.5761C412.923 32.4035 412.856 31.164 412.923 29.9245C412.99 28.9865 413.124 28.0485 413.493 27.1774C414.431 24.8994 416.139 23.5594 418.551 23.1574C419.858 22.9229 421.164 23.0234 422.438 23.4589C424.381 24.1289 425.553 25.5024 426.022 27.4789C426.089 27.747 426.123 28.0485 426.156 28.3165C426.156 28.35 426.156 28.417 426.156 28.484C424.883 28.484 423.577 28.484 422.304 28.484C422.27 28.3835 422.237 28.2495 422.203 28.149C422.136 27.9145 422.069 27.7134 421.969 27.4789C421.533 26.5074 420.695 26.1054 419.657 26.1724C418.652 26.2729 417.982 26.7754 417.546 27.68C417.245 28.2495 417.111 28.886 417.077 29.5225C417.01 30.494 417.01 31.432 417.178 32.4035C417.245 32.8056 417.345 33.2076 417.546 33.5761C418.049 34.6816 419.02 35.1841 420.226 35.0836C421.332 34.9831 422.036 34.3131 422.404 33.3081C422.505 33.0401 422.572 32.772 422.639 32.504C423.845 32.504 425.051 32.504 426.29 32.504C426.324 32.7385 426.257 32.9396 426.223 33.1406C425.989 34.4806 425.453 35.6531 424.448 36.5576C423.644 37.2946 422.706 37.7301 421.633 37.9311C421.164 38.0317 420.662 38.0317 420.193 38.0986C420.126 38.0986 420.059 38.1321 419.958 38.1321C419.824 38.0986 419.757 38.0986 419.69 38.0986ZM434.732 38.0986C434.565 38.0986 434.431 38.0651 434.263 38.0651C433.191 37.9981 432.153 37.7636 431.215 37.2276C429.774 36.4571 428.87 35.2511 428.367 33.7101C428.099 32.906 427.965 32.102 427.932 31.2645C427.865 30.092 427.932 28.953 428.267 27.8475C428.736 26.2059 429.64 24.8659 431.148 23.9614C432.052 23.4254 433.024 23.1239 434.062 23.0234C435.235 22.9229 436.407 22.9899 437.513 23.3919C439.422 24.0619 440.595 25.4354 441.064 27.4119C441.131 27.6799 441.164 27.948 441.198 28.216C441.198 28.283 441.198 28.3165 441.198 28.3835C439.925 28.3835 438.652 28.3835 437.345 28.3835C437.312 28.283 437.278 28.1825 437.245 28.082C437.178 27.8475 437.111 27.6464 437.01 27.4119C436.575 26.4404 435.771 26.0049 434.699 26.1054C433.727 26.1724 433.024 26.6749 432.588 27.5459C432.287 28.149 432.119 28.7855 432.086 29.4555C432.019 30.427 432.019 31.365 432.186 32.3365C432.253 32.7385 432.387 33.1406 432.555 33.5426C433.091 34.6481 434.029 35.1171 435.201 35.0166C436.24 34.9161 436.943 34.3131 437.345 33.3751C437.479 33.0735 437.546 32.772 437.647 32.437C438.853 32.437 440.059 32.437 441.298 32.437C441.265 32.6715 441.265 32.8725 441.231 33.0735C440.997 34.4471 440.427 35.6531 439.355 36.5911C438.484 37.3281 437.479 37.7636 436.374 37.9646C435.972 38.0316 435.603 38.0316 435.201 38.0986C435.134 38.0986 435.067 38.1321 434.967 38.1321C434.866 38.0986 434.799 38.0986 434.732 38.0986ZM458.953 23.3249C460.293 23.3249 461.633 23.3249 462.973 23.3249C462.973 23.9949 462.973 24.6649 462.973 25.3349H463.007C463.04 25.2679 463.107 25.2009 463.141 25.1339C463.911 23.9279 465.05 23.2914 466.424 23.0569C467.127 22.9564 467.831 22.9564 468.534 23.1239C469.908 23.4254 470.812 24.2629 471.281 25.5694C471.549 26.3399 471.683 27.1104 471.683 27.9145C471.683 31.097 471.683 34.3131 471.683 37.4956C471.683 37.5626 471.683 37.6296 471.683 37.7301C470.343 37.7301 469.003 37.7301 467.663 37.7301C467.663 37.6296 467.663 37.5291 467.663 37.4286C467.663 34.5476 467.663 31.633 467.663 28.752C467.663 28.4505 467.63 28.1825 467.596 27.881C467.462 26.9429 466.926 26.4404 465.988 26.3064C465.553 26.2394 465.117 26.2729 464.682 26.3734C463.777 26.6414 463.241 27.2779 463.04 28.1825C462.973 28.4505 462.973 28.7185 462.973 29.02C462.973 31.834 462.973 34.6146 462.973 37.4286C462.973 37.5291 462.973 37.6296 462.973 37.7301C462.772 37.7971 459.255 37.7971 458.953 37.7636C458.953 32.9396 458.953 28.149 458.953 23.3249ZM475.201 26.3064C474.632 26.3064 474.096 26.3064 473.526 26.3064C473.526 25.3014 473.526 24.3299 473.526 23.2914C474.062 23.2914 474.632 23.2914 475.168 23.2914C475.168 22.3868 475.168 21.4823 475.168 20.5778C476.508 20.0418 477.848 19.4723 479.221 18.9363C479.288 19.0368 479.255 19.1373 479.255 19.2378C479.255 20.4773 479.255 21.7168 479.255 22.9899C479.255 23.0904 479.255 23.1909 479.255 23.3249C480.193 23.3249 481.064 23.3249 481.968 23.3249C482.035 23.5259 482.035 25.9379 482.002 26.3399C481.097 26.3399 480.193 26.3399 479.255 26.3399C479.255 26.4739 479.255 26.5409 479.255 26.6414C479.255 28.819 479.255 30.9965 479.255 33.1741C479.255 33.3751 479.288 33.6096 479.322 33.8106C479.456 34.4136 479.858 34.7486 480.494 34.7821C480.997 34.8156 481.466 34.7821 481.968 34.6146C482.002 34.6146 482.035 34.5811 482.102 34.5811C482.102 35.6196 482.102 36.6581 482.102 37.7301C481.968 37.7636 481.834 37.7971 481.667 37.8306C480.427 38.0987 479.188 38.1322 477.982 37.7971C477.044 37.5626 476.307 37.0936 475.804 36.2226C475.469 35.6531 475.302 35.0501 475.268 34.4136C475.235 34.0786 475.235 33.7101 475.235 33.3751C475.235 31.164 475.235 28.9195 475.235 26.7084C475.201 26.5409 475.201 26.4404 475.201 26.3064ZM504.28 25.8374C505.117 23.9949 506.524 23.0904 508.568 23.1239C508.568 24.4639 508.568 25.7704 508.568 27.0769C508.467 27.0769 508.333 27.1104 508.233 27.1104C507.596 27.1104 506.96 27.1774 506.357 27.3784C506.189 27.4454 505.988 27.5125 505.821 27.5794C504.95 27.9815 504.447 28.685 504.313 29.623C504.28 29.9245 504.246 30.226 504.246 30.5275C504.246 32.839 504.246 35.1506 504.246 37.4621C504.246 37.5626 504.246 37.6631 504.246 37.7636C502.906 37.7636 501.566 37.7636 500.226 37.7636C500.226 32.9396 500.226 28.149 500.226 23.3249C501.566 23.3249 502.906 23.3249 504.246 23.3249C504.246 24.1624 504.246 24.9999 504.246 25.8039C504.246 25.8039 504.28 25.8039 504.28 25.8374Z" fill="#050038"/>
<path d="M641.567 27.5337H636.445V26.0899C636.445 25.1413 636.719 24.3613 637.236 23.8449C637.689 23.3918 638.321 23.1388 638.996 23.1388C640.64 23.1493 641.557 24.1928 641.557 26.0899C641.567 26.0899 641.567 27.1859 641.567 27.5337ZM643.443 23.6974C642.347 22.7278 640.819 22.2219 639.027 22.2219C637.425 22.2219 635.834 22.9491 634.654 24.2349C633.389 25.5944 632.693 27.4705 632.683 29.494C632.683 31.486 633.399 33.3093 634.717 34.6266C635.971 35.8914 637.647 36.5764 639.438 36.5764C642.885 36.5659 644.824 34.0153 645.161 31.6546L645.182 31.5281H644.118L644.107 31.6229C643.865 33.5411 642.231 35.5857 639.681 35.5752C637.647 35.5752 636.477 34.184 636.466 31.76V28.5454H645.393V28.4296C645.319 26.3639 644.666 24.7724 643.443 23.6974ZM615.472 33.4673H614.471L614.45 33.5517C614.334 34.184 613.933 35.2485 612.647 35.2379C611.646 35.2379 611.13 34.5318 611.13 33.1511V23.5288H614.429V22.5907H611.151V18.4277L611.035 18.4383C610.265 18.5226 608.695 18.6385 607.873 18.6385H607.768V22.5907H605.586V23.5393H607.778V31.918C607.778 35.0061 609.106 36.5659 611.709 36.5659C614.703 36.5659 615.324 34.2894 615.451 33.5938L615.472 33.4673ZM578.131 18.9231L581.293 27.9552H575.18L578.131 18.9231ZM603.594 35.2485V26.7327C603.594 25.4153 603.173 24.2876 602.361 23.476C601.549 22.6645 600.38 22.2219 599.073 22.2219C597.281 22.2219 595.848 22.9386 594.794 24.3403L594.762 22.7067V22.6013H589.398V23.5288H591.506V35.2485H587.743L580.018 13.0738L579.997 13H579.048L571.47 35.2485H569.341V36.1759H575.654V35.2485H572.746L574.843 28.9143H581.599L583.728 35.2485H580.787V36.1759H596.902V35.2485H594.794V28.7457C594.804 24.8673 596.87 23.455 598.261 23.455C599.61 23.455 600.295 24.3297 600.295 26.0477V35.2485H598.324V36.1759H605.734V35.2485H603.594Z" fill="#050038"/>
<path d="M630.08 35.2485V26.5957C630.08 24.5722 628.847 22.2219 625.4 22.2219C622.724 22.2219 621.332 23.5183 620.742 24.1927V13.0632H615.367V14.0329H617.38V35.2485H615.209V36.176H622.818V35.2485H620.742V28.6615C620.742 26.3849 621.522 25.1307 622.175 24.4773C622.808 23.845 623.619 23.4972 624.452 23.4972C626.296 23.4972 626.686 25.0149 626.697 26.2901V35.2485H624.621V36.176H632.23V35.2485H630.08ZM670.34 35.2485H668.274V26.0687C668.274 23.6869 666.641 22.2114 664.027 22.2114C661.55 22.2114 660.201 23.4445 659.579 24.2665C658.894 22.9175 657.556 22.2008 655.711 22.2114C653.941 22.2114 652.36 22.8648 651.306 24.0031L651.274 22.6962V22.5908H645.805V23.5183H648.039V35.238H645.836V36.1654H653.277V35.238H651.38V28.7668C651.443 26.8802 651.527 25.6682 652.202 24.7408C652.782 23.9714 653.709 23.4867 654.615 23.4867C655.733 23.4867 656.133 24.3298 656.175 24.4247C656.46 24.9621 656.46 25.8896 656.46 26.7855V35.238H654.478V36.1654H661.771V35.238H659.864V28.7668C659.927 26.8802 660.011 25.6682 660.686 24.7408C661.266 23.9714 662.193 23.4867 663.099 23.4867C664.217 23.4867 664.617 24.3298 664.66 24.4247C664.944 24.9621 664.944 25.8896 664.944 26.7855V35.238H662.973V36.1654H670.446V35.238H670.34V35.2485ZM672.954 34.2789C673.228 34.2789 673.618 34.3211 673.618 33.9522C673.618 33.6781 673.386 33.636 673.143 33.636H672.595V34.2789H672.954ZM672.606 35.396H672.353V33.4041H673.207C673.723 33.4041 673.902 33.5938 673.902 33.9522C673.902 34.3316 673.628 34.4791 673.291 34.5107L673.881 35.396H673.597L673.038 34.5107H672.617V35.396H672.606ZM674.46 34.4053C674.46 33.5622 673.85 32.9509 673.006 32.9509C672.152 32.9509 671.542 33.5622 671.542 34.4053C671.542 35.2591 672.152 35.8703 673.006 35.8703C673.85 35.8703 674.46 35.2591 674.46 34.4053ZM671.257 34.4053C671.257 33.4568 672.037 32.6663 673.006 32.6663C673.966 32.6663 674.745 33.4463 674.745 34.4053C674.745 35.3644 673.966 36.1549 673.006 36.1549C672.037 36.1549 671.257 35.3749 671.257 34.4053Z" fill="#050038"/>
<path d="M281.788 10.9394H250.874V5.20824H281.788V10.9394ZM283.997 3H248.665V13.1465H283.997V3Z" fill="#050038"/>
<path d="M250.874 29.9165H248.665V19.77H250.874V23.7796H254.819V19.77H257.028V29.9165H254.819V25.7116H250.874V29.9165Z" fill="#050038"/>
<path d="M260.372 25.468H263.003C262.954 24.7218 262.646 24.2017 261.785 24.2017C261.135 24.2017 260.567 24.4782 260.372 25.468ZM262.045 30.0789C259.804 30.0789 258.278 28.6663 258.278 26.3458C258.278 24.0883 259.772 22.53 261.753 22.53C263.912 22.53 264.984 23.9749 264.984 26.1344V26.9464H260.372C260.633 28.0657 261.509 28.3576 262.386 28.3576C263.149 28.3576 263.701 28.1959 264.383 27.7731H264.465V29.4454C263.88 29.8682 263.051 30.0789 262.045 30.0789Z" fill="#050038"/>
<path d="M270.748 25.6633L269.612 29.9165H267.68L265.471 22.773V22.6918H267.582L268.784 26.9618L269.92 22.6918H271.642L272.795 26.9618L274.013 22.6918H276.043V22.773L273.834 29.9165H271.901L270.748 25.6633Z" fill="#050038"/>
<path d="M279.631 30.0789C277.877 30.0789 277.162 29.381 277.162 27.7416V19.7706H279.306V27.5953C279.306 28.0986 279.5 28.2771 279.922 28.2771C280.069 28.2771 280.28 28.2288 280.41 28.1798H280.443V29.9494C280.264 30.0138 279.955 30.0789 279.631 30.0789Z" fill="#050038"/>
<path d="M283.138 25.468H285.768C285.719 24.7218 285.411 24.2017 284.55 24.2017C283.902 24.2017 283.332 24.4782 283.138 25.468ZM284.81 30.0789C282.569 30.0789 281.043 28.6663 281.043 26.3458C281.043 24.0883 282.537 22.53 284.518 22.53C286.678 22.53 287.749 23.9749 287.749 26.1344V26.9464H283.138C283.398 28.0657 284.275 28.3576 285.151 28.3576C285.915 28.3576 286.466 28.1959 287.149 27.7731H287.23V29.4454C286.646 29.8682 285.817 30.0789 284.81 30.0789Z" fill="#050038"/>
<path d="M296.548 22.6918H298.139V24.4124H296.548V27.351C296.548 27.9845 296.792 28.2771 297.441 28.2771C297.62 28.2771 297.847 28.2603 298.091 28.1791H298.139V29.8675C297.863 29.9655 297.441 30.0782 296.825 30.0782C295.086 30.0782 294.405 29.283 294.405 27.4483V24.4124H291.661V27.351C291.661 27.9845 291.904 28.2771 292.553 28.2771C292.732 28.2771 292.96 28.2603 293.203 28.1791H293.252V29.8675C292.976 29.9655 292.553 30.0782 291.937 30.0782C290.199 30.0782 289.517 29.283 289.517 27.4483V24.4124H288.413V22.6918H289.517V20.7115H291.661V22.6918H294.405V20.7115H296.548V22.6918Z" fill="#050038"/>
<path d="M305.362 24.754C306.483 24.754 307.018 24.1212 307.018 23.2119C307.018 22.2697 306.483 21.6369 305.362 21.6369H303.965V24.754H305.362ZM309.259 23.2119C309.259 25.4204 307.782 26.6209 305.54 26.6209H303.965V29.9165H301.758V19.77H305.54C307.782 19.77 309.259 20.9712 309.259 23.2119Z" fill="#050038"/>
<path d="M313.968 27.6435V27.0268C313.643 26.849 313.222 26.7839 312.783 26.7839C312.085 26.7839 311.663 27.0429 311.663 27.6274C311.663 28.2287 312.085 28.4884 312.718 28.4884C313.318 28.4884 313.773 28.1797 313.968 27.6435ZM314.033 29.2024C313.562 29.7708 312.865 30.0466 312.117 30.0466C310.705 30.0466 309.551 29.187 309.551 27.6596C309.551 26.2477 310.705 25.3062 312.36 25.3062C312.88 25.3062 313.416 25.3874 313.968 25.5491V25.4203C313.968 24.6405 313.53 24.3003 312.378 24.3003C311.646 24.3003 310.948 24.5103 310.347 24.8519H310.266V23.1306C310.818 22.8065 311.793 22.53 312.75 22.53C314.926 22.53 316.111 23.5688 316.111 25.3874V29.9164H314.033V29.2024Z" fill="#050038"/>
<path d="M317.2 26.3129C317.2 23.991 318.841 22.53 320.985 22.53C321.748 22.53 322.462 22.6924 322.998 23.0816V24.9164H322.916C322.445 24.5594 321.893 24.348 321.26 24.348C320.189 24.348 319.377 25.0795 319.377 26.3129C319.377 27.5463 320.189 28.261 321.26 28.261C321.893 28.261 322.445 28.0496 322.916 27.6919H322.998V29.5266C322.462 29.9165 321.748 30.0789 320.985 30.0789C318.841 30.0789 317.2 28.6348 317.2 26.3129Z" fill="#050038"/>
<path d="M326.487 26.6377V29.9165H324.344V19.77H326.487V25.5492L328.647 22.6918H331.082V22.773L328.485 26.0525L331.082 29.8353V29.9165H328.63L326.487 26.6377Z" fill="#050038"/>
<path d="M335.888 27.6435V27.0268C335.564 26.849 335.142 26.7839 334.703 26.7839C334.005 26.7839 333.583 27.0429 333.583 27.6274C333.583 28.2287 334.005 28.4884 334.638 28.4884C335.24 28.4884 335.694 28.1797 335.888 27.6435ZM335.954 29.2024C335.482 29.7708 334.784 30.0466 334.038 30.0466C332.624 30.0466 331.472 29.187 331.472 27.6596C331.472 26.2477 332.624 25.3062 334.282 25.3062C334.801 25.3062 335.336 25.3874 335.888 25.5491V25.4203C335.888 24.6405 335.45 24.3003 334.297 24.3003C333.567 24.3003 332.868 24.5103 332.267 24.8519H332.186V23.1306C332.738 22.8065 333.713 22.53 334.67 22.53C336.848 22.53 338.032 23.5688 338.032 25.3874V29.9164H335.954V29.2024Z" fill="#050038"/>
<path d="M341.637 23.8608C342.027 23.0649 342.595 22.6106 343.392 22.6106C343.684 22.6106 343.975 22.6757 344.088 22.7408V24.7862H344.008C343.764 24.6882 343.472 24.6238 343.066 24.6238C342.4 24.6238 341.881 25.0137 341.702 25.7599V29.9165H339.559V22.6918H341.637V23.8608Z" fill="#050038"/>
<path d="M349.772 27.4651V25.1432C349.415 24.6238 348.944 24.397 348.407 24.397C347.466 24.397 346.833 25.0795 346.833 26.3129C346.833 27.5463 347.466 28.212 348.407 28.212C348.944 28.212 349.415 27.9845 349.772 27.4651ZM349.836 29.1703C349.382 29.7548 348.667 30.0789 347.693 30.0789C345.842 30.0789 344.657 28.3912 344.657 26.3129C344.657 24.2346 345.842 22.53 347.693 22.53C348.635 22.53 349.317 22.8226 349.772 23.3582V19.7706H351.915V29.9165H349.836V29.1703Z" fill="#050038"/>
<path d="M248.665 33.2302H254.933V34.4636H250.078V37.5639H254.478V38.7658H250.078V42.1426H254.933V43.376H248.665V33.2302Z" fill="#050038"/>
<path d="M260.113 36.0869C261.72 36.0869 262.613 37.1425 262.613 38.8785V43.376H261.266V38.9114C261.266 37.986 260.795 37.3203 259.772 37.3203C258.928 37.3203 258.213 37.8565 257.97 38.6188V43.376H256.622V36.2332H257.97V37.272C258.392 36.6063 259.106 36.0869 260.113 36.0869Z" fill="#050038"/>
<path d="M266.234 36.2333H268.069V37.3862H266.234V41.2334C266.234 42.0447 266.657 42.3212 267.42 42.3212C267.63 42.3212 267.858 42.289 268.02 42.2239H268.069V43.3761C267.875 43.4573 267.598 43.5224 267.225 43.5224C265.552 43.5224 264.887 42.7587 264.887 41.3636V37.3862H263.653V36.2333H264.887V34.3349H266.234V36.2333Z" fill="#050038"/>
<path d="M270.325 39.1061H273.881C273.833 38.0512 273.313 37.2399 272.209 37.2399C271.186 37.2399 270.52 38.0029 270.325 39.1061ZM272.452 43.5224C270.357 43.5224 268.928 42.1259 268.928 39.8859C268.928 37.6452 270.26 36.087 272.193 36.087C274.157 36.087 275.18 37.4996 275.18 39.5933V40.2107H270.276C270.422 41.6555 271.348 42.3534 272.631 42.3534C273.427 42.3534 273.994 42.1749 274.628 41.7038H274.677V42.8896C274.092 43.3439 273.329 43.5224 272.452 43.5224Z" fill="#050038"/>
<path d="M278.12 37.3371C278.429 36.5741 279.111 36.1198 279.89 36.1198C280.199 36.1198 280.475 36.1681 280.588 36.2332V37.5639H280.54C280.345 37.4673 280.02 37.4183 279.695 37.4183C278.965 37.4183 278.348 37.9048 278.12 38.7168V43.376H276.773V36.2332H278.12V37.3371Z" fill="#050038"/>
<path d="M284.939 42.3043C286.27 42.3043 287.05 41.2494 287.05 39.8039C287.05 38.3759 286.27 37.3049 284.939 37.3049C284.208 37.3049 283.526 37.7431 283.169 38.4403V41.185C283.526 41.8822 284.208 42.3043 284.939 42.3043ZM285.166 36.0869C287.293 36.0869 288.43 37.8243 288.43 39.8039C288.43 41.7856 287.293 43.5223 285.166 43.5223C284.289 43.5223 283.542 43.068 283.169 42.5801V46.12H281.821V36.2332H283.169V37.0445C283.542 36.5412 284.289 36.0869 285.166 36.0869Z" fill="#050038"/>
<path d="M291.37 37.3371C291.678 36.5741 292.36 36.1198 293.14 36.1198C293.448 36.1198 293.724 36.1681 293.837 36.2332V37.5639H293.789C293.595 37.4673 293.27 37.4183 292.945 37.4183C292.214 37.4183 291.597 37.9048 291.37 38.7168V43.376H290.022V36.2332H291.37V37.3371Z" fill="#050038"/>
<path d="M295.787 33.3438C296.258 33.3438 296.647 33.7168 296.647 34.1879C296.647 34.659 296.258 35.0322 295.787 35.0322C295.332 35.0322 294.926 34.659 294.926 34.1879C294.926 33.7168 295.332 33.3438 295.787 33.3438Z" fill="#050038"/>
<path d="M295.12 43.3761H296.469V36.2333H295.12V43.3761Z" fill="#050038"/>
<path d="M301.274 39.2041C302.297 39.5282 303.433 39.9503 303.433 41.3139C303.433 42.7755 302.232 43.5224 300.69 43.5224C299.748 43.5224 298.806 43.2949 298.27 42.8728V41.5904H298.335C298.936 42.142 299.829 42.3856 300.673 42.3856C301.436 42.3856 302.119 42.093 302.119 41.4763C302.119 40.8435 301.551 40.6972 300.43 40.3241C299.423 39.9993 298.303 39.6255 298.303 38.2787C298.303 36.8983 299.439 36.087 300.885 36.087C301.729 36.087 302.476 36.2655 303.076 36.6715V37.9707H303.028C302.444 37.4996 301.761 37.2231 300.917 37.2231C300.073 37.2231 299.601 37.5969 299.601 38.1002C299.601 38.6686 300.121 38.8303 301.274 39.2041Z" fill="#050038"/>
<path d="M305.998 39.1061H309.554C309.505 38.0512 308.986 37.2399 307.881 37.2399C306.859 37.2399 306.193 38.0029 305.998 39.1061ZM308.125 43.5224C306.031 43.5224 304.602 42.1259 304.602 39.8859C304.602 37.6452 305.933 36.087 307.865 36.087C309.831 36.087 310.853 37.4996 310.853 39.5933V40.2107H305.949C306.096 41.6555 307.021 42.3534 308.303 42.3534C309.1 42.3534 309.668 42.1749 310.301 41.7038H310.35V42.8896C309.766 43.3439 309.002 43.5224 308.125 43.5224Z" fill="#050038"/>
</svg>

