<svg width="352" height="114" viewBox="0 0 352 114" fill="none" xmlns="http://www.w3.org/2000/svg">
<path fill-rule="evenodd" clip-rule="evenodd" d="M24.3424 46.0982V32.0628H28.1057V46.0982H24.3424ZM41.4819 35.4624C41.4282 35.4469 39.8909 35.0387 38.6274 35.0387C37.1644 35.0387 36.3686 35.5094 36.3686 36.1771C36.3686 37.0239 37.4431 37.3196 38.0432 37.5023L39.05 37.8106C41.4203 38.5348 42.4991 40.0938 42.4991 41.7874C42.4991 45.2799 39.3043 46.4546 36.5089 46.4546C34.5673 46.4546 32.7482 46.11 32.5689 46.0743V42.8734C32.8909 42.9514 34.4209 43.3905 36.0174 43.3905C37.8334 43.3905 38.6688 42.8806 38.6688 42.0933C38.6688 41.3881 37.945 40.9811 37.04 40.7091C36.8199 40.6365 36.4869 40.536 36.2601 40.4664C34.2276 39.8481 32.5317 38.6984 32.5317 36.3985C32.5317 33.7974 34.5581 32.0521 37.9243 32.0521C39.7013 32.0521 41.3734 32.4668 41.4813 32.4942V35.4618L41.4819 35.4624ZM76.2058 39.2524C76.2058 43.2311 73.0116 46.4534 68.5612 46.4534C64.1108 46.4534 60.9203 43.2311 60.9203 39.2512C60.9203 35.2809 64.112 32.055 68.5612 32.055C73.011 32.055 76.2058 35.2809 76.2058 39.2524ZM68.5612 35.5963C66.3952 35.5963 64.7859 37.2345 64.7859 39.2524C64.7859 41.2763 66.3952 42.9115 68.5612 42.9115C70.7242 42.9115 72.3378 41.2763 72.3378 39.2524C72.3378 37.2345 70.7242 35.5963 68.5612 35.5963ZM18.9664 36.2866C18.8195 36.2128 17.6462 35.5451 15.8991 35.5451C13.5354 35.5451 11.8981 37.1233 11.8981 39.253C11.8981 41.3191 13.4671 42.9639 15.9009 42.9639C17.6163 42.9639 18.8097 42.3087 18.9664 42.2266V45.9583C18.5133 46.0814 17.2669 46.4534 15.6363 46.4534C11.5347 46.4534 7.93311 43.7327 7.93311 39.2512C7.93311 35.1012 11.1938 32.055 15.6375 32.055C17.3553 32.055 18.6231 32.4549 18.9664 32.5537V36.2866ZM57.0754 36.2866C56.926 36.2128 55.7503 35.5451 54.0056 35.5451C51.6432 35.5451 50.0065 37.1233 50.0065 39.253C50.0065 41.3191 51.5725 42.9639 54.0044 42.9639C55.7204 42.9639 56.915 42.3087 57.0754 42.2266V45.9583C56.6181 46.0814 55.3692 46.4534 53.7489 46.4534C49.6418 46.4534 46.0372 43.7327 46.0372 39.2512C46.0372 35.1012 49.2991 32.055 53.7489 32.055C55.4606 32.055 56.7303 32.4549 57.0754 32.5537V36.2866Z" fill="#050038"/>
<path fill-rule="evenodd" clip-rule="evenodd" d="M83.2674 13.0832C83.2656 12.121 82.4551 11.3421 81.4587 11.3432C80.461 11.3421 79.6512 12.121 79.6494 13.0838V16.7334C79.6329 17.366 79.9744 17.9575 80.5403 18.2776C81.1068 18.5989 81.8087 18.5989 82.3758 18.2776C82.9424 17.9563 83.2826 17.3648 83.2662 16.7334V13.0832H83.2674ZM73.325 8.29351C73.325 7.33485 72.5176 6.55411 71.4956 6.55411C70.4998 6.55233 69.6911 7.33009 69.6893 8.29113V8.29232V16.734C69.6893 17.695 70.4961 18.474 71.4919 18.474H71.4956C72.5164 18.474 73.325 17.6962 73.325 16.7328V8.29053V8.29291V8.29351ZM63.3637 1.7388C63.3625 0.777168 62.5539 -0.00118402 61.5581 3.05658e-06H61.5569C60.561 -0.00177909 59.7518 0.775978 59.75 1.73761V1.73821V20.2009C59.7195 20.8412 60.0567 21.4464 60.6281 21.7736C61.2007 22.1015 61.9136 22.1003 62.485 21.7707C63.0546 21.444 63.3924 20.8412 63.3631 20.2021V1.7388H63.3637ZM53.4 8.29351C53.3988 7.33247 52.5896 6.55411 51.5944 6.5553C50.5979 6.55352 49.7893 7.33187 49.7869 8.29291V8.29351V16.7334C49.7887 17.6944 50.5973 18.4728 51.5938 18.471H51.5944C52.5896 18.4728 53.3988 17.6944 53.4 16.7334V8.29113V8.29351ZM43.44 13.0832C43.4375 12.124 42.6307 11.348 41.6367 11.3492C40.6421 11.3468 39.8329 12.1216 39.8268 13.082V16.734C39.828 17.695 40.6367 18.4734 41.6331 18.4716C42.6289 18.474 43.4381 17.6956 43.44 16.7346V16.734V13.0838V13.0832ZM33.4958 8.29351C33.4939 7.3283 32.6823 6.54816 31.6828 6.54935C30.6833 6.54816 29.871 7.3283 29.8698 8.29351V16.7334C29.871 17.6974 30.6827 18.4775 31.6816 18.4764H31.6822C32.681 18.4781 33.4921 17.698 33.4945 16.734V16.7334V8.29113V8.29351H33.4958ZM23.5381 1.7388C23.5381 0.780739 22.724 0.00238639 21.7258 0.00238639C20.7263 0.00238639 19.9122 0.778954 19.9122 1.7388V20.2009C19.914 21.1655 20.7257 21.9462 21.7252 21.9444C22.7246 21.9462 23.5363 21.1655 23.5381 20.2009V1.7388ZM13.5823 8.29351C13.5805 7.3283 12.7689 6.54816 11.7688 6.54935C10.7693 6.54816 9.95762 7.3283 9.95579 8.29351V16.7334C9.95762 17.6974 10.7687 18.4775 11.7675 18.4764H11.7682C12.7676 18.4781 13.5787 17.698 13.5811 16.734V16.7334V8.29113V8.29351H13.5823ZM3.62533 13.0838C3.62533 12.1264 2.81123 11.3486 1.81297 11.3486C0.814709 11.3486 0 12.1264 0 13.0826V16.7328C0.00182944 17.6974 0.813489 18.4781 1.81297 18.4764C2.81184 18.4781 3.62411 17.698 3.62594 16.7334V13.0832L3.62533 13.0838Z" fill="#050038"/>
<path d="M142.484 26.643C142.484 23.8038 140.6 22.1911 137.933 22.1911H136.301V31.0979H137.887C140.366 31.0979 142.484 29.7502 142.484 26.643ZM171.518 29.8475L159.493 39.3159L148.504 30.6637C146.918 34.4732 143.086 37.1192 138.673 37.1192H129.267V16.1668H138.673C143.604 16.1668 147.157 19.3025 148.501 22.6433L159.493 14L163.565 17.2045L153.49 25.1231L155.426 26.6385L165.498 18.7245L169.576 21.92L159.502 29.8475L161.436 31.366L171.518 23.437V16.1668H178.827V31.0036H186.118V37.1446H171.518V29.8475ZM195.377 31.0066H202.665V37.1446H188.06V16.1668H195.377V31.0066Z" fill="#050038"/>
<path d="M20.0771 101.916C20.0771 98.2245 20.0828 94.5299 20.0686 90.841C20.0686 90.3278 20.4078 90.0086 20.921 90.0086C21.8703 90.0029 22.8253 90 23.7746 90.0086C24.3134 90.0143 24.627 90.3421 24.6213 90.8467C24.607 94.1137 24.6127 97.3863 24.6127 100.653V100.833C24.6184 101.195 24.7781 101.46 25.1116 101.603C25.4337 101.739 25.7359 101.668 25.9982 101.389C26.956 100.363 27.911 99.3334 28.8632 98.3043C29.4476 97.6714 30.0406 97.0471 30.6193 96.4114C30.8388 96.1719 31.0925 96.0579 31.4203 96.0636C32.6148 96.0721 33.815 96.0721 35.0094 96.0636C35.3629 96.0636 35.6423 96.1719 35.7906 96.4997C35.9416 96.839 35.8704 97.1412 35.6167 97.4177C33.8235 99.4018 32.0361 101.389 30.2458 103.373C30.1033 103.533 29.9636 103.698 29.8524 103.88C29.6529 104.203 29.6529 104.519 29.8382 104.847C30.0377 105.2 30.3199 105.485 30.5993 105.773C32.7687 108.003 34.9439 110.232 37.119 112.456C37.3813 112.726 37.4582 113.023 37.3271 113.371C37.2017 113.696 36.9537 113.844 36.546 113.844C35.2175 113.844 33.8862 113.838 32.5578 113.844C32.2585 113.844 32.0275 113.75 31.8137 113.522C29.8838 111.495 27.9395 109.479 26.001 107.461C25.7245 107.17 25.4166 107.096 25.0973 107.23C24.7752 107.358 24.607 107.632 24.607 108.028V112.997C24.607 113.533 24.3362 113.81 23.8059 113.812H20.8868C20.3024 113.812 20.0743 113.581 20.0743 113.006L20.0771 101.916ZM38.1909 98.2016C38.1909 95.7585 38.1994 93.3126 38.1823 90.8695C38.1766 90.3164 38.4988 90 39.0604 90C39.984 90.0057 40.902 90 41.8228 90C42.3616 90 42.6694 90.3022 42.6694 90.8381C42.6751 92.2635 42.6751 93.6917 42.678 95.1171C42.678 95.7329 42.9944 96.0522 43.6045 96.0522H47.4388C47.8436 96.0522 48.1087 96.2717 48.1885 96.6679C48.2284 96.8589 48.2142 97.0499 48.2199 97.2466V99.6099C48.2199 100.228 47.9434 100.505 47.3247 100.505C46.0989 100.505 44.8731 100.499 43.6473 100.499C43.0201 100.499 42.6979 100.816 42.6922 101.434C42.6865 102.692 42.6666 103.943 42.6837 105.2C42.7094 107.116 44.1775 108.881 46.0847 109.331C46.6463 109.465 47.2164 109.488 47.7866 109.408C48.2512 109.342 48.5876 109.59 48.6418 110.058C48.7587 111.053 48.8641 112.051 48.9668 113.046C49.0067 113.425 48.7302 113.773 48.3396 113.835C47.2877 114.015 46.2357 113.952 45.2009 113.718C41.5063 112.892 38.7924 109.938 38.2622 106.195C38.208 105.825 38.1909 105.454 38.1909 105.086V98.2016ZM70.9946 109.875C70.9946 109.536 70.7352 109.3 70.396 109.283C70.165 109.274 69.937 109.265 69.7061 109.245C68.5259 109.157 67.9186 108.604 67.7048 107.441C67.5395 106.554 67.5452 105.654 67.5395 104.753C67.5309 102.167 67.5338 99.5814 67.5338 96.9958C67.5338 96.9188 67.5338 96.8475 67.5281 96.7734C67.4967 96.3544 67.1945 96.055 66.7698 96.055C65.7749 96.0493 64.7771 96.0493 63.7822 96.055C63.3318 96.055 63.0125 96.3772 62.9925 96.8219C62.9868 96.9302 62.9925 97.0414 62.9925 97.1697C62.907 97.1241 62.8414 97.0927 62.7787 97.0613C60.9827 96.1177 59.0784 95.8127 57.0772 96.1462C51.9829 97.0015 48.6617 102.104 49.9275 107.11C51.5353 113.462 59.1497 115.99 64.244 111.857C64.3637 111.76 64.4122 111.763 64.5063 111.894C65.0308 112.644 65.7236 113.185 66.5845 113.513C67.5338 113.875 68.523 113.924 69.5265 113.852C69.8828 113.827 70.2363 113.775 70.5613 113.613C70.7922 113.496 70.9804 113.322 70.9861 113.057C71.006 111.997 71.0003 110.936 70.9946 109.875ZM58.5995 109.417C56.1222 109.408 54.1523 107.392 54.1609 104.867C54.1694 102.478 56.1935 100.494 58.6223 100.499C61.1139 100.505 63.0809 102.506 63.0752 105.038C63.0667 107.424 61.0284 109.419 58.5995 109.417ZM8.95061 96.018C4.21835 96.0265 0.107548 99.6812 0.00207018 104.758C-0.106259 110.01 4.053 113.767 8.6969 113.884C13.6629 114.009 17.7766 110.089 17.8621 105.138C17.9448 100.097 13.9965 96.075 8.95061 96.018ZM8.91926 109.417C6.47615 109.417 4.47207 107.41 4.46636 104.958C4.46066 102.503 6.4619 100.499 8.92781 100.491C11.388 100.485 13.3807 102.484 13.3807 104.952C13.3807 107.421 11.388 109.417 8.91926 109.417Z" fill="#050038"/>
<path d="M186.226 103.534H181.104V102.09C181.104 101.141 181.378 100.361 181.894 99.8449C182.347 99.3918 182.98 99.1388 183.654 99.1388C185.298 99.1493 186.215 100.193 186.215 102.09C186.226 102.09 186.226 103.186 186.226 103.534ZM188.102 99.6974C187.006 98.7278 185.478 98.2219 183.686 98.2219C182.084 98.2219 180.492 98.9491 179.312 100.235C178.047 101.594 177.352 103.47 177.341 105.494C177.341 107.486 178.058 109.309 179.375 110.627C180.629 111.891 182.305 112.576 184.097 112.576C187.543 112.566 189.482 110.015 189.82 107.655L189.841 107.528H188.776L188.766 107.623C188.523 109.541 186.89 111.586 184.339 111.575C182.305 111.575 181.135 110.184 181.125 107.76V104.545H190.052V104.43C189.978 102.364 189.324 100.772 188.102 99.6974ZM160.131 109.467H159.129L159.108 109.552C158.992 110.184 158.592 111.248 157.306 111.238C156.305 111.238 155.788 110.532 155.788 109.151V99.5288H159.087V98.5907H155.809V94.4277L155.693 94.4383C154.924 94.5226 153.354 94.6385 152.532 94.6385H152.426V98.5907H150.245V99.5393H152.437V107.918C152.437 111.006 153.765 112.566 156.368 112.566C159.361 112.566 159.983 110.289 160.109 109.594L160.131 109.467ZM122.79 94.9231L125.952 103.955H119.839L122.79 94.9231ZM148.253 111.248V102.733C148.253 101.415 147.831 100.288 147.02 99.476C146.208 98.6645 145.038 98.2219 143.731 98.2219C141.94 98.2219 140.506 98.9386 139.452 100.34L139.421 98.7067V98.6013H134.056V99.5288H136.164V111.248H132.402L124.676 89.0738L124.655 89H123.707L116.129 111.248H114V112.176H120.313V111.248H117.404L119.502 104.914H126.257L128.386 111.248H125.446V112.176H141.56V111.248H139.452V104.746C139.463 100.867 141.529 99.455 142.92 99.455C144.269 99.455 144.954 100.33 144.954 102.048V111.248H142.983V112.176H150.392V111.248H148.253Z" fill="#050038"/>
<path d="M174.738 111.249V102.596C174.738 100.572 173.505 98.222 170.059 98.222C167.382 98.222 165.991 99.5183 165.401 100.193V89.0633H160.025V90.0329H162.038V111.249H159.867V112.176H167.477V111.249H165.401V104.661C165.401 102.385 166.18 101.131 166.834 100.477C167.466 99.845 168.278 99.4972 169.11 99.4972C170.955 99.4972 171.345 101.015 171.355 102.29V111.249H169.279V112.176H176.888V111.249H174.738ZM214.999 111.249H212.933V102.069C212.933 99.6869 211.299 98.2114 208.685 98.2114C206.208 98.2114 204.86 99.4445 204.238 100.267C203.553 98.9176 202.215 98.2009 200.37 98.2114C198.599 98.2114 197.018 98.8649 195.965 100.003L195.933 98.6962V98.5908H190.463V99.5183H192.697V111.238H190.495V112.165H197.935V111.238H196.038V104.767C196.101 102.88 196.186 101.668 196.86 100.741C197.44 99.9715 198.367 99.4867 199.274 99.4867C200.391 99.4867 200.792 100.33 200.834 100.425C201.119 100.962 201.119 101.89 201.119 102.785V111.238H199.137V112.165H206.43V111.238H204.523V104.767C204.585 102.88 204.67 101.668 205.344 100.741C205.924 99.9715 206.851 99.4867 207.758 99.4867C208.875 99.4867 209.275 100.33 209.318 100.425C209.602 100.962 209.602 101.89 209.602 102.785V111.238H207.631V112.165H215.104V111.238H214.999V111.249ZM217.613 110.279C217.886 110.279 218.276 110.321 218.276 109.952C218.276 109.678 218.045 109.636 217.802 109.636H217.254V110.279H217.613ZM217.265 111.396H217.011V109.404H217.865C218.382 109.404 218.56 109.594 218.56 109.952C218.56 110.332 218.287 110.479 217.95 110.511L218.54 111.396H218.255L217.696 110.511H217.275V111.396H217.265ZM219.119 110.405C219.119 109.562 218.508 108.951 217.665 108.951C216.811 108.951 216.2 109.562 216.2 110.405C216.2 111.259 216.811 111.87 217.665 111.87C218.508 111.87 219.119 111.259 219.119 110.405ZM215.915 110.405C215.915 109.457 216.695 108.666 217.665 108.666C218.624 108.666 219.404 109.446 219.404 110.405C219.404 111.364 218.624 112.155 217.665 112.155C216.695 112.155 215.915 111.375 215.915 110.405Z" fill="#050038"/>
<path d="M281.788 10.9394H250.874V5.20824H281.788V10.9394ZM283.997 3H248.665V13.1465H283.997V3Z" fill="#050038"/>
<path d="M250.874 29.9165H248.665V19.77H250.874V23.7796H254.819V19.77H257.028V29.9165H254.819V25.7116H250.874V29.9165Z" fill="#050038"/>
<path d="M260.372 25.468H263.003C262.954 24.7218 262.646 24.2017 261.785 24.2017C261.135 24.2017 260.567 24.4782 260.372 25.468ZM262.045 30.0789C259.804 30.0789 258.278 28.6663 258.278 26.3458C258.278 24.0883 259.772 22.53 261.753 22.53C263.912 22.53 264.984 23.9749 264.984 26.1344V26.9464H260.372C260.633 28.0657 261.509 28.3576 262.386 28.3576C263.149 28.3576 263.701 28.1959 264.383 27.7731H264.465V29.4454C263.88 29.8682 263.051 30.0789 262.045 30.0789Z" fill="#050038"/>
<path d="M270.748 25.6633L269.612 29.9165H267.68L265.471 22.773V22.6918H267.582L268.784 26.9618L269.92 22.6918H271.642L272.795 26.9618L274.013 22.6918H276.043V22.773L273.834 29.9165H271.901L270.748 25.6633Z" fill="#050038"/>
<path d="M279.631 30.0789C277.877 30.0789 277.162 29.381 277.162 27.7416V19.7706H279.306V27.5953C279.306 28.0986 279.5 28.2771 279.922 28.2771C280.069 28.2771 280.28 28.2288 280.41 28.1798H280.443V29.9494C280.264 30.0138 279.955 30.0789 279.631 30.0789Z" fill="#050038"/>
<path d="M283.138 25.468H285.768C285.719 24.7218 285.411 24.2017 284.55 24.2017C283.902 24.2017 283.332 24.4782 283.138 25.468ZM284.81 30.0789C282.569 30.0789 281.043 28.6663 281.043 26.3458C281.043 24.0883 282.537 22.53 284.518 22.53C286.678 22.53 287.749 23.9749 287.749 26.1344V26.9464H283.138C283.398 28.0657 284.275 28.3576 285.151 28.3576C285.915 28.3576 286.466 28.1959 287.149 27.7731H287.23V29.4454C286.646 29.8682 285.817 30.0789 284.81 30.0789Z" fill="#050038"/>
<path d="M296.548 22.6918H298.139V24.4124H296.548V27.351C296.548 27.9845 296.792 28.2771 297.441 28.2771C297.62 28.2771 297.847 28.2603 298.091 28.1791H298.139V29.8675C297.863 29.9655 297.441 30.0782 296.825 30.0782C295.086 30.0782 294.405 29.283 294.405 27.4483V24.4124H291.661V27.351C291.661 27.9845 291.904 28.2771 292.553 28.2771C292.732 28.2771 292.96 28.2603 293.203 28.1791H293.252V29.8675C292.976 29.9655 292.553 30.0782 291.937 30.0782C290.199 30.0782 289.517 29.283 289.517 27.4483V24.4124H288.413V22.6918H289.517V20.7115H291.661V22.6918H294.405V20.7115H296.548V22.6918Z" fill="#050038"/>
<path d="M305.362 24.754C306.483 24.754 307.018 24.1212 307.018 23.2119C307.018 22.2697 306.483 21.6369 305.362 21.6369H303.965V24.754H305.362ZM309.259 23.2119C309.259 25.4204 307.782 26.6209 305.54 26.6209H303.965V29.9165H301.758V19.77H305.54C307.782 19.77 309.259 20.9712 309.259 23.2119Z" fill="#050038"/>
<path d="M313.968 27.6435V27.0268C313.643 26.849 313.222 26.7839 312.783 26.7839C312.085 26.7839 311.663 27.0429 311.663 27.6274C311.663 28.2287 312.085 28.4884 312.718 28.4884C313.318 28.4884 313.773 28.1797 313.968 27.6435ZM314.033 29.2024C313.562 29.7708 312.865 30.0466 312.117 30.0466C310.705 30.0466 309.551 29.187 309.551 27.6596C309.551 26.2477 310.705 25.3062 312.36 25.3062C312.88 25.3062 313.416 25.3874 313.968 25.5491V25.4203C313.968 24.6405 313.53 24.3003 312.378 24.3003C311.646 24.3003 310.948 24.5103 310.347 24.8519H310.266V23.1306C310.818 22.8065 311.793 22.53 312.75 22.53C314.926 22.53 316.111 23.5688 316.111 25.3874V29.9164H314.033V29.2024Z" fill="#050038"/>
<path d="M317.2 26.3129C317.2 23.991 318.841 22.53 320.985 22.53C321.748 22.53 322.462 22.6924 322.998 23.0816V24.9164H322.916C322.445 24.5594 321.893 24.348 321.26 24.348C320.189 24.348 319.377 25.0795 319.377 26.3129C319.377 27.5463 320.189 28.261 321.26 28.261C321.893 28.261 322.445 28.0496 322.916 27.6919H322.998V29.5266C322.462 29.9165 321.748 30.0789 320.985 30.0789C318.841 30.0789 317.2 28.6348 317.2 26.3129Z" fill="#050038"/>
<path d="M326.487 26.6377V29.9165H324.344V19.77H326.487V25.5492L328.647 22.6918H331.082V22.773L328.485 26.0525L331.082 29.8353V29.9165H328.63L326.487 26.6377Z" fill="#050038"/>
<path d="M335.888 27.6435V27.0268C335.564 26.849 335.142 26.7839 334.703 26.7839C334.005 26.7839 333.583 27.0429 333.583 27.6274C333.583 28.2287 334.005 28.4884 334.638 28.4884C335.24 28.4884 335.694 28.1797 335.888 27.6435ZM335.954 29.2024C335.482 29.7708 334.784 30.0466 334.038 30.0466C332.624 30.0466 331.472 29.187 331.472 27.6596C331.472 26.2477 332.624 25.3062 334.282 25.3062C334.801 25.3062 335.336 25.3874 335.888 25.5491V25.4203C335.888 24.6405 335.45 24.3003 334.297 24.3003C333.567 24.3003 332.868 24.5103 332.267 24.8519H332.186V23.1306C332.738 22.8065 333.713 22.53 334.67 22.53C336.848 22.53 338.032 23.5688 338.032 25.3874V29.9164H335.954V29.2024Z" fill="#050038"/>
<path d="M341.637 23.8608C342.027 23.0649 342.595 22.6106 343.392 22.6106C343.684 22.6106 343.975 22.6757 344.088 22.7408V24.7862H344.008C343.764 24.6882 343.472 24.6238 343.066 24.6238C342.4 24.6238 341.881 25.0137 341.702 25.7599V29.9165H339.559V22.6918H341.637V23.8608Z" fill="#050038"/>
<path d="M349.772 27.4651V25.1432C349.415 24.6238 348.944 24.397 348.407 24.397C347.466 24.397 346.833 25.0795 346.833 26.3129C346.833 27.5463 347.466 28.212 348.407 28.212C348.944 28.212 349.415 27.9845 349.772 27.4651ZM349.836 29.1703C349.382 29.7548 348.667 30.0789 347.693 30.0789C345.841 30.0789 344.657 28.3912 344.657 26.3129C344.657 24.2346 345.841 22.53 347.693 22.53C348.634 22.53 349.317 22.8226 349.772 23.3582V19.7706H351.915V29.9165H349.836V29.1703Z" fill="#050038"/>
<path d="M248.665 33.2302H254.933V34.4636H250.078V37.5639H254.478V38.7658H250.078V42.1426H254.933V43.376H248.665V33.2302Z" fill="#050038"/>
<path d="M260.113 36.0869C261.72 36.0869 262.613 37.1425 262.613 38.8785V43.376H261.266V38.9114C261.266 37.986 260.795 37.3203 259.772 37.3203C258.928 37.3203 258.213 37.8565 257.97 38.6188V43.376H256.622V36.2332H257.97V37.272C258.392 36.6063 259.106 36.0869 260.113 36.0869Z" fill="#050038"/>
<path d="M266.234 36.2333H268.069V37.3862H266.234V41.2334C266.234 42.0447 266.657 42.3212 267.42 42.3212C267.63 42.3212 267.858 42.289 268.02 42.2239H268.069V43.3761C267.875 43.4573 267.598 43.5224 267.225 43.5224C265.552 43.5224 264.887 42.7587 264.887 41.3636V37.3862H263.653V36.2333H264.887V34.3349H266.234V36.2333Z" fill="#050038"/>
<path d="M270.325 39.1061H273.881C273.833 38.0512 273.313 37.2399 272.209 37.2399C271.186 37.2399 270.52 38.0029 270.325 39.1061ZM272.452 43.5224C270.357 43.5224 268.928 42.1259 268.928 39.8859C268.928 37.6452 270.26 36.087 272.193 36.087C274.157 36.087 275.18 37.4996 275.18 39.5933V40.2107H270.276C270.422 41.6555 271.348 42.3534 272.631 42.3534C273.427 42.3534 273.994 42.1749 274.628 41.7038H274.677V42.8896C274.092 43.3439 273.329 43.5224 272.452 43.5224Z" fill="#050038"/>
<path d="M278.12 37.3371C278.429 36.5741 279.111 36.1198 279.89 36.1198C280.199 36.1198 280.475 36.1681 280.588 36.2332V37.5639H280.54C280.345 37.4673 280.02 37.4183 279.695 37.4183C278.965 37.4183 278.348 37.9048 278.12 38.7168V43.376H276.773V36.2332H278.12V37.3371Z" fill="#050038"/>
<path d="M284.939 42.3043C286.27 42.3043 287.05 41.2494 287.05 39.8039C287.05 38.3759 286.27 37.3049 284.939 37.3049C284.208 37.3049 283.526 37.7431 283.169 38.4403V41.185C283.526 41.8822 284.208 42.3043 284.939 42.3043ZM285.166 36.0869C287.293 36.0869 288.43 37.8243 288.43 39.8039C288.43 41.7856 287.293 43.5223 285.166 43.5223C284.289 43.5223 283.542 43.068 283.169 42.5801V46.12H281.821V36.2332H283.169V37.0445C283.542 36.5412 284.289 36.0869 285.166 36.0869Z" fill="#050038"/>
<path d="M291.37 37.3371C291.678 36.5741 292.36 36.1198 293.14 36.1198C293.448 36.1198 293.724 36.1681 293.837 36.2332V37.5639H293.789C293.595 37.4673 293.27 37.4183 292.945 37.4183C292.214 37.4183 291.597 37.9048 291.37 38.7168V43.376H290.022V36.2332H291.37V37.3371Z" fill="#050038"/>
<path d="M295.787 33.3438C296.258 33.3438 296.647 33.7168 296.647 34.1879C296.647 34.659 296.258 35.0322 295.787 35.0322C295.332 35.0322 294.926 34.659 294.926 34.1879C294.926 33.7168 295.332 33.3438 295.787 33.3438Z" fill="#050038"/>
<path d="M295.12 43.3761H296.469V36.2333H295.12V43.3761Z" fill="#050038"/>
<path d="M301.274 39.2041C302.297 39.5282 303.433 39.9503 303.433 41.3139C303.433 42.7755 302.232 43.5224 300.69 43.5224C299.748 43.5224 298.806 43.2949 298.27 42.8728V41.5904H298.335C298.936 42.142 299.829 42.3856 300.673 42.3856C301.436 42.3856 302.119 42.093 302.119 41.4763C302.119 40.8435 301.551 40.6972 300.43 40.3241C299.423 39.9993 298.303 39.6255 298.303 38.2787C298.303 36.8983 299.439 36.087 300.885 36.087C301.729 36.087 302.476 36.2655 303.076 36.6715V37.9707H303.028C302.444 37.4996 301.761 37.2231 300.917 37.2231C300.073 37.2231 299.601 37.5969 299.601 38.1002C299.601 38.6686 300.121 38.8303 301.274 39.2041Z" fill="#050038"/>
<path d="M305.998 39.1061H309.554C309.505 38.0512 308.986 37.2399 307.881 37.2399C306.859 37.2399 306.193 38.0029 305.998 39.1061ZM308.125 43.5224C306.031 43.5224 304.602 42.1259 304.602 39.8859C304.602 37.6452 305.933 36.087 307.865 36.087C309.831 36.087 310.853 37.4996 310.853 39.5933V40.2107H305.949C306.096 41.6555 307.021 42.3534 308.303 42.3534C309.1 42.3534 309.668 42.1749 310.301 41.7038H310.35V42.8896C309.766 43.3439 309.002 43.5224 308.125 43.5224Z" fill="#050038"/>
</svg>
