<svg width="352" height="115" viewBox="0 0 352 115" fill="none" xmlns="http://www.w3.org/2000/svg">
<path fill-rule="evenodd" clip-rule="evenodd" d="M24.3424 46.0982V32.0628H28.1057V46.0982H24.3424ZM41.4819 35.4624C41.4282 35.4469 39.8909 35.0387 38.6274 35.0387C37.1644 35.0387 36.3686 35.5094 36.3686 36.1771C36.3686 37.0239 37.4431 37.3196 38.0432 37.5023L39.05 37.8106C41.4203 38.5348 42.4991 40.0938 42.4991 41.7874C42.4991 45.2799 39.3043 46.4546 36.5089 46.4546C34.5673 46.4546 32.7482 46.11 32.5689 46.0743V42.8734C32.8909 42.9514 34.4209 43.3905 36.0174 43.3905C37.8334 43.3905 38.6688 42.8806 38.6688 42.0933C38.6688 41.3881 37.945 40.9811 37.04 40.7091C36.8199 40.6365 36.4869 40.536 36.2601 40.4664C34.2276 39.8481 32.5317 38.6984 32.5317 36.3985C32.5317 33.7974 34.5581 32.0521 37.9243 32.0521C39.7013 32.0521 41.3734 32.4668 41.4813 32.4942V35.4618L41.4819 35.4624ZM76.2058 39.2524C76.2058 43.2311 73.0116 46.4534 68.5612 46.4534C64.1108 46.4534 60.9203 43.2311 60.9203 39.2512C60.9203 35.2809 64.112 32.055 68.5612 32.055C73.011 32.055 76.2058 35.2809 76.2058 39.2524ZM68.5612 35.5963C66.3952 35.5963 64.7859 37.2345 64.7859 39.2524C64.7859 41.2763 66.3952 42.9115 68.5612 42.9115C70.7242 42.9115 72.3378 41.2763 72.3378 39.2524C72.3378 37.2345 70.7242 35.5963 68.5612 35.5963ZM18.9664 36.2866C18.8195 36.2128 17.6462 35.5451 15.8991 35.5451C13.5354 35.5451 11.8981 37.1233 11.8981 39.253C11.8981 41.3191 13.4671 42.9639 15.9009 42.9639C17.6163 42.9639 18.8097 42.3087 18.9664 42.2266V45.9583C18.5133 46.0814 17.2669 46.4534 15.6363 46.4534C11.5347 46.4534 7.93311 43.7327 7.93311 39.2512C7.93311 35.1012 11.1938 32.055 15.6375 32.055C17.3553 32.055 18.6231 32.4549 18.9664 32.5537V36.2866ZM57.0754 36.2866C56.926 36.2128 55.7503 35.5451 54.0056 35.5451C51.6432 35.5451 50.0065 37.1233 50.0065 39.253C50.0065 41.3191 51.5725 42.9639 54.0044 42.9639C55.7204 42.9639 56.915 42.3087 57.0754 42.2266V45.9583C56.6181 46.0814 55.3692 46.4534 53.7489 46.4534C49.6418 46.4534 46.0372 43.7327 46.0372 39.2512C46.0372 35.1012 49.2991 32.055 53.7489 32.055C55.4606 32.055 56.7303 32.4549 57.0754 32.5537V36.2866Z" fill="#050038"/>
<path fill-rule="evenodd" clip-rule="evenodd" d="M83.2674 13.0832C83.2656 12.121 82.4551 11.3421 81.4587 11.3432C80.461 11.3421 79.6512 12.121 79.6494 13.0838V16.7334C79.6329 17.366 79.9744 17.9575 80.5403 18.2776C81.1068 18.5989 81.8087 18.5989 82.3758 18.2776C82.9424 17.9563 83.2826 17.3648 83.2662 16.7334V13.0832H83.2674ZM73.325 8.29351C73.325 7.33485 72.5176 6.55411 71.4956 6.55411C70.4998 6.55233 69.6911 7.33009 69.6893 8.29113V8.29232V16.734C69.6893 17.695 70.4961 18.474 71.4919 18.474H71.4956C72.5164 18.474 73.325 17.6962 73.325 16.7328V8.29053V8.29291V8.29351ZM63.3637 1.7388C63.3625 0.777168 62.5539 -0.00118402 61.5581 3.05658e-06H61.5569C60.561 -0.00177909 59.7518 0.775978 59.75 1.73761V1.73821V20.2009C59.7195 20.8412 60.0567 21.4464 60.6281 21.7736C61.2007 22.1015 61.9136 22.1003 62.485 21.7707C63.0546 21.444 63.3924 20.8412 63.3631 20.2021V1.7388H63.3637ZM53.4 8.29351C53.3988 7.33247 52.5896 6.55411 51.5944 6.5553C50.5979 6.55352 49.7893 7.33187 49.7869 8.29291V8.29351V16.7334C49.7887 17.6944 50.5973 18.4728 51.5938 18.471H51.5944C52.5896 18.4728 53.3988 17.6944 53.4 16.7334V8.29113V8.29351ZM43.44 13.0832C43.4375 12.124 42.6307 11.348 41.6367 11.3492C40.6421 11.3468 39.8329 12.1216 39.8268 13.082V16.734C39.828 17.695 40.6367 18.4734 41.6331 18.4716C42.6289 18.474 43.4381 17.6956 43.44 16.7346V16.734V13.0838V13.0832ZM33.4958 8.29351C33.4939 7.3283 32.6823 6.54816 31.6828 6.54935C30.6833 6.54816 29.871 7.3283 29.8698 8.29351V16.7334C29.871 17.6974 30.6827 18.4775 31.6816 18.4764H31.6822C32.681 18.4781 33.4921 17.698 33.4945 16.734V16.7334V8.29113V8.29351H33.4958ZM23.5381 1.7388C23.5381 0.780739 22.724 0.00238639 21.7258 0.00238639C20.7263 0.00238639 19.9122 0.778954 19.9122 1.7388V20.2009C19.914 21.1655 20.7257 21.9462 21.7252 21.9444C22.7246 21.9462 23.5363 21.1655 23.5381 20.2009V1.7388ZM13.5823 8.29351C13.5805 7.3283 12.7689 6.54816 11.7688 6.54935C10.7693 6.54816 9.95762 7.3283 9.95579 8.29351V16.7334C9.95762 17.6974 10.7687 18.4775 11.7675 18.4764H11.7682C12.7676 18.4781 13.5787 17.698 13.5811 16.734V16.7334V8.29113V8.29351H13.5823ZM3.62533 13.0838C3.62533 12.1264 2.81123 11.3486 1.81297 11.3486C0.814709 11.3486 0 12.1264 0 13.0826V16.7328C0.00182944 17.6974 0.813489 18.4781 1.81297 18.4764C2.81184 18.4781 3.62411 17.698 3.62594 16.7334V13.0832L3.62533 13.0838Z" fill="#050038"/>
<path d="M142.484 26.643C142.484 23.8038 140.6 22.1911 137.933 22.1911H136.301V31.0979H137.887C140.366 31.0979 142.484 29.7502 142.484 26.643ZM171.518 29.8475L159.493 39.3159L148.504 30.6637C146.918 34.4732 143.086 37.1192 138.673 37.1192H129.267V16.1668H138.673C143.604 16.1668 147.157 19.3025 148.501 22.6433L159.493 14L163.565 17.2045L153.49 25.1231L155.426 26.6385L165.498 18.7245L169.576 21.92L159.502 29.8475L161.436 31.366L171.518 23.437V16.1668H178.827V31.0036H186.118V37.1446H171.518V29.8475ZM195.377 31.0066H202.665V37.1446H188.06V16.1668H195.377V31.0066Z" fill="#050038"/>
<path d="M73.1639 81C73.2644 81.0335 73.3314 81.1005 73.4319 81.134C77.3515 82.7085 81.3046 84.3166 85.2241 85.8911C85.4921 85.9916 85.4587 85.9581 85.4587 86.2596C85.4587 87.1306 85.4587 87.9681 85.4587 88.8392C85.4587 88.9062 85.4587 89.0067 85.4587 89.1072C81.3381 90.7822 77.2175 92.4237 73.0969 94.0988C73.0969 92.7922 73.0969 91.5192 73.0969 90.2462C75.4755 89.3752 77.854 88.4706 80.2326 87.5996C80.2326 87.5661 80.2326 87.5661 80.2326 87.5326C77.854 86.5946 75.4755 85.6901 73.0969 84.7521C73.0969 83.5125 73.0969 82.2395 73.0969 81C73.1304 81 73.1639 81 73.1639 81Z" fill="#050038"/>
<path d="M0 109.275C0.0335009 109.174 0.0670012 109.04 0.100502 108.94C0.301506 107.432 1.10552 106.36 2.47905 105.723C3.28306 105.321 4.15408 105.12 5.0586 105.02C5.76211 104.919 6.49913 104.919 7.20264 104.919C7.67165 104.919 8.17416 104.919 8.64317 104.919C8.67667 104.886 8.67667 104.886 8.67667 104.852C8.71017 104.383 8.71017 103.881 8.60967 103.412C8.40866 102.507 7.87265 102.038 6.93463 101.904C6.59963 101.871 6.23112 101.871 5.89611 101.938C5.0921 102.139 4.62309 102.641 4.42209 103.445C4.38858 103.546 4.38858 103.613 4.35508 103.747C3.08206 103.747 1.80903 103.747 0.50251 103.747C0.469009 103.546 0.53601 103.345 0.569511 103.144C0.938018 101.335 2.01004 100.162 3.68507 99.4924C4.69009 99.0904 5.72861 98.9899 6.80063 98.9899C7.73865 98.9899 8.64317 99.0904 9.51418 99.3919C10.0502 99.5594 10.5527 99.8274 11.0217 100.196C11.9597 100.933 12.4622 101.871 12.6297 103.01C12.6967 103.412 12.7302 103.814 12.7302 104.249C12.7302 107.298 12.7302 110.38 12.7302 113.429C12.7302 113.529 12.7302 113.63 12.7302 113.764C11.3902 113.764 10.0837 113.764 8.77717 113.764C8.77717 113.228 8.77717 112.725 8.77717 112.189C8.71017 112.256 8.67667 112.29 8.64317 112.323C7.90615 113.295 6.90113 113.831 5.69511 114.032C5.4271 114.065 5.1591 114.099 4.89109 114.132C4.85759 114.132 4.79059 114.132 4.75709 114.132C4.65659 114.132 4.55609 114.099 4.45558 114.099C3.98658 114.065 3.55107 113.998 3.11556 113.898C1.44053 113.395 0.402006 112.323 0.167502 110.548C0.167502 110.447 0.100501 110.347 0.0669998 110.246C-5.81036e-08 109.878 0 109.576 0 109.275ZM8.67667 107.566C8.47567 107.566 8.30816 107.566 8.14066 107.566C7.47064 107.6 6.76713 107.6 6.09712 107.633C5.66161 107.667 5.2261 107.767 4.82409 108.002C4.42209 108.236 4.15408 108.571 4.08708 109.04C4.05358 109.241 4.05358 109.476 4.05358 109.677C4.08708 110.414 4.48909 110.95 5.2261 111.117C5.99661 111.318 6.76713 111.251 7.50415 110.883C8.14066 110.548 8.57617 110.012 8.64317 109.275C8.67667 108.739 8.67667 108.169 8.67667 107.566ZM51.9595 114.099C51.792 114.099 51.658 114.065 51.4905 114.065C50.519 113.998 49.5475 113.797 48.6429 113.395C47.0014 112.625 45.9629 111.318 45.4269 109.61C45.1924 108.873 45.0919 108.136 45.0584 107.365C44.9914 106.192 45.0584 105.02 45.3934 103.881C45.7954 102.507 46.4989 101.301 47.6379 100.397C48.5759 99.6599 49.6479 99.2244 50.8205 99.0904C52.06 98.9229 53.266 98.9899 54.472 99.3919C56.5826 100.095 57.8221 101.569 58.3246 103.713C58.4921 104.383 58.5256 105.087 58.5591 105.79C58.5591 106.293 58.5591 106.796 58.5591 107.332C58.5591 107.399 58.5591 107.466 58.5256 107.566C55.4101 107.566 52.2945 107.566 49.1454 107.566C49.1789 107.767 49.1789 107.935 49.1789 108.069C49.2459 108.504 49.3129 108.94 49.4804 109.342C49.916 110.447 50.72 111.05 51.8925 111.117C52.2945 111.151 52.6965 111.117 53.0985 110.983C53.869 110.749 54.405 110.246 54.673 109.509C54.7065 109.442 54.74 109.342 54.7735 109.275C54.7735 109.275 54.7735 109.275 54.8071 109.241C56.0131 109.241 57.2526 109.241 58.4921 109.241C58.4921 109.342 58.4586 109.442 58.4586 109.509C58.0231 111.519 56.8171 112.826 54.9075 113.563C54.1705 113.864 53.3665 113.998 52.596 114.032C52.462 114.032 52.328 114.065 52.194 114.065C52.127 114.099 52.0265 114.099 51.9595 114.099ZM49.2124 104.819C49.5475 104.886 54.4385 104.852 54.6061 104.785C54.5725 104.149 54.4721 103.512 54.1705 102.943C53.869 102.373 53.4 102.005 52.7635 101.871C52.596 101.837 52.4285 101.804 52.261 101.804C51.524 101.737 50.8205 101.871 50.251 102.407C49.581 103.077 49.3465 103.948 49.2124 104.819ZM118.86 114.099C118.693 114.099 118.525 114.065 118.358 114.065C117.42 113.998 116.515 113.831 115.644 113.429C113.969 112.658 112.897 111.385 112.328 109.643C111.892 108.337 111.859 106.963 111.959 105.589C112.026 104.618 112.227 103.68 112.629 102.809C113.601 100.698 115.242 99.4589 117.52 99.0904C118.659 98.8894 119.798 98.9564 120.904 99.2244C123.182 99.8274 124.589 101.268 125.158 103.512C125.292 104.015 125.359 104.517 125.393 105.053C125.393 105.12 125.426 105.221 125.426 105.288C125.426 106.025 125.426 106.762 125.426 107.499C125.326 107.499 125.192 107.499 125.091 107.499C122.177 107.499 119.296 107.499 116.381 107.499C116.281 107.499 116.18 107.499 116.013 107.499C116.046 107.767 116.046 107.968 116.08 108.203C116.18 108.806 116.314 109.375 116.616 109.878C116.917 110.38 117.353 110.749 117.922 110.95C118.492 111.117 119.061 111.151 119.631 111.05C120.602 110.883 121.272 110.347 121.574 109.409C121.607 109.342 121.607 109.275 121.641 109.241C122.009 109.174 125.158 109.208 125.326 109.275C125.326 109.342 125.326 109.409 125.326 109.509C125.326 109.576 125.292 109.61 125.292 109.677C124.89 111.352 123.885 112.591 122.344 113.362C121.44 113.797 120.502 113.998 119.53 114.065C119.363 114.065 119.195 114.099 119.028 114.099C118.994 114.099 118.927 114.099 118.86 114.099ZM121.473 104.852C121.44 104.182 121.339 103.546 121.038 102.976C120.736 102.44 120.267 102.072 119.664 101.938C119.497 101.904 119.329 101.871 119.162 101.837C118.023 101.737 117.085 102.172 116.549 103.244C116.314 103.713 116.18 104.182 116.113 104.685C116.113 104.718 116.113 104.785 116.113 104.819C117.922 104.852 119.698 104.852 121.473 104.852ZM91.0213 114.099C90.9208 114.099 90.8203 114.065 90.7198 114.065C90.2842 114.032 89.8487 113.965 89.4467 113.831C88.0397 113.362 87.2357 112.357 86.8337 110.95C86.6662 110.38 86.5992 109.811 86.5992 109.208C86.5992 105.991 86.5992 102.775 86.5992 99.5929C86.5992 99.5259 86.5992 99.4254 86.5992 99.3249C87.9727 99.3249 89.3127 99.3249 90.6528 99.3249C90.6528 99.4254 90.6528 99.5259 90.6528 99.6264C90.6528 102.541 90.6528 105.455 90.6528 108.37C90.6528 108.739 90.6528 109.107 90.7533 109.476C90.9543 110.313 91.5238 110.816 92.3948 110.883C92.7633 110.916 93.1318 110.916 93.5003 110.816C94.4718 110.548 95.0413 109.911 95.2088 108.94C95.2423 108.705 95.2758 108.471 95.2758 108.203C95.2758 105.355 95.2758 102.474 95.2758 99.6264C95.2758 99.5259 95.2758 99.4254 95.2758 99.3249C95.4768 99.2579 98.9274 99.2579 99.2959 99.2914C99.2959 104.082 99.2959 108.906 99.2959 113.697C99.1284 113.764 95.6779 113.764 95.2758 113.73C95.2758 113.395 95.2758 113.06 95.2758 112.759C95.2758 112.424 95.2758 112.122 95.2423 111.787C95.2088 111.854 95.1753 111.921 95.1418 111.955C94.4383 113.127 93.3663 113.797 92.0263 113.998C91.8253 114.032 91.6243 114.032 91.3898 114.065C91.3228 114.065 91.2558 114.099 91.1553 114.099C91.1218 114.099 91.0883 114.099 91.0213 114.099ZM21.7754 114.099C21.6079 114.099 21.4739 114.065 21.3064 114.065C20.3014 113.998 19.3299 113.797 18.4254 113.328C16.8508 112.524 15.8793 111.218 15.3768 109.576C15.0083 108.404 14.9413 107.164 15.0083 105.924C15.0753 104.986 15.2093 104.048 15.5778 103.177C16.5158 100.899 18.2244 99.5594 20.6364 99.1574C21.9429 98.9229 23.2495 99.0234 24.5225 99.4589C26.4655 100.129 27.638 101.502 28.107 103.479C28.174 103.747 28.2075 104.048 28.241 104.316C28.241 104.35 28.241 104.417 28.241 104.484C26.968 104.484 25.6615 104.484 24.3885 104.484C24.355 104.383 24.3215 104.249 24.288 104.149C24.221 103.914 24.154 103.713 24.0535 103.479C23.618 102.507 22.7804 102.105 21.7419 102.172C20.7369 102.273 20.0669 102.775 19.6314 103.68C19.3299 104.249 19.1959 104.886 19.1624 105.522C19.0954 106.494 19.0954 107.432 19.2629 108.404C19.3299 108.806 19.4304 109.208 19.6314 109.576C20.1339 110.682 21.1054 111.184 22.3114 111.084C23.417 110.983 24.1205 110.313 24.489 109.308C24.5895 109.04 24.6565 108.772 24.7235 108.504C25.9295 108.504 27.1355 108.504 28.375 108.504C28.4085 108.739 28.3415 108.94 28.308 109.141C28.0735 110.481 27.5375 111.653 26.5325 112.558C25.7285 113.295 24.7905 113.73 23.7185 113.931C23.2494 114.032 22.7469 114.032 22.2779 114.099C22.2109 114.099 22.1439 114.132 22.0434 114.132C21.9094 114.099 21.8424 114.099 21.7754 114.099ZM36.8172 114.099C36.6497 114.099 36.5157 114.065 36.3482 114.065C35.2762 113.998 34.2377 113.764 33.2996 113.228C31.8591 112.457 30.9546 111.251 30.4521 109.71C30.1841 108.906 30.0501 108.102 30.0166 107.265C29.9496 106.092 30.0166 104.953 30.3516 103.847C30.8206 102.206 31.7251 100.866 33.2326 99.9614C34.1372 99.4254 35.1087 99.1239 36.1472 99.0234C37.3197 98.9229 38.4922 98.9899 39.5978 99.3919C41.5073 100.062 42.6798 101.435 43.1488 103.412C43.2158 103.68 43.2493 103.948 43.2828 104.216C43.2828 104.283 43.2828 104.316 43.2828 104.383C42.0098 104.383 40.7368 104.383 39.4303 104.383C39.3967 104.283 39.3633 104.182 39.3298 104.082C39.2628 103.847 39.1958 103.646 39.0952 103.412C38.6597 102.44 37.8557 102.005 36.7837 102.105C35.8122 102.172 35.1087 102.675 34.6732 103.546C34.3717 104.149 34.2042 104.785 34.1707 105.455C34.1037 106.427 34.1037 107.365 34.2712 108.337C34.3382 108.739 34.4722 109.141 34.6397 109.543C35.1757 110.648 36.1137 111.117 37.2862 111.017C38.3247 110.916 39.0282 110.313 39.4303 109.375C39.5643 109.074 39.6313 108.772 39.7318 108.437C40.9378 108.437 42.1438 108.437 43.3833 108.437C43.3498 108.672 43.3498 108.873 43.3163 109.074C43.0818 110.447 42.5123 111.653 41.4403 112.591C40.5693 113.328 39.5643 113.764 38.4587 113.965C38.0567 114.032 37.6882 114.032 37.2862 114.099C37.2192 114.099 37.1522 114.132 37.0517 114.132C36.9512 114.099 36.8842 114.099 36.8172 114.099ZM61.0382 99.3249C62.3782 99.3249 63.7182 99.3249 65.0583 99.3249C65.0583 99.9949 65.0583 100.665 65.0583 101.335H65.0918C65.1253 101.268 65.1923 101.201 65.2258 101.134C65.9963 99.9279 67.1353 99.2914 68.5088 99.0569C69.2123 98.9564 69.9158 98.9564 70.6194 99.1239C71.9929 99.4254 72.8974 100.263 73.3664 101.569C73.6344 102.34 73.7684 103.11 73.7684 103.914C73.7684 107.097 73.7684 110.313 73.7684 113.496C73.7684 113.563 73.7684 113.63 73.7684 113.73C72.4284 113.73 71.0884 113.73 69.7483 113.73C69.7483 113.63 69.7483 113.529 69.7483 113.429C69.7483 110.548 69.7483 107.633 69.7483 104.752C69.7483 104.45 69.7148 104.182 69.6813 103.881C69.5473 102.943 69.0113 102.44 68.0733 102.306C67.6378 102.239 67.2023 102.273 66.7668 102.373C65.8623 102.641 65.3263 103.278 65.1253 104.182C65.0583 104.45 65.0583 104.718 65.0583 105.02C65.0583 107.834 65.0583 110.615 65.0583 113.429C65.0583 113.529 65.0583 113.63 65.0583 113.73C64.8573 113.797 61.3397 113.797 61.0382 113.764C61.0382 108.94 61.0382 104.149 61.0382 99.3249ZM77.286 102.306C76.7165 102.306 76.1805 102.306 75.611 102.306C75.611 101.301 75.611 100.33 75.611 99.2914C76.147 99.2914 76.7165 99.2914 77.2525 99.2914C77.2525 98.3868 77.2525 97.4823 77.2525 96.5778C78.5925 96.0418 79.9325 95.4723 81.3061 94.9363C81.3731 95.0368 81.3396 95.1373 81.3396 95.2378C81.3396 96.4773 81.3396 97.7168 81.3396 98.9899C81.3396 99.0904 81.3396 99.1909 81.3396 99.3249C82.2776 99.3249 83.1486 99.3249 84.0531 99.3249C84.1201 99.5259 84.1201 101.938 84.0866 102.34C83.1821 102.34 82.2776 102.34 81.3396 102.34C81.3396 102.474 81.3396 102.541 81.3396 102.641C81.3396 104.819 81.3396 106.997 81.3396 109.174C81.3396 109.375 81.3731 109.61 81.4066 109.811C81.5406 110.414 81.9426 110.749 82.5791 110.782C83.0816 110.816 83.5506 110.782 84.0531 110.615C84.0866 110.615 84.1201 110.581 84.1871 110.581C84.1871 111.62 84.1871 112.658 84.1871 113.73C84.0531 113.764 83.9191 113.797 83.7516 113.831C82.5121 114.099 81.2726 114.132 80.0666 113.797C79.1285 113.563 78.3915 113.094 77.889 112.223C77.554 111.653 77.3865 111.05 77.353 110.414C77.3195 110.079 77.3195 109.71 77.3195 109.375C77.3195 107.164 77.3195 104.919 77.3195 102.708C77.286 102.541 77.286 102.44 77.286 102.306ZM106.365 101.837C107.202 99.9949 108.609 99.0904 110.653 99.1239C110.653 100.464 110.653 101.77 110.653 103.077C110.552 103.077 110.418 103.11 110.318 103.11C109.681 103.11 109.045 103.177 108.442 103.378C108.274 103.445 108.073 103.512 107.906 103.579C107.035 103.981 106.532 104.685 106.398 105.623C106.365 105.924 106.331 106.226 106.331 106.528C106.331 108.839 106.331 111.151 106.331 113.462C106.331 113.563 106.331 113.663 106.331 113.764C104.991 113.764 103.651 113.764 102.311 113.764C102.311 108.94 102.311 104.149 102.311 99.3249C103.651 99.3249 104.991 99.3249 106.331 99.3249C106.331 100.162 106.331 101 106.331 101.804C106.331 101.804 106.365 101.804 106.365 101.837Z" fill="#050038"/>
<path d="M243.652 103.534H238.53V102.09C238.53 101.141 238.804 100.361 239.32 99.8449C239.774 99.3918 240.406 99.1388 241.081 99.1388C242.725 99.1493 243.642 100.193 243.642 102.09C243.652 102.09 243.652 103.186 243.652 103.534ZM245.528 99.6974C244.432 98.7278 242.904 98.2219 241.112 98.2219C239.51 98.2219 237.919 98.9491 236.738 100.235C235.474 101.594 234.778 103.47 234.767 105.494C234.767 107.486 235.484 109.309 236.802 110.627C238.056 111.891 239.732 112.576 241.523 112.576C244.969 112.566 246.909 110.015 247.246 107.655L247.267 107.528H246.203L246.192 107.623C245.95 109.541 244.316 111.586 241.766 111.575C239.732 111.575 238.562 110.184 238.551 107.76V104.545H247.478V104.43C247.404 102.364 246.751 100.772 245.528 99.6974ZM217.557 109.467H216.556L216.535 109.552C216.419 110.184 216.018 111.248 214.732 111.238C213.731 111.238 213.215 110.532 213.215 109.151V99.5288H216.513V98.5907H213.236V94.4277L213.12 94.4383C212.35 94.5226 210.78 94.6385 209.958 94.6385H209.853V98.5907H207.671V99.5393H209.863V107.918C209.863 111.006 211.191 112.566 213.794 112.566C216.787 112.566 217.409 110.289 217.536 109.594L217.557 109.467ZM180.216 94.9231L183.378 103.955H177.265L180.216 94.9231ZM205.679 111.248V102.733C205.679 101.415 205.257 100.288 204.446 99.476C203.634 98.6645 202.464 98.2219 201.158 98.2219C199.366 98.2219 197.933 98.9386 196.879 100.34L196.847 98.7067V98.6013H191.483V99.5288H193.59V111.248H189.828L182.103 89.0738L182.082 89H181.133L173.555 111.248H171.426V112.176H177.739V111.248H174.83L176.928 104.914H183.684L185.812 111.248H182.872V112.176H198.987V111.248H196.879V104.746C196.889 100.867 198.955 99.455 200.346 99.455C201.695 99.455 202.38 100.33 202.38 102.048V111.248H200.409V112.176H207.819V111.248H205.679Z" fill="#050038"/>
<path d="M232.165 111.249V102.596C232.165 100.572 230.931 98.222 227.485 98.222C224.808 98.222 223.417 99.5183 222.827 100.193V89.0633H217.452V90.0329H219.465V111.249H217.294V112.176H224.903V111.249H222.827V104.661C222.827 102.385 223.607 101.131 224.26 100.477C224.892 99.845 225.704 99.4972 226.537 99.4972C228.381 99.4972 228.771 101.015 228.782 102.29V111.249H226.705V112.176H234.315V111.249H232.165ZM272.425 111.249H270.359V102.069C270.359 99.6869 268.726 98.2114 266.112 98.2114C263.635 98.2114 262.286 99.4445 261.664 100.267C260.979 98.9176 259.641 98.2009 257.796 98.2114C256.026 98.2114 254.445 98.8649 253.391 100.003L253.359 98.6962V98.5908H247.889V99.5183H250.124V111.238H247.921V112.165H255.362V111.238H253.465V104.767C253.528 102.88 253.612 101.668 254.287 100.741C254.866 99.9715 255.794 99.4867 256.7 99.4867C257.817 99.4867 258.218 100.33 258.26 100.425C258.545 100.962 258.545 101.89 258.545 102.785V111.238H256.563V112.165H263.856V111.238H261.949V104.767C262.012 102.88 262.096 101.668 262.77 100.741C263.351 99.9715 264.278 99.4867 265.184 99.4867C266.302 99.4867 266.702 100.33 266.744 100.425C267.028 100.962 267.028 101.89 267.028 102.785V111.238H265.058V112.165H272.53V111.238H272.425V111.249ZM275.039 110.279C275.312 110.279 275.703 110.321 275.703 109.952C275.703 109.678 275.471 109.636 275.228 109.636H274.68V110.279H275.039ZM274.691 111.396H274.438V109.404H275.291C275.808 109.404 275.987 109.594 275.987 109.952C275.987 110.332 275.713 110.479 275.376 110.511L275.966 111.396H275.682L275.122 110.511H274.702V111.396H274.691ZM276.545 110.405C276.545 109.562 275.934 108.951 275.091 108.951C274.237 108.951 273.626 109.562 273.626 110.405C273.626 111.259 274.237 111.87 275.091 111.87C275.934 111.87 276.545 111.259 276.545 110.405ZM273.342 110.405C273.342 109.457 274.121 108.666 275.091 108.666C276.05 108.666 276.83 109.446 276.83 110.405C276.83 111.364 276.05 112.155 275.091 112.155C274.121 112.155 273.342 111.375 273.342 110.405Z" fill="#050038"/>
<path d="M281.788 10.9394H250.874V5.20824H281.788V10.9394ZM283.997 3H248.665V13.1465H283.997V3Z" fill="#050038"/>
<path d="M250.874 29.9165H248.665V19.77H250.874V23.7796H254.819V19.77H257.028V29.9165H254.819V25.7116H250.874V29.9165Z" fill="#050038"/>
<path d="M260.372 25.468H263.003C262.954 24.7218 262.646 24.2017 261.785 24.2017C261.135 24.2017 260.567 24.4782 260.372 25.468ZM262.045 30.0789C259.804 30.0789 258.278 28.6663 258.278 26.3458C258.278 24.0883 259.772 22.53 261.753 22.53C263.912 22.53 264.984 23.9749 264.984 26.1344V26.9464H260.372C260.633 28.0657 261.509 28.3576 262.386 28.3576C263.149 28.3576 263.701 28.1959 264.383 27.7731H264.465V29.4454C263.88 29.8682 263.051 30.0789 262.045 30.0789Z" fill="#050038"/>
<path d="M270.748 25.6633L269.612 29.9165H267.68L265.471 22.773V22.6918H267.582L268.784 26.9618L269.92 22.6918H271.642L272.795 26.9618L274.013 22.6918H276.043V22.773L273.834 29.9165H271.901L270.748 25.6633Z" fill="#050038"/>
<path d="M279.631 30.0789C277.877 30.0789 277.162 29.381 277.162 27.7416V19.7706H279.306V27.5953C279.306 28.0986 279.5 28.2771 279.922 28.2771C280.069 28.2771 280.28 28.2288 280.41 28.1798H280.443V29.9494C280.264 30.0138 279.955 30.0789 279.631 30.0789Z" fill="#050038"/>
<path d="M283.138 25.468H285.768C285.719 24.7218 285.411 24.2017 284.55 24.2017C283.902 24.2017 283.332 24.4782 283.138 25.468ZM284.81 30.0789C282.569 30.0789 281.043 28.6663 281.043 26.3458C281.043 24.0883 282.537 22.53 284.518 22.53C286.678 22.53 287.749 23.9749 287.749 26.1344V26.9464H283.138C283.398 28.0657 284.275 28.3576 285.151 28.3576C285.915 28.3576 286.466 28.1959 287.149 27.7731H287.23V29.4454C286.646 29.8682 285.817 30.0789 284.81 30.0789Z" fill="#050038"/>
<path d="M296.548 22.6918H298.139V24.4124H296.548V27.351C296.548 27.9845 296.792 28.2771 297.441 28.2771C297.62 28.2771 297.847 28.2603 298.091 28.1791H298.139V29.8675C297.863 29.9655 297.441 30.0782 296.825 30.0782C295.086 30.0782 294.405 29.283 294.405 27.4483V24.4124H291.661V27.351C291.661 27.9845 291.904 28.2771 292.553 28.2771C292.732 28.2771 292.96 28.2603 293.203 28.1791H293.252V29.8675C292.976 29.9655 292.553 30.0782 291.937 30.0782C290.199 30.0782 289.517 29.283 289.517 27.4483V24.4124H288.413V22.6918H289.517V20.7115H291.661V22.6918H294.405V20.7115H296.548V22.6918Z" fill="#050038"/>
<path d="M305.362 24.754C306.483 24.754 307.018 24.1212 307.018 23.2119C307.018 22.2697 306.483 21.6369 305.362 21.6369H303.965V24.754H305.362ZM309.259 23.2119C309.259 25.4204 307.782 26.6209 305.54 26.6209H303.965V29.9165H301.758V19.77H305.54C307.782 19.77 309.259 20.9712 309.259 23.2119Z" fill="#050038"/>
<path d="M313.968 27.6435V27.0268C313.643 26.849 313.222 26.7839 312.783 26.7839C312.085 26.7839 311.663 27.0429 311.663 27.6274C311.663 28.2287 312.085 28.4884 312.718 28.4884C313.318 28.4884 313.773 28.1797 313.968 27.6435ZM314.033 29.2024C313.562 29.7708 312.865 30.0466 312.117 30.0466C310.705 30.0466 309.551 29.187 309.551 27.6596C309.551 26.2477 310.705 25.3062 312.36 25.3062C312.88 25.3062 313.416 25.3874 313.968 25.5491V25.4203C313.968 24.6405 313.53 24.3003 312.378 24.3003C311.646 24.3003 310.948 24.5103 310.347 24.8519H310.266V23.1306C310.818 22.8065 311.793 22.53 312.75 22.53C314.926 22.53 316.111 23.5688 316.111 25.3874V29.9164H314.033V29.2024Z" fill="#050038"/>
<path d="M317.2 26.3129C317.2 23.991 318.841 22.53 320.985 22.53C321.748 22.53 322.462 22.6924 322.998 23.0816V24.9164H322.916C322.445 24.5594 321.893 24.348 321.26 24.348C320.189 24.348 319.377 25.0795 319.377 26.3129C319.377 27.5463 320.189 28.261 321.26 28.261C321.893 28.261 322.445 28.0496 322.916 27.6919H322.998V29.5266C322.462 29.9165 321.748 30.0789 320.985 30.0789C318.841 30.0789 317.2 28.6348 317.2 26.3129Z" fill="#050038"/>
<path d="M326.487 26.6377V29.9165H324.344V19.77H326.487V25.5492L328.647 22.6918H331.082V22.773L328.485 26.0525L331.082 29.8353V29.9165H328.63L326.487 26.6377Z" fill="#050038"/>
<path d="M335.888 27.6435V27.0268C335.564 26.849 335.142 26.7839 334.703 26.7839C334.005 26.7839 333.583 27.0429 333.583 27.6274C333.583 28.2287 334.005 28.4884 334.638 28.4884C335.24 28.4884 335.694 28.1797 335.888 27.6435ZM335.954 29.2024C335.482 29.7708 334.784 30.0466 334.038 30.0466C332.624 30.0466 331.472 29.187 331.472 27.6596C331.472 26.2477 332.624 25.3062 334.282 25.3062C334.801 25.3062 335.336 25.3874 335.888 25.5491V25.4203C335.888 24.6405 335.45 24.3003 334.297 24.3003C333.567 24.3003 332.868 24.5103 332.267 24.8519H332.186V23.1306C332.738 22.8065 333.713 22.53 334.67 22.53C336.848 22.53 338.032 23.5688 338.032 25.3874V29.9164H335.954V29.2024Z" fill="#050038"/>
<path d="M341.637 23.8608C342.027 23.0649 342.595 22.6106 343.392 22.6106C343.684 22.6106 343.975 22.6757 344.088 22.7408V24.7862H344.008C343.764 24.6882 343.472 24.6238 343.066 24.6238C342.4 24.6238 341.881 25.0137 341.702 25.7599V29.9165H339.559V22.6918H341.637V23.8608Z" fill="#050038"/>
<path d="M349.772 27.4651V25.1432C349.415 24.6238 348.944 24.397 348.407 24.397C347.466 24.397 346.833 25.0795 346.833 26.3129C346.833 27.5463 347.466 28.212 348.407 28.212C348.944 28.212 349.415 27.9845 349.772 27.4651ZM349.836 29.1703C349.382 29.7548 348.667 30.0789 347.693 30.0789C345.841 30.0789 344.657 28.3912 344.657 26.3129C344.657 24.2346 345.841 22.53 347.693 22.53C348.634 22.53 349.317 22.8226 349.772 23.3582V19.7706H351.915V29.9165H349.836V29.1703Z" fill="#050038"/>
<path d="M248.665 33.2302H254.933V34.4636H250.078V37.5639H254.478V38.7658H250.078V42.1426H254.933V43.376H248.665V33.2302Z" fill="#050038"/>
<path d="M260.113 36.0869C261.72 36.0869 262.613 37.1425 262.613 38.8785V43.376H261.266V38.9114C261.266 37.986 260.795 37.3203 259.772 37.3203C258.928 37.3203 258.213 37.8565 257.97 38.6188V43.376H256.622V36.2332H257.97V37.272C258.392 36.6063 259.106 36.0869 260.113 36.0869Z" fill="#050038"/>
<path d="M266.234 36.2333H268.069V37.3862H266.234V41.2334C266.234 42.0447 266.657 42.3212 267.42 42.3212C267.63 42.3212 267.858 42.289 268.02 42.2239H268.069V43.3761C267.875 43.4573 267.598 43.5224 267.225 43.5224C265.552 43.5224 264.887 42.7587 264.887 41.3636V37.3862H263.653V36.2333H264.887V34.3349H266.234V36.2333Z" fill="#050038"/>
<path d="M270.325 39.1061H273.881C273.833 38.0512 273.313 37.2399 272.209 37.2399C271.186 37.2399 270.52 38.0029 270.325 39.1061ZM272.452 43.5224C270.357 43.5224 268.928 42.1259 268.928 39.8859C268.928 37.6452 270.26 36.087 272.193 36.087C274.157 36.087 275.18 37.4996 275.18 39.5933V40.2107H270.276C270.422 41.6555 271.348 42.3534 272.631 42.3534C273.427 42.3534 273.994 42.1749 274.628 41.7038H274.677V42.8896C274.092 43.3439 273.329 43.5224 272.452 43.5224Z" fill="#050038"/>
<path d="M278.12 37.3371C278.429 36.5741 279.111 36.1198 279.89 36.1198C280.199 36.1198 280.475 36.1681 280.588 36.2332V37.5639H280.54C280.345 37.4673 280.02 37.4183 279.695 37.4183C278.965 37.4183 278.348 37.9048 278.12 38.7168V43.376H276.773V36.2332H278.12V37.3371Z" fill="#050038"/>
<path d="M284.939 42.3043C286.27 42.3043 287.05 41.2494 287.05 39.8039C287.05 38.3759 286.27 37.3049 284.939 37.3049C284.208 37.3049 283.526 37.7431 283.169 38.4403V41.185C283.526 41.8822 284.208 42.3043 284.939 42.3043ZM285.166 36.0869C287.293 36.0869 288.43 37.8243 288.43 39.8039C288.43 41.7856 287.293 43.5223 285.166 43.5223C284.289 43.5223 283.542 43.068 283.169 42.5801V46.12H281.821V36.2332H283.169V37.0445C283.542 36.5412 284.289 36.0869 285.166 36.0869Z" fill="#050038"/>
<path d="M291.37 37.3371C291.678 36.5741 292.36 36.1198 293.14 36.1198C293.448 36.1198 293.724 36.1681 293.837 36.2332V37.5639H293.789C293.595 37.4673 293.27 37.4183 292.945 37.4183C292.214 37.4183 291.597 37.9048 291.37 38.7168V43.376H290.022V36.2332H291.37V37.3371Z" fill="#050038"/>
<path d="M295.787 33.3438C296.258 33.3438 296.647 33.7168 296.647 34.1879C296.647 34.659 296.258 35.0322 295.787 35.0322C295.332 35.0322 294.926 34.659 294.926 34.1879C294.926 33.7168 295.332 33.3438 295.787 33.3438Z" fill="#050038"/>
<path d="M295.12 43.3761H296.469V36.2333H295.12V43.3761Z" fill="#050038"/>
<path d="M301.274 39.2041C302.297 39.5282 303.433 39.9503 303.433 41.3139C303.433 42.7755 302.232 43.5224 300.69 43.5224C299.748 43.5224 298.806 43.2949 298.27 42.8728V41.5904H298.335C298.936 42.142 299.829 42.3856 300.673 42.3856C301.436 42.3856 302.119 42.093 302.119 41.4763C302.119 40.8435 301.551 40.6972 300.43 40.3241C299.423 39.9993 298.303 39.6255 298.303 38.2787C298.303 36.8983 299.439 36.087 300.885 36.087C301.729 36.087 302.476 36.2655 303.076 36.6715V37.9707H303.028C302.444 37.4996 301.761 37.2231 300.917 37.2231C300.073 37.2231 299.601 37.5969 299.601 38.1002C299.601 38.6686 300.121 38.8303 301.274 39.2041Z" fill="#050038"/>
<path d="M305.998 39.1061H309.554C309.505 38.0512 308.986 37.2399 307.881 37.2399C306.859 37.2399 306.193 38.0029 305.998 39.1061ZM308.125 43.5224C306.031 43.5224 304.602 42.1259 304.602 39.8859C304.602 37.6452 305.933 36.087 307.865 36.087C309.831 36.087 310.853 37.4996 310.853 39.5933V40.2107H305.949C306.096 41.6555 307.021 42.3534 308.303 42.3534C309.1 42.3534 309.668 42.1749 310.301 41.7038H310.35V42.8896C309.766 43.3439 309.002 43.5224 308.125 43.5224Z" fill="#050038"/>
</svg>

