<svg width="109" height="136" viewBox="0 0 109 136" fill="none" xmlns="http://www.w3.org/2000/svg">
<g filter="url(#filter0_f)">
<path d="M15.5664 30.417L74.5733 31.0244L73.7276 94.6296L15.979 96.1676L15.5664 30.417Z" fill="black"/>
</g>
<g filter="url(#filter1_f)">
<path d="M15.4441 33.1062L74.451 33.7136L73.6053 97.3188L15.8567 98.8568L15.4441 33.1062Z" fill="black" fill-opacity="0.2"/>
</g>
<path d="M8.48779 23.0024L80.8134 23.6768L81.4878 96.171L8.99357 96.0024L8.48779 23.0024Z" fill="#FFF9B1"/>
<path d="M18.1003 63H17.3606V58.1167H18.1003V63ZM17.2983 56.7934C17.2983 56.6241 17.3399 56.5008 17.423 56.4236C17.5062 56.3434 17.6102 56.3033 17.7349 56.3033C17.8537 56.3033 17.9562 56.3434 18.0423 56.4236C18.1285 56.5038 18.1716 56.6271 18.1716 56.7934C18.1716 56.9597 18.1285 57.0845 18.0423 57.1677C17.9562 57.2479 17.8537 57.288 17.7349 57.288C17.6102 57.288 17.5062 57.2479 17.423 57.1677C17.3399 57.0845 17.2983 56.9597 17.2983 56.7934ZM21.2459 62.4787C21.3766 62.4787 21.5028 62.4698 21.6246 62.452C21.7464 62.4312 21.8429 62.4104 21.9142 62.3896V62.9554C21.834 62.9941 21.7152 63.0252 21.5578 63.049C21.4033 63.0757 21.2637 63.0891 21.139 63.0891C20.1944 63.0891 19.7221 62.5916 19.7221 61.5965V58.6915H19.0226V58.335L19.7221 58.0276L20.034 56.985H20.4617V58.1167H21.8786V58.6915H20.4617V61.5653C20.4617 61.8594 20.5315 62.0851 20.6711 62.2426C20.8107 62.4 21.0023 62.4787 21.2459 62.4787ZM23.487 56.486L23.5539 56.584C23.4767 56.881 23.3653 57.2271 23.2197 57.6221C23.0742 58.0142 22.9227 58.3796 22.7652 58.7182H22.2217C22.4296 57.8716 22.5811 57.1276 22.6761 56.486H23.487ZM27.5951 61.6678C27.5951 62.1223 27.4258 62.4728 27.0871 62.7193C26.7485 62.9658 26.2733 63.0891 25.6614 63.0891C25.0138 63.0891 24.5089 62.9866 24.1465 62.7817V62.0955C24.3811 62.2143 24.6321 62.3079 24.8995 62.3762C25.1698 62.4445 25.4297 62.4787 25.6792 62.4787C26.0653 62.4787 26.3624 62.4178 26.5703 62.296C26.7782 62.1713 26.8822 61.9826 26.8822 61.7302C26.8822 61.5401 26.799 61.3782 26.6327 61.2445C26.4693 61.1079 26.1485 60.9475 25.6703 60.7633C25.2158 60.594 24.892 60.447 24.699 60.3222C24.5089 60.1945 24.3663 60.0504 24.2712 59.89C24.1791 59.7296 24.1331 59.538 24.1331 59.3152C24.1331 58.9172 24.295 58.6038 24.6188 58.3751C24.9425 58.1434 25.3866 58.0276 25.951 58.0276C26.4767 58.0276 26.9906 58.1345 27.4926 58.3484L27.2297 58.9499C26.7396 58.7479 26.2955 58.6469 25.8975 58.6469C25.547 58.6469 25.2826 58.7019 25.1044 58.8118C24.9262 58.9217 24.8371 59.0732 24.8371 59.2662C24.8371 59.3969 24.8698 59.5083 24.9351 59.6004C25.0034 59.6925 25.1118 59.7801 25.2604 59.8633C25.4089 59.9465 25.694 60.0668 26.1158 60.2242C26.6951 60.4351 27.0857 60.6475 27.2876 60.8613C27.4926 61.0752 27.5951 61.344 27.5951 61.6678ZM34.176 63L34.0289 62.3049H33.9933C33.7497 62.6109 33.5061 62.8188 33.2626 62.9287C33.022 63.0356 32.7205 63.0891 32.3581 63.0891C31.8739 63.0891 31.4937 62.9644 31.2175 62.7148C30.9442 62.4653 30.8075 62.1104 30.8075 61.65C30.8075 60.6638 31.5962 60.147 33.1734 60.0994L34.0022 60.0727V59.7697C34.0022 59.3865 33.919 59.1043 33.7527 58.9232C33.5893 58.739 33.3264 58.6469 32.964 58.6469C32.5571 58.6469 32.0967 58.7717 31.5828 59.0212L31.3556 58.4553C31.5962 58.3246 31.8591 58.2221 32.1442 58.1479C32.4323 58.0736 32.7205 58.0365 33.0086 58.0365C33.5908 58.0365 34.0215 58.1657 34.3007 58.4241C34.5829 58.6826 34.724 59.0969 34.724 59.6672V63H34.176ZM32.5051 62.4787C32.9655 62.4787 33.3264 62.3525 33.5878 62.1C33.8522 61.8475 33.9844 61.494 33.9844 61.0396V60.5984L33.2447 60.6296C32.6566 60.6504 32.2318 60.7425 31.9704 60.9059C31.712 61.0663 31.5828 61.3173 31.5828 61.6589C31.5828 61.9262 31.663 62.1297 31.8234 62.2693C31.9868 62.4089 32.214 62.4787 32.5051 62.4787ZM40.24 63L39.3444 60.1351C39.288 59.9598 39.1825 59.5618 39.0281 58.941H38.9924C38.8736 59.4608 38.7696 59.8618 38.6805 60.144L37.7582 63H36.9028L35.5705 58.1167H36.3458C36.6607 59.3435 36.8998 60.2776 37.0632 60.9193C37.2295 61.5609 37.3246 61.993 37.3483 62.2158H37.384C37.4166 62.0465 37.4686 61.8282 37.5399 61.5609C37.6142 61.2905 37.678 61.0767 37.7315 60.9193L38.6271 58.1167H39.4291L40.3024 60.9193C40.4687 61.4302 40.5816 61.8594 40.641 62.2069H40.6766C40.6885 62.1 40.7197 61.9351 40.7702 61.7123C40.8237 61.4896 41.1341 60.291 41.7014 58.1167H42.4678L41.1177 63H40.24ZM45.4173 63.0891C44.6955 63.0891 44.1252 62.8693 43.7064 62.4297C43.2906 61.9901 43.0826 61.3797 43.0826 60.5984C43.0826 59.8113 43.2757 59.186 43.6619 58.7227C44.051 58.2593 44.5723 58.0276 45.2258 58.0276C45.8377 58.0276 46.3218 58.2296 46.6783 58.6335C47.0347 59.0345 47.2129 59.5648 47.2129 60.2242V60.692H43.849C43.8638 61.2653 44.0079 61.7005 44.2812 61.9975C44.5574 62.2945 44.9451 62.4431 45.4441 62.4431C45.9698 62.4431 46.4897 62.3332 47.0035 62.1133V62.7728C46.7421 62.8856 46.4941 62.9658 46.2594 63.0134C46.0278 63.0639 45.7471 63.0891 45.4173 63.0891ZM45.2168 58.6469C44.8248 58.6469 44.5114 58.7746 44.2767 59.0301C44.045 59.2855 43.9084 59.639 43.8668 60.0905H46.4198C46.4198 59.6242 46.3159 59.2677 46.108 59.0212C45.9 58.7717 45.603 58.6469 45.2168 58.6469ZM51.6284 61.6678C51.6284 62.1223 51.4591 62.4728 51.1205 62.7193C50.7818 62.9658 50.3066 63.0891 49.6947 63.0891C49.0471 63.0891 48.5422 62.9866 48.1798 62.7817V62.0955C48.4145 62.2143 48.6655 62.3079 48.9328 62.3762C49.2031 62.4445 49.463 62.4787 49.7125 62.4787C50.0987 62.4787 50.3957 62.4178 50.6036 62.296C50.8115 62.1713 50.9155 61.9826 50.9155 61.7302C50.9155 61.5401 50.8323 61.3782 50.666 61.2445C50.5026 61.1079 50.1818 60.9475 49.7036 60.7633C49.2491 60.594 48.9254 60.447 48.7323 60.3222C48.5422 60.1945 48.3996 60.0504 48.3046 59.89C48.2125 59.7296 48.1664 59.538 48.1664 59.3152C48.1664 58.9172 48.3283 58.6038 48.6521 58.3751C48.9759 58.1434 49.4199 58.0276 49.9843 58.0276C50.5101 58.0276 51.0239 58.1345 51.5259 58.3484L51.263 58.9499C50.7729 58.7479 50.3289 58.6469 49.9308 58.6469C49.5803 58.6469 49.316 58.7019 49.1377 58.8118C48.9595 58.9217 48.8704 59.0732 48.8704 59.2662C48.8704 59.3969 48.9031 59.5083 48.9684 59.6004C49.0367 59.6925 49.1452 59.7801 49.2937 59.8633C49.4422 59.9465 49.7274 60.0668 50.1492 60.2242C50.7284 60.4351 51.119 60.6475 51.321 60.8613C51.5259 61.0752 51.6284 61.344 51.6284 61.6678ZM57.0508 60.5539C57.0508 61.35 56.8503 61.9722 56.4493 62.4208C56.0483 62.8663 55.4943 63.0891 54.7874 63.0891C54.3508 63.0891 53.9631 62.9866 53.6245 62.7817C53.2859 62.5767 53.0245 62.2827 52.8403 61.8995C52.6562 61.5163 52.5641 61.0678 52.5641 60.5539C52.5641 59.7578 52.7631 59.1385 53.1611 58.6959C53.5591 58.2504 54.1116 58.0276 54.8186 58.0276C55.5018 58.0276 56.0439 58.2548 56.4449 58.7093C56.8488 59.1638 57.0508 59.7786 57.0508 60.5539ZM53.3304 60.5539C53.3304 61.1777 53.4552 61.6529 53.7047 61.9797C53.9542 62.3064 54.3211 62.4698 54.8052 62.4698C55.2894 62.4698 55.6562 62.3079 55.9057 61.9841C56.1582 61.6574 56.2845 61.1806 56.2845 60.5539C56.2845 59.9331 56.1582 59.4623 55.9057 59.1415C55.6562 58.8177 55.2864 58.6558 54.7963 58.6558C54.3121 58.6558 53.9468 58.8147 53.7002 59.1326C53.4537 59.4504 53.3304 59.9242 53.3304 60.5539ZM64.5763 63V59.8232C64.5763 59.4341 64.4931 59.143 64.3268 58.9499C64.1604 58.7538 63.902 58.6558 63.5515 58.6558C63.0911 58.6558 62.751 58.788 62.5312 59.0524C62.3114 59.3167 62.2015 59.7237 62.2015 60.2732V63H61.4618V59.8232C61.4618 59.4341 61.3787 59.143 61.2123 58.9499C61.046 58.7538 60.7861 58.6558 60.4326 58.6558C59.9692 58.6558 59.6291 58.7954 59.4123 59.0746C59.1984 59.3509 59.0915 59.8054 59.0915 60.438V63H58.3519V58.1167H58.9534L59.0737 58.785H59.1093C59.2489 58.5474 59.445 58.3618 59.6974 58.2281C59.9529 58.0944 60.238 58.0276 60.5529 58.0276C61.3163 58.0276 61.8153 58.3038 62.05 58.8563H62.0856C62.2312 58.6009 62.4421 58.3989 62.7183 58.2504C62.9946 58.1018 63.3094 58.0276 63.6629 58.0276C64.2154 58.0276 64.6283 58.1702 64.9015 58.4553C65.1778 58.7375 65.3159 59.1905 65.3159 59.8143V63H64.5763ZM68.9071 63.0891C68.1853 63.0891 67.615 62.8693 67.1962 62.4297C66.7803 61.9901 66.5724 61.3797 66.5724 60.5984C66.5724 59.8113 66.7654 59.186 67.1516 58.7227C67.5407 58.2593 68.062 58.0276 68.7155 58.0276C69.3274 58.0276 69.8116 58.2296 70.168 58.6335C70.5245 59.0345 70.7027 59.5648 70.7027 60.2242V60.692H67.3387C67.3536 61.2653 67.4976 61.7005 67.7709 61.9975C68.0472 62.2945 68.4348 62.4431 68.9338 62.4431C69.4596 62.4431 69.9794 62.3332 70.4933 62.1133V62.7728C70.2319 62.8856 69.9839 62.9658 69.7492 63.0134C69.5175 63.0639 69.2368 63.0891 68.9071 63.0891ZM68.7066 58.6469C68.3145 58.6469 68.0011 58.7746 67.7665 59.0301C67.5348 59.2855 67.3981 59.639 67.3566 60.0905H69.9096C69.9096 59.6242 69.8056 59.2677 69.5977 59.0212C69.3898 58.7717 69.0927 58.6469 68.7066 58.6469ZM72.6364 61.2044H72.1686L71.9413 56.486H72.8636L72.6364 61.2044ZM71.8611 62.5277C71.8611 62.1237 72.0394 61.9218 72.3958 61.9218C72.5681 61.9218 72.7003 61.9737 72.7923 62.0777C72.8874 62.1817 72.9349 62.3317 72.9349 62.5277C72.9349 62.7178 72.8874 62.8663 72.7923 62.9733C72.6973 63.0772 72.5651 63.1292 72.3958 63.1292C72.2413 63.1292 72.1136 63.0832 72.0126 62.9911C71.9116 62.896 71.8611 62.7416 71.8611 62.5277Z" fill="black"/>
<g clip-path="url(#clip0)">
<path d="M39.2225 34.0056C39.3201 34.2764 39.0519 34.5355 38.7846 34.4285L30.4878 31.1089C30.2072 30.9966 30.2084 30.599 30.4896 30.4884L33.9216 29.1394C34.0042 29.1069 34.0704 29.0429 34.1057 28.9616L35.5733 25.5786C35.6936 25.3014 36.091 25.314 36.1934 25.5983L39.2225 34.0056Z" fill="#C552B8"/>
</g>
<rect x="2.48779" y="13.0681" width="30" height="13.5" rx="6.75" fill="#C552B8"/>
<g clip-path="url(#clip1)">
<path d="M12.0718 20.4441C11.8878 21.1001 11.3678 21.5161 10.5678 21.5161C9.23979 21.5161 8.65579 20.4281 8.65579 19.2121C8.65579 18.0041 9.24779 16.9081 10.5758 16.9081C11.3598 16.9081 11.7918 17.2441 12.0078 17.8521H12.7678C12.5438 16.8761 11.7278 16.2521 10.5758 16.2521C8.87979 16.2521 7.92779 17.5161 7.92779 19.2121C7.92779 20.9081 8.87179 22.1721 10.5678 22.1721C11.8158 22.1721 12.6078 21.4601 12.8318 20.4441H12.0718ZM15.886 17.9321C15.334 17.9321 14.918 18.1721 14.718 18.4761H14.566V16.2521H13.886V22.0681H14.566V19.8761C14.566 19.1721 15.038 18.5401 15.758 18.5401C16.438 18.5401 16.79 18.9161 16.79 19.6521V22.0681H17.47V19.5321C17.47 18.5641 16.894 17.9321 15.886 17.9321ZM20.9781 18.0361H20.6981C20.1141 18.0361 19.7301 18.2761 19.5301 18.5241H19.3701V18.0361H18.7141V22.0681H19.3941V20.0521C19.3941 19.1721 19.8741 18.6761 20.6661 18.6761H20.9781V18.0361ZM22.6145 17.0521V16.2521H21.8305V17.0521H22.6145ZM22.5585 18.0361H21.8785V22.0681H22.5585V18.0361ZM25.0458 19.5721C24.6058 19.4921 24.4058 19.3721 24.4058 19.0681C24.4058 18.7081 24.7818 18.5241 25.2698 18.5241C25.7338 18.5241 26.1738 18.7001 26.2218 19.0841H26.8938C26.8138 18.3961 26.2378 17.9321 25.3098 17.9321C24.2378 17.9321 23.7258 18.4601 23.7258 19.1241C23.7258 19.7401 24.1578 20.0361 24.7738 20.1481L25.5818 20.2921C26.1178 20.3881 26.3258 20.5721 26.3258 20.9321C26.3258 21.3721 25.9178 21.5801 25.3178 21.5801C24.7338 21.5801 24.3258 21.3641 24.2378 20.9081H23.5578C23.6618 21.6761 24.2218 22.1721 25.3498 22.1721C26.4298 22.1721 27.0058 21.5721 27.0058 20.9161C27.0058 20.1801 26.5578 19.8361 25.8218 19.7081L25.0458 19.5721Z" fill="white"/>
</g>
<g clip-path="url(#clip2)">
<path d="M74.6789 101.48C74.5813 101.209 74.8495 100.95 75.1168 101.057L83.4136 104.376C83.6942 104.489 83.693 104.886 83.4117 104.997L79.9797 106.346C79.8972 106.378 79.831 106.442 79.7957 106.524L78.3281 109.907C78.2078 110.184 77.8104 110.171 77.7079 109.887L74.6789 101.48Z" fill="#4262FF"/>
</g>
<rect x="81.3877" y="109.068" width="26" height="13.5" rx="6.75" fill="#4262FF"/>
<path d="M87.8357 117.388V112.356H87.1157V118.068H91.0437V117.388H87.8357ZM92.7801 113.052V112.252H91.9961V113.052H92.7801ZM92.7241 114.036H92.0441V118.068H92.7241V114.036ZM95.2113 115.572C94.7713 115.492 94.5713 115.372 94.5713 115.068C94.5713 114.708 94.9473 114.524 95.4353 114.524C95.8993 114.524 96.3393 114.7 96.3873 115.084H97.0593C96.9793 114.396 96.4033 113.932 95.4753 113.932C94.4033 113.932 93.8913 114.46 93.8913 115.124C93.8913 115.74 94.3233 116.036 94.9393 116.148L95.7473 116.292C96.2833 116.388 96.4913 116.572 96.4913 116.932C96.4913 117.372 96.0833 117.58 95.4833 117.58C94.8993 117.58 94.4913 117.364 94.4033 116.908H93.7233C93.8273 117.676 94.3873 118.172 95.5153 118.172C96.5953 118.172 97.1713 117.572 97.1713 116.916C97.1713 116.18 96.7233 115.836 95.9873 115.708L95.2113 115.572ZM100.737 118.068H101.377V115.324C101.377 114.42 100.721 113.932 99.7127 113.932C98.8087 113.932 98.1607 114.364 98.1127 115.108H98.7927C98.8247 114.756 99.1367 114.524 99.7287 114.524C100.425 114.524 100.713 114.876 100.713 115.364V115.524H99.4007C98.2727 115.524 97.8567 116.212 97.8567 116.86C97.8567 117.548 98.3767 118.172 99.3127 118.172C99.8887 118.172 100.329 117.948 100.577 117.636H100.737V118.068ZM99.4727 117.58C98.8807 117.58 98.5367 117.3 98.5367 116.844C98.5367 116.372 98.8487 116.092 99.5047 116.092H100.713V116.452C100.713 117.084 100.153 117.58 99.4727 117.58Z" fill="white"/>
<path d="M40.933 40.5626C35.0826 41.9344 29.3081 43.7318 23.7663 46.2476C19.4372 48.213 15.2547 50.5903 11.9548 53.9294C8.15278 57.7766 3.18799 63.0591 2.45597 69.0048C0.487908 84.9903 30.6924 84.4843 39.2415 83.4592C50.5122 82.1077 60.946 79.581 71.1284 74.3046C79.7364 69.8441 85.9834 63.0435 85.2446 55.4472C84.6305 49.1327 81.5007 45.9935 77.6772 43.7275C73.8538 41.4616 69.8598 40.5962 63.0965 39.4983C56.2942 38.3941 47.3616 37.6212 42.2979 43.9209" stroke="#4262FF" stroke-linecap="round" stroke-linejoin="round"/>
<g clip-path="url(#clip3)">
<g filter="url(#filter2_d)">
<mask id="path-12-inside-1" fill="white">
<path fill-rule="evenodd" clip-rule="evenodd" d="M71.6983 27.8159C69.7798 27.8159 68.2246 29.3711 68.2246 31.2896V43.4474C68.2246 45.3659 69.7798 46.9211 71.6983 46.9211H76.9083L80.3821 50.3949L83.8559 46.9211H89.0667C90.9852 46.9211 92.5404 45.3659 92.5404 43.4475V31.2896C92.5404 29.3711 90.9852 27.8159 89.0667 27.8159H71.6983Z"/>
</mask>
<path fill-rule="evenodd" clip-rule="evenodd" d="M71.6983 27.8159C69.7798 27.8159 68.2246 29.3711 68.2246 31.2896V43.4474C68.2246 45.3659 69.7798 46.9211 71.6983 46.9211H76.9083L80.3821 50.3949L83.8559 46.9211H89.0667C90.9852 46.9211 92.5404 45.3659 92.5404 43.4475V31.2896C92.5404 29.3711 90.9852 27.8159 89.0667 27.8159H71.6983Z" fill="#7BCB3E"/>
<path d="M76.9083 46.9211L78.1364 45.693L77.6277 45.1843H76.9083V46.9211ZM80.3821 50.3949L79.154 51.6231L80.3821 52.8512L81.6102 51.6231L80.3821 50.3949ZM83.8559 46.9211V45.1843H83.1365L82.6278 45.693L83.8559 46.9211ZM69.9615 31.2896C69.9615 30.3303 70.7391 29.5527 71.6983 29.5527V26.079C68.8206 26.079 66.4878 28.4119 66.4878 31.2896H69.9615ZM69.9615 43.4474V31.2896H66.4878V43.4474H69.9615ZM71.6983 45.1843C70.7391 45.1843 69.9615 44.4067 69.9615 43.4474H66.4878C66.4878 46.3251 68.8206 48.658 71.6983 48.658V45.1843ZM76.9083 45.1843H71.6983V48.658H76.9083V45.1843ZM75.6802 48.1493L79.154 51.6231L81.6102 49.1668L78.1364 45.693L75.6802 48.1493ZM81.6102 51.6231L85.084 48.1493L82.6278 45.693L79.154 49.1668L81.6102 51.6231ZM89.0667 45.1843H83.8559V48.658H89.0667V45.1843ZM90.8036 43.4475C90.8036 44.4067 90.0259 45.1843 89.0667 45.1843V48.658C91.9444 48.658 94.2772 46.3252 94.2772 43.4475H90.8036ZM90.8036 31.2896V43.4475H94.2772V31.2896H90.8036ZM89.0667 29.5527C90.0259 29.5527 90.8036 30.3303 90.8036 31.2896H94.2772C94.2772 28.4119 91.9444 26.079 89.0667 26.079V29.5527ZM71.6983 29.5527H89.0667V26.079H71.6983V29.5527Z" fill="white" mask="url(#path-12-inside-1)"/>
</g>
<rect x="75.1716" y="33.9993" width="10.4211" height="1.73684" rx="0.86842" fill="white"/>
<rect x="75.1716" y="38.6886" width="10.4211" height="1.73684" rx="0.868421" fill="white"/>
</g>
<circle cx="92.5404" cy="26.9474" r="6.94737" fill="#FF0102"/>
<path d="M94.4994 25.2267C94.4994 25.614 94.382 25.9433 94.1474 26.2147C93.9128 26.4861 93.5834 26.6726 93.1594 26.7744V26.7999C93.6598 26.862 94.0386 27.0147 94.2958 27.2578C94.5531 27.4981 94.6817 27.8232 94.6817 28.2331C94.6817 28.8296 94.4654 29.2946 94.0329 29.6282C93.6004 29.9589 92.9827 30.1243 92.1799 30.1243C91.5071 30.1243 90.9106 30.0126 90.3905 29.7893V28.6741C90.6308 28.7956 90.8951 28.8946 91.1834 28.9709C91.4718 29.0472 91.7573 29.0854 92.04 29.0854C92.4725 29.0854 92.7919 29.0119 92.9983 28.8649C93.2046 28.7179 93.3078 28.4819 93.3078 28.1568C93.3078 27.8656 93.1891 27.6592 92.9516 27.5377C92.7142 27.4161 92.3354 27.3553 91.8152 27.3553H91.3445V26.3504H91.8237C92.3043 26.3504 92.6548 26.2882 92.8753 26.1638C93.0986 26.0366 93.2103 25.8203 93.2103 25.515C93.2103 25.0458 92.9163 24.8111 92.3283 24.8111C92.1248 24.8111 91.917 24.8451 91.705 24.9129C91.4958 24.9808 91.2626 25.0981 91.0053 25.2649L90.399 24.3617C90.9643 23.9546 91.6385 23.7511 92.4216 23.7511C93.0633 23.7511 93.5693 23.8811 93.9396 24.1412C94.3128 24.4012 94.4994 24.7631 94.4994 25.2267Z" fill="white"/>
<defs>
<filter id="filter0_f" x="6.48765" y="21.3382" width="77.1644" height="83.9081" filterUnits="userSpaceOnUse" color-interpolation-filters="sRGB">
<feFlood flood-opacity="0" result="BackgroundImageFix"/>
<feBlend mode="normal" in="SourceGraphic" in2="BackgroundImageFix" result="shape"/>
<feGaussianBlur stdDeviation="4.53938" result="effect1_foregroundBlur"/>
</filter>
<filter id="filter1_f" x="13.1965" y="30.8586" width="63.5022" height="70.2458" filterUnits="userSpaceOnUse" color-interpolation-filters="sRGB">
<feFlood flood-opacity="0" result="BackgroundImageFix"/>
<feBlend mode="normal" in="SourceGraphic" in2="BackgroundImageFix" result="shape"/>
<feGaussianBlur stdDeviation="1.12381" result="effect1_foregroundBlur"/>
</filter>
<filter id="filter2_d" x="66.4878" y="26.9475" width="27.7895" height="26.0527" filterUnits="userSpaceOnUse" color-interpolation-filters="sRGB">
<feFlood flood-opacity="0" result="BackgroundImageFix"/>
<feColorMatrix in="SourceAlpha" type="matrix" values="0 0 0 0 0 0 0 0 0 0 0 0 0 0 0 0 0 0 127 0"/>
<feOffset dy="0.868421"/>
<feGaussianBlur stdDeviation="0.868421"/>
<feColorMatrix type="matrix" values="0 0 0 0 0 0 0 0 0 0 0 0 0 0 0 0 0 0 0.1 0"/>
<feBlend mode="normal" in2="BackgroundImageFix" result="effect1_dropShadow"/>
<feBlend mode="normal" in="SourceGraphic" in2="effect1_dropShadow" result="shape"/>
</filter>
<clipPath id="clip0">
<rect width="13.3491" height="42" fill="white" transform="translate(44.4136 30.2123) rotate(136)"/>
</clipPath>
<clipPath id="clip1">
<rect width="20" height="9.5" fill="white" transform="translate(7.48779 15.0681)"/>
</clipPath>
<clipPath id="clip2">
<rect width="13.3491" height="42" fill="white" transform="translate(69.4878 105.273) rotate(-44)"/>
</clipPath>
<clipPath id="clip3">
<rect width="27.7895" height="27.7895" fill="white" transform="translate(66.4878 25.2105)"/>
</clipPath>
</defs>
</svg>

