<svg width="621" height="47" viewBox="0 0 621 47" fill="none" xmlns="http://www.w3.org/2000/svg">
<path fill-rule="evenodd" clip-rule="evenodd" d="M24.3423 46.0982V32.0628H28.1056V46.0982H24.3423ZM41.4818 35.4624C41.4282 35.4469 39.8909 35.0387 38.6273 35.0387C37.1644 35.0387 36.3686 35.5094 36.3686 36.1771C36.3686 37.0239 37.4431 37.3196 38.0431 37.5023L39.0499 37.8106C41.4203 38.5348 42.499 40.0938 42.499 41.7874C42.499 45.2799 39.3042 46.4546 36.5088 46.4546C34.5672 46.4546 32.7481 46.11 32.5688 46.0743V42.8734C32.8908 42.9514 34.4208 43.3905 36.0173 43.3905C37.8333 43.3905 38.6688 42.8806 38.6688 42.0933C38.6688 41.3881 37.9449 40.9811 37.04 40.7091C36.8198 40.6365 36.4869 40.536 36.26 40.4664C34.2275 39.8481 32.5316 38.6984 32.5316 36.3985C32.5316 33.7974 34.558 32.0521 37.9242 32.0521C39.7012 32.0521 41.3733 32.4668 41.4812 32.4942V35.4618L41.4818 35.4624ZM76.2058 39.2524C76.2058 43.2311 73.0116 46.4534 68.5612 46.4534C64.1108 46.4534 60.9202 43.2311 60.9202 39.2512C60.9202 35.2809 64.112 32.055 68.5612 32.055C73.011 32.055 76.2058 35.2809 76.2058 39.2524ZM68.5612 35.5963C66.3951 35.5963 64.7858 37.2345 64.7858 39.2524C64.7858 41.2763 66.3951 42.9115 68.5612 42.9115C70.7242 42.9115 72.3377 41.2763 72.3377 39.2524C72.3377 37.2345 70.7242 35.5963 68.5612 35.5963ZM18.9664 36.2866C18.8194 36.2128 17.6461 35.5451 15.899 35.5451C13.5354 35.5451 11.898 37.1233 11.898 39.253C11.898 41.3191 13.4671 42.9639 15.9008 42.9639C17.6162 42.9639 18.8097 42.3087 18.9664 42.2266V45.9583C18.5133 46.0814 17.2668 46.4534 15.6362 46.4534C11.5346 46.4534 7.93304 43.7327 7.93304 39.2512C7.93304 35.1012 11.1937 32.055 15.6374 32.055C17.3552 32.055 18.623 32.4549 18.9664 32.5537V36.2866ZM57.0754 36.2866C56.9259 36.2128 55.7502 35.5451 54.0056 35.5451C51.6431 35.5451 50.0064 37.1233 50.0064 39.253C50.0064 41.3191 51.5724 42.9639 54.0043 42.9639C55.7203 42.9639 56.915 42.3087 57.0754 42.2266V45.9583C56.618 46.0814 55.3691 46.4534 53.7488 46.4534C49.6417 46.4534 46.0371 43.7327 46.0371 39.2512C46.0371 35.1012 49.299 32.055 53.7488 32.055C55.4606 32.055 56.7302 32.4549 57.0754 32.5537V36.2866Z" fill="#050038"/>
<path fill-rule="evenodd" clip-rule="evenodd" d="M83.2674 13.0832C83.2656 12.121 82.4551 11.3421 81.4587 11.3432C80.461 11.3421 79.6512 12.121 79.6494 13.0838V16.7334C79.6329 17.366 79.9744 17.9575 80.5403 18.2776C81.1068 18.5989 81.8087 18.5989 82.3758 18.2776C82.9424 17.9563 83.2826 17.3648 83.2662 16.7334V13.0832H83.2674ZM73.325 8.29351C73.325 7.33485 72.5176 6.55411 71.4956 6.55411C70.4998 6.55233 69.6911 7.33009 69.6893 8.29113V8.29232V16.734C69.6893 17.695 70.4961 18.474 71.4919 18.474H71.4956C72.5164 18.474 73.325 17.6962 73.325 16.7328V8.29053V8.29291V8.29351ZM63.3637 1.7388C63.3625 0.777168 62.5539 -0.00118402 61.5581 3.05658e-06H61.5569C60.561 -0.00177909 59.7518 0.775978 59.75 1.73761V1.73821V20.2009C59.7195 20.8412 60.0567 21.4464 60.6281 21.7736C61.2007 22.1015 61.9136 22.1003 62.485 21.7707C63.0546 21.444 63.3924 20.8412 63.3631 20.2021V1.7388H63.3637ZM53.4 8.29351C53.3988 7.33247 52.5896 6.55411 51.5944 6.5553C50.5979 6.55352 49.7893 7.33187 49.7869 8.29291V8.29351V16.7334C49.7887 17.6944 50.5973 18.4728 51.5938 18.471H51.5944C52.5896 18.4728 53.3988 17.6944 53.4 16.7334V8.29113V8.29351ZM43.44 13.0832C43.4375 12.124 42.6307 11.348 41.6367 11.3492C40.6421 11.3468 39.8329 12.1216 39.8268 13.082V16.734C39.828 17.695 40.6367 18.4734 41.6331 18.4716C42.6289 18.474 43.4381 17.6956 43.44 16.7346V16.734V13.0838V13.0832ZM33.4958 8.29351C33.4939 7.3283 32.6823 6.54816 31.6828 6.54935C30.6833 6.54816 29.871 7.3283 29.8698 8.29351V16.7334C29.871 17.6974 30.6827 18.4775 31.6816 18.4764H31.6822C32.681 18.4781 33.4921 17.698 33.4945 16.734V16.7334V8.29113V8.29351H33.4958ZM23.5381 1.7388C23.5381 0.780739 22.724 0.00238639 21.7258 0.00238639C20.7263 0.00238639 19.9122 0.778954 19.9122 1.7388V20.2009C19.914 21.1655 20.7257 21.9462 21.7252 21.9444C22.7246 21.9462 23.5363 21.1655 23.5381 20.2009V1.7388ZM13.5823 8.29351C13.5805 7.3283 12.7689 6.54816 11.7688 6.54935C10.7693 6.54816 9.95762 7.3283 9.95579 8.29351V16.7334C9.95762 17.6974 10.7687 18.4775 11.7675 18.4764H11.7682C12.7676 18.4781 13.5787 17.698 13.5811 16.734V16.7334V8.29113V8.29351H13.5823ZM3.62533 13.0838C3.62533 12.1264 2.81123 11.3486 1.81297 11.3486C0.814709 11.3486 0 12.1264 0 13.0826V16.7328C0.00182944 17.6974 0.813489 18.4781 1.81297 18.4764C2.81184 18.4781 3.62411 17.698 3.62594 16.7334V13.0832L3.62533 13.0838Z" fill="#050038"/>
<path d="M142.484 26.643C142.484 23.8039 140.6 22.1911 137.933 22.1911H136.301V31.098H137.887C140.366 31.098 142.484 29.7502 142.484 26.643ZM171.518 29.8476L159.493 39.316L148.504 30.6637C146.918 34.4732 143.086 37.1192 138.673 37.1192H129.267V16.1668H138.673C143.604 16.1668 147.157 19.3025 148.501 22.6433L159.493 14L163.565 17.2046L153.49 25.1231L155.426 26.6385L165.498 18.7245L169.576 21.9201L159.502 29.8476L161.436 31.366L171.518 23.437V16.1668H178.827V31.0036H186.118V37.1447H171.518V29.8476ZM195.377 31.0066H202.665V37.1447H188.06V16.1668H195.377V31.0066Z" fill="#050038"/>
<path d="M419.077 26.9162C419.077 23.2245 419.083 19.5299 419.069 15.841C419.069 15.3278 419.408 15.0086 419.921 15.0086C420.87 15.0029 421.825 15 422.775 15.0086C423.313 15.0143 423.627 15.3421 423.621 15.8467C423.607 19.1137 423.613 22.3863 423.613 25.6533V25.8329C423.618 26.1949 423.778 26.4601 424.112 26.6026C424.434 26.7394 424.736 26.6682 424.998 26.3888C425.956 25.3625 426.911 24.3334 427.863 23.3043C428.448 22.6714 429.041 22.0471 429.619 21.4114C429.839 21.1719 430.092 21.0579 430.42 21.0636C431.615 21.0721 432.815 21.0721 434.009 21.0636C434.363 21.0636 434.642 21.1719 434.791 21.4997C434.942 21.839 434.87 22.1412 434.617 22.4177C432.823 24.4018 431.036 26.3888 429.246 28.3729C429.103 28.5326 428.964 28.6979 428.852 28.8804C428.653 29.2025 428.653 29.5189 428.838 29.8468C429.038 30.2003 429.32 30.4853 429.599 30.7733C431.769 33.0026 433.944 35.2319 436.119 37.4555C436.381 37.7263 436.458 38.0228 436.327 38.3706C436.202 38.6955 435.954 38.8438 435.546 38.8438C434.218 38.8438 432.886 38.8381 431.558 38.8438C431.258 38.8438 431.028 38.7497 430.814 38.5216C428.884 36.4948 426.939 34.4793 425.001 32.4609C424.724 32.1701 424.417 32.096 424.097 32.23C423.775 32.3583 423.607 32.632 423.607 33.0282V37.9971C423.607 38.533 423.336 38.8096 422.806 38.8124H419.887C419.302 38.8124 419.074 38.5815 419.074 38.0057L419.077 26.9162ZM437.191 23.2016C437.191 20.7585 437.199 18.3126 437.182 15.8695C437.177 15.3164 437.499 15 438.06 15C438.984 15.0057 439.902 15 440.823 15C441.362 15 441.669 15.3022 441.669 15.8381C441.675 17.2635 441.675 18.6917 441.678 20.1171C441.678 20.7329 441.994 21.0522 442.604 21.0522H446.439C446.844 21.0522 447.109 21.2717 447.188 21.6679C447.228 21.8589 447.214 22.0499 447.22 22.2466V24.6099C447.22 25.2285 446.943 25.5051 446.325 25.5051C445.099 25.5051 443.873 25.4994 442.647 25.4994C442.02 25.4994 441.698 25.8158 441.692 26.4344C441.687 27.6916 441.667 28.9431 441.684 30.2003C441.709 32.116 443.178 33.8806 445.085 34.331C445.646 34.465 446.216 34.4878 446.787 34.408C447.251 34.3424 447.588 34.5904 447.642 35.058C447.759 36.0529 447.864 37.0507 447.967 38.0456C448.007 38.4247 447.73 38.7725 447.34 38.8352C446.288 39.0148 445.236 38.9521 444.201 38.7183C440.506 37.8916 437.792 34.9382 437.262 31.1952C437.208 30.8246 437.191 30.454 437.191 30.0862V23.2016ZM469.995 34.8755C469.995 34.5363 469.735 34.2997 469.396 34.2826C469.165 34.274 468.937 34.2655 468.706 34.2455C467.526 34.1571 466.919 33.6041 466.705 32.441C466.54 31.5544 466.545 30.6535 466.539 29.7527C466.531 27.1671 466.534 24.5814 466.534 21.9958C466.534 21.9188 466.534 21.8475 466.528 21.7734C466.497 21.3544 466.194 21.055 465.77 21.055C464.775 21.0493 463.777 21.0493 462.782 21.055C462.332 21.055 462.013 21.3772 461.993 21.8219C461.987 21.9302 461.993 22.0414 461.993 22.1697C461.907 22.1241 461.841 22.0927 461.779 22.0613C459.983 21.1177 458.078 20.8127 456.077 21.1462C450.983 22.0015 447.662 27.1043 448.928 32.1103C450.535 38.4618 458.15 40.9904 463.244 36.8568C463.364 36.7599 463.412 36.7627 463.506 36.8939C464.031 37.6436 464.724 38.1853 465.585 38.5131C466.534 38.8751 467.523 38.9236 468.526 38.8523C468.883 38.8267 469.236 38.7754 469.561 38.6129C469.792 38.496 469.98 38.3221 469.986 38.057C470.006 36.9965 470 35.936 469.995 34.8755ZM457.599 34.4165C455.122 34.408 453.152 32.3925 453.161 29.8667C453.169 27.4778 455.194 25.4937 457.622 25.4994C460.114 25.5051 462.081 27.5063 462.075 30.0378C462.067 32.4239 460.028 34.4194 457.599 34.4165ZM407.951 21.018C403.218 21.0265 399.108 24.6812 399.002 29.7584C398.894 35.0095 403.053 38.7668 407.697 38.8837C412.663 39.0091 416.777 35.0893 416.862 30.1376C416.945 25.0974 412.997 21.075 407.951 21.018ZM407.919 34.4165C405.476 34.4165 403.472 32.4096 403.466 29.958C403.461 27.5034 405.462 25.4994 407.928 25.4908C410.388 25.4851 412.381 27.4835 412.381 29.9523C412.381 32.421 410.388 34.4165 407.919 34.4165Z" fill="#050038"/>
<path d="M587.226 27.5337H582.104V26.0899C582.104 25.1413 582.378 24.3613 582.894 23.8449C583.347 23.3918 583.98 23.1388 584.654 23.1388C586.298 23.1493 587.215 24.1928 587.215 26.0899C587.226 26.0899 587.226 27.1859 587.226 27.5337ZM589.102 23.6974C588.006 22.7278 586.478 22.2219 584.686 22.2219C583.084 22.2219 581.492 22.9491 580.312 24.2349C579.047 25.5944 578.352 27.4705 578.341 29.494C578.341 31.486 579.058 33.3093 580.375 34.6266C581.629 35.8914 583.305 36.5764 585.097 36.5764C588.543 36.5659 590.482 34.0153 590.82 31.6546L590.841 31.5281H589.776L589.766 31.6229C589.523 33.5411 587.89 35.5857 585.339 35.5752C583.305 35.5752 582.135 34.184 582.125 31.76V28.5454H591.052V28.4296C590.978 26.3639 590.324 24.7724 589.102 23.6974ZM561.131 33.4673H560.129L560.108 33.5517C559.992 34.184 559.592 35.2485 558.306 35.2379C557.305 35.2379 556.788 34.5318 556.788 33.1511V23.5288H560.087V22.5907H556.809V18.4277L556.693 18.4383C555.924 18.5226 554.354 18.6385 553.532 18.6385H553.426V22.5907H551.245V23.5393H553.437V31.918C553.437 35.0061 554.765 36.5659 557.368 36.5659C560.361 36.5659 560.983 34.2894 561.109 33.5938L561.131 33.4673ZM523.79 18.9231L526.952 27.9552H520.839L523.79 18.9231ZM549.253 35.2485V26.7327C549.253 25.4153 548.831 24.2876 548.02 23.476C547.208 22.6645 546.038 22.2219 544.731 22.2219C542.94 22.2219 541.506 22.9386 540.452 24.3403L540.421 22.7067V22.6013H535.056V23.5288H537.164V35.2485H533.402L525.676 13.0738L525.655 13H524.707L517.129 35.2485H515V36.1759H521.313V35.2485H518.404L520.502 28.9143H527.257L529.386 35.2485H526.446V36.1759H542.56V35.2485H540.452V28.7457C540.463 24.8673 542.529 23.455 543.92 23.455C545.269 23.455 545.954 24.3297 545.954 26.0477V35.2485H543.983V36.1759H551.392V35.2485H549.253Z" fill="#050038"/>
<path d="M575.738 35.2485V26.5957C575.738 24.5722 574.505 22.2219 571.059 22.2219C568.382 22.2219 566.991 23.5183 566.401 24.1927V13.0632H561.026V14.0329H563.039V35.2485H560.868V36.176H568.477V35.2485H566.401V28.6615C566.401 26.3849 567.181 25.1307 567.834 24.4773C568.466 23.845 569.278 23.4972 570.11 23.4972C571.955 23.4972 572.345 25.0149 572.355 26.2901V35.2485H570.279V36.176H577.888V35.2485H575.738ZM615.999 35.2485H613.933V26.0687C613.933 23.6869 612.299 22.2114 609.686 22.2114C607.209 22.2114 605.86 23.4445 605.238 24.2665C604.553 22.9175 603.215 22.2008 601.37 22.2114C599.599 22.2114 598.019 22.8648 596.965 24.0031L596.933 22.6962V22.5908H591.463V23.5183H593.697V35.238H591.495V36.1654H598.935V35.238H597.038V28.7668C597.102 26.8802 597.186 25.6682 597.86 24.7408C598.44 23.9714 599.368 23.4867 600.274 23.4867C601.391 23.4867 601.792 24.3298 601.834 24.4247C602.119 24.9621 602.119 25.8896 602.119 26.7855V35.238H600.137V36.1654H607.43V35.238H605.523V28.7668C605.585 26.8802 605.67 25.6682 606.344 24.7408C606.925 23.9714 607.852 23.4867 608.758 23.4867C609.876 23.4867 610.275 24.3298 610.318 24.4247C610.602 24.9621 610.602 25.8896 610.602 26.7855V35.238H608.631V36.1654H616.104V35.238H615.999V35.2485ZM618.613 34.2789C618.886 34.2789 619.277 34.3211 619.277 33.9522C619.277 33.6781 619.045 33.636 618.802 33.636H618.254V34.2789H618.613ZM618.265 35.396H618.011V33.4041H618.865C619.382 33.4041 619.561 33.5938 619.561 33.9522C619.561 34.3316 619.287 34.4791 618.95 34.5107L619.54 35.396H619.256L618.696 34.5107H618.275V35.396H618.265ZM620.119 34.4053C620.119 33.5622 619.508 32.9509 618.665 32.9509C617.811 32.9509 617.2 33.5622 617.2 34.4053C617.2 35.2591 617.811 35.8703 618.665 35.8703C619.508 35.8703 620.119 35.2591 620.119 34.4053ZM616.915 34.4053C616.915 33.4568 617.695 32.6663 618.665 32.6663C619.624 32.6663 620.404 33.4463 620.404 34.4053C620.404 35.3644 619.624 36.1549 618.665 36.1549C617.695 36.1549 616.915 35.3749 616.915 34.4053Z" fill="#050038"/>
<path d="M281.788 10.9394H250.874V5.20824H281.788V10.9394ZM283.997 3H248.665V13.1465H283.997V3Z" fill="#050038"/>
<path d="M250.874 29.9165H248.665V19.77H250.874V23.7796H254.819V19.77H257.028V29.9165H254.819V25.7116H250.874V29.9165Z" fill="#050038"/>
<path d="M260.372 25.468H263.003C262.954 24.7218 262.646 24.2017 261.785 24.2017C261.135 24.2017 260.567 24.4782 260.372 25.468ZM262.045 30.0789C259.804 30.0789 258.278 28.6663 258.278 26.3458C258.278 24.0883 259.772 22.53 261.753 22.53C263.912 22.53 264.984 23.9749 264.984 26.1344V26.9464H260.372C260.633 28.0657 261.509 28.3576 262.386 28.3576C263.149 28.3576 263.701 28.1959 264.383 27.7731H264.465V29.4454C263.88 29.8682 263.051 30.0789 262.045 30.0789Z" fill="#050038"/>
<path d="M270.748 25.6633L269.612 29.9165H267.68L265.471 22.773V22.6918H267.582L268.784 26.9618L269.92 22.6918H271.642L272.795 26.9618L274.013 22.6918H276.043V22.773L273.834 29.9165H271.901L270.748 25.6633Z" fill="#050038"/>
<path d="M279.631 30.0789C277.877 30.0789 277.162 29.381 277.162 27.7416V19.7706H279.306V27.5953C279.306 28.0986 279.5 28.2771 279.922 28.2771C280.069 28.2771 280.28 28.2288 280.41 28.1798H280.443V29.9494C280.264 30.0138 279.955 30.0789 279.631 30.0789Z" fill="#050038"/>
<path d="M283.138 25.468H285.768C285.719 24.7218 285.411 24.2017 284.55 24.2017C283.902 24.2017 283.332 24.4782 283.138 25.468ZM284.81 30.0789C282.569 30.0789 281.043 28.6663 281.043 26.3458C281.043 24.0883 282.537 22.53 284.518 22.53C286.678 22.53 287.749 23.9749 287.749 26.1344V26.9464H283.138C283.398 28.0657 284.275 28.3576 285.151 28.3576C285.915 28.3576 286.466 28.1959 287.149 27.7731H287.23V29.4454C286.646 29.8682 285.817 30.0789 284.81 30.0789Z" fill="#050038"/>
<path d="M296.548 22.6918H298.139V24.4124H296.548V27.351C296.548 27.9845 296.792 28.2771 297.441 28.2771C297.62 28.2771 297.847 28.2603 298.091 28.1791H298.139V29.8675C297.863 29.9655 297.441 30.0782 296.825 30.0782C295.086 30.0782 294.405 29.283 294.405 27.4483V24.4124H291.661V27.351C291.661 27.9845 291.904 28.2771 292.553 28.2771C292.732 28.2771 292.96 28.2603 293.203 28.1791H293.252V29.8675C292.976 29.9655 292.553 30.0782 291.937 30.0782C290.199 30.0782 289.517 29.283 289.517 27.4483V24.4124H288.413V22.6918H289.517V20.7115H291.661V22.6918H294.405V20.7115H296.548V22.6918Z" fill="#050038"/>
<path d="M305.362 24.754C306.483 24.754 307.018 24.1212 307.018 23.2119C307.018 22.2697 306.483 21.6369 305.362 21.6369H303.965V24.754H305.362ZM309.259 23.2119C309.259 25.4204 307.782 26.6209 305.54 26.6209H303.965V29.9165H301.758V19.77H305.54C307.782 19.77 309.259 20.9712 309.259 23.2119Z" fill="#050038"/>
<path d="M313.968 27.6435V27.0268C313.643 26.849 313.222 26.7839 312.783 26.7839C312.085 26.7839 311.663 27.0429 311.663 27.6274C311.663 28.2287 312.085 28.4884 312.718 28.4884C313.318 28.4884 313.773 28.1797 313.968 27.6435ZM314.033 29.2024C313.562 29.7708 312.865 30.0466 312.117 30.0466C310.705 30.0466 309.551 29.187 309.551 27.6596C309.551 26.2477 310.705 25.3062 312.36 25.3062C312.88 25.3062 313.416 25.3874 313.968 25.5491V25.4203C313.968 24.6405 313.53 24.3003 312.378 24.3003C311.646 24.3003 310.948 24.5103 310.347 24.8519H310.266V23.1306C310.818 22.8065 311.793 22.53 312.75 22.53C314.926 22.53 316.111 23.5688 316.111 25.3874V29.9164H314.033V29.2024Z" fill="#050038"/>
<path d="M317.2 26.3129C317.2 23.991 318.841 22.53 320.985 22.53C321.748 22.53 322.462 22.6924 322.998 23.0816V24.9164H322.916C322.445 24.5594 321.893 24.348 321.26 24.348C320.189 24.348 319.377 25.0795 319.377 26.3129C319.377 27.5463 320.189 28.261 321.26 28.261C321.893 28.261 322.445 28.0496 322.916 27.6919H322.998V29.5266C322.462 29.9165 321.748 30.0789 320.985 30.0789C318.841 30.0789 317.2 28.6348 317.2 26.3129Z" fill="#050038"/>
<path d="M326.487 26.6377V29.9165H324.344V19.77H326.487V25.5492L328.647 22.6918H331.082V22.773L328.485 26.0525L331.082 29.8353V29.9165H328.63L326.487 26.6377Z" fill="#050038"/>
<path d="M335.888 27.6435V27.0268C335.564 26.849 335.142 26.7839 334.703 26.7839C334.005 26.7839 333.583 27.0429 333.583 27.6274C333.583 28.2287 334.005 28.4884 334.638 28.4884C335.24 28.4884 335.694 28.1797 335.888 27.6435ZM335.954 29.2024C335.482 29.7708 334.784 30.0466 334.038 30.0466C332.624 30.0466 331.472 29.187 331.472 27.6596C331.472 26.2477 332.624 25.3062 334.282 25.3062C334.801 25.3062 335.336 25.3874 335.888 25.5491V25.4203C335.888 24.6405 335.45 24.3003 334.297 24.3003C333.567 24.3003 332.868 24.5103 332.267 24.8519H332.186V23.1306C332.738 22.8065 333.713 22.53 334.67 22.53C336.848 22.53 338.032 23.5688 338.032 25.3874V29.9164H335.954V29.2024Z" fill="#050038"/>
<path d="M341.637 23.8608C342.027 23.0649 342.595 22.6106 343.392 22.6106C343.684 22.6106 343.975 22.6757 344.088 22.7408V24.7862H344.008C343.764 24.6882 343.472 24.6238 343.066 24.6238C342.4 24.6238 341.881 25.0137 341.702 25.7599V29.9165H339.559V22.6918H341.637V23.8608Z" fill="#050038"/>
<path d="M349.772 27.4651V25.1432C349.415 24.6238 348.944 24.397 348.407 24.397C347.466 24.397 346.833 25.0795 346.833 26.3129C346.833 27.5463 347.466 28.212 348.407 28.212C348.944 28.212 349.415 27.9845 349.772 27.4651ZM349.836 29.1703C349.382 29.7548 348.667 30.0789 347.693 30.0789C345.842 30.0789 344.657 28.3912 344.657 26.3129C344.657 24.2346 345.842 22.53 347.693 22.53C348.635 22.53 349.317 22.8226 349.772 23.3582V19.7706H351.915V29.9165H349.836V29.1703Z" fill="#050038"/>
<path d="M248.665 33.2302H254.933V34.4636H250.078V37.5639H254.478V38.7658H250.078V42.1426H254.933V43.376H248.665V33.2302Z" fill="#050038"/>
<path d="M260.113 36.0869C261.72 36.0869 262.613 37.1425 262.613 38.8785V43.376H261.266V38.9114C261.266 37.986 260.795 37.3203 259.772 37.3203C258.928 37.3203 258.213 37.8565 257.97 38.6188V43.376H256.622V36.2332H257.97V37.272C258.392 36.6063 259.106 36.0869 260.113 36.0869Z" fill="#050038"/>
<path d="M266.234 36.2333H268.069V37.3862H266.234V41.2334C266.234 42.0447 266.657 42.3212 267.42 42.3212C267.63 42.3212 267.858 42.289 268.02 42.2239H268.069V43.3761C267.875 43.4573 267.598 43.5224 267.225 43.5224C265.552 43.5224 264.887 42.7587 264.887 41.3636V37.3862H263.653V36.2333H264.887V34.3349H266.234V36.2333Z" fill="#050038"/>
<path d="M270.325 39.1061H273.881C273.833 38.0512 273.313 37.2399 272.209 37.2399C271.186 37.2399 270.52 38.0029 270.325 39.1061ZM272.452 43.5224C270.357 43.5224 268.928 42.1259 268.928 39.8859C268.928 37.6452 270.26 36.087 272.193 36.087C274.157 36.087 275.18 37.4996 275.18 39.5933V40.2107H270.276C270.422 41.6555 271.348 42.3534 272.631 42.3534C273.427 42.3534 273.994 42.1749 274.628 41.7038H274.677V42.8896C274.092 43.3439 273.329 43.5224 272.452 43.5224Z" fill="#050038"/>
<path d="M278.12 37.3371C278.429 36.5741 279.111 36.1198 279.89 36.1198C280.199 36.1198 280.475 36.1681 280.588 36.2332V37.5639H280.54C280.345 37.4673 280.02 37.4183 279.695 37.4183C278.965 37.4183 278.348 37.9048 278.12 38.7168V43.376H276.773V36.2332H278.12V37.3371Z" fill="#050038"/>
<path d="M284.939 42.3043C286.27 42.3043 287.05 41.2494 287.05 39.8039C287.05 38.3759 286.27 37.3049 284.939 37.3049C284.208 37.3049 283.526 37.7431 283.169 38.4403V41.185C283.526 41.8822 284.208 42.3043 284.939 42.3043ZM285.166 36.0869C287.293 36.0869 288.43 37.8243 288.43 39.8039C288.43 41.7856 287.293 43.5223 285.166 43.5223C284.289 43.5223 283.542 43.068 283.169 42.5801V46.12H281.821V36.2332H283.169V37.0445C283.542 36.5412 284.289 36.0869 285.166 36.0869Z" fill="#050038"/>
<path d="M291.37 37.3371C291.678 36.5741 292.36 36.1198 293.14 36.1198C293.448 36.1198 293.724 36.1681 293.837 36.2332V37.5639H293.789C293.595 37.4673 293.27 37.4183 292.945 37.4183C292.214 37.4183 291.597 37.9048 291.37 38.7168V43.376H290.022V36.2332H291.37V37.3371Z" fill="#050038"/>
<path d="M295.787 33.3438C296.258 33.3438 296.647 33.7168 296.647 34.1879C296.647 34.659 296.258 35.0322 295.787 35.0322C295.332 35.0322 294.926 34.659 294.926 34.1879C294.926 33.7168 295.332 33.3438 295.787 33.3438Z" fill="#050038"/>
<path d="M295.12 43.3761H296.469V36.2333H295.12V43.3761Z" fill="#050038"/>
<path d="M301.274 39.2041C302.297 39.5282 303.433 39.9503 303.433 41.3139C303.433 42.7755 302.232 43.5224 300.69 43.5224C299.748 43.5224 298.806 43.2949 298.27 42.8728V41.5904H298.335C298.936 42.142 299.829 42.3856 300.673 42.3856C301.436 42.3856 302.119 42.093 302.119 41.4763C302.119 40.8435 301.551 40.6972 300.43 40.3241C299.423 39.9993 298.303 39.6255 298.303 38.2787C298.303 36.8983 299.439 36.087 300.885 36.087C301.729 36.087 302.476 36.2655 303.076 36.6715V37.9707H303.028C302.444 37.4996 301.761 37.2231 300.917 37.2231C300.073 37.2231 299.601 37.5969 299.601 38.1002C299.601 38.6686 300.121 38.8303 301.274 39.2041Z" fill="#050038"/>
<path d="M305.998 39.1061H309.554C309.505 38.0512 308.986 37.2399 307.881 37.2399C306.859 37.2399 306.193 38.0029 305.998 39.1061ZM308.125 43.5224C306.031 43.5224 304.602 42.1259 304.602 39.8859C304.602 37.6452 305.933 36.087 307.865 36.087C309.831 36.087 310.853 37.4996 310.853 39.5933V40.2107H305.949C306.096 41.6555 307.021 42.3534 308.303 42.3534C309.1 42.3534 309.668 42.1749 310.301 41.7038H310.35V42.8896C309.766 43.3439 309.002 43.5224 308.125 43.5224Z" fill="#050038"/>
</svg>
