<svg width="127" height="54" viewBox="0 0 127 54" fill="none" xmlns="http://www.w3.org/2000/svg">
<path d="M17.3348 26.1272C17.2819 25.3337 17.0703 24.5403 16.6472 23.8526L13.0502 17.5579C12.7857 17.0819 12.5741 16.5529 12.4683 16.0239L12.3096 16.2884C11.4104 17.8224 11.4104 19.7796 12.3096 21.3136L15.219 26.3388C16.1182 27.8728 16.1182 29.83 15.219 31.364L15.0603 31.6285C14.9545 31.0995 14.7429 30.5705 14.4784 30.0945L11.8336 25.4924L10.1409 22.5302C9.87639 22.0542 9.66481 21.5252 9.55901 20.9962L9.40032 21.2607C8.50108 22.7947 8.50108 24.699 9.40032 26.2859L12.3096 31.3111C13.2089 32.8451 13.2089 34.8023 12.3096 36.3363L12.151 36.6008C12.0452 36.0718 11.8336 35.5428 11.5691 35.0667L7.91921 28.772C7.44314 27.9257 7.23156 26.9735 7.23156 26.0214C3.3701 27.0264 0.672363 29.1952 0.672363 31.6814C0.672363 35.1725 5.85624 37.9761 12.2567 37.9761C18.6572 37.9761 23.8411 35.1725 23.8411 31.6814C23.894 29.301 21.2492 27.1322 17.3348 26.1272ZM28.2845 36.8652C28.3374 35.966 28.4431 35.3841 28.7076 34.6436C29.9243 35.2254 31.5112 35.4899 32.6749 35.4899C34.685 35.4899 35.8487 34.8552 35.8487 33.5327C35.8487 32.2632 35.0023 31.6814 32.9923 30.7821L31.8814 30.3589C29.8185 29.4597 28.4431 28.296 28.4431 26.0214C28.4431 23.5353 30.1887 21.9484 33.6799 21.9484C35.1081 21.9484 36.4305 22.1599 37.6472 22.5831C37.5943 23.4295 37.4356 24.1171 37.224 24.7519C36.0603 24.3287 34.6321 24.1171 33.627 24.1171C31.7227 24.1171 30.8764 24.8577 30.8764 26.0214C30.8764 27.1322 31.7227 27.8199 33.2567 28.4547L34.4205 28.9307C37.1711 30.0945 38.3348 31.364 38.3348 33.4798C38.3348 35.966 36.4305 37.7116 32.7278 37.7116C30.9822 37.7116 29.5011 37.4471 28.2845 36.8652ZM50.025 26.4446V37.3413H47.8033L47.6976 36.0189C47.0628 36.971 46.1635 37.6058 44.6295 37.6058C41.7731 37.6058 39.8159 35.4899 39.8159 31.84C39.8159 28.0315 41.8789 25.8098 45.8991 25.8098C47.486 25.8627 48.8084 26.0214 50.025 26.4446ZM47.6447 34.8552V28.0315C47.1686 27.9257 46.5867 27.9257 45.8991 27.9257C43.4129 27.9257 42.2492 29.4597 42.2492 31.8929C42.2492 34.1146 43.1484 35.7015 45.2643 35.7015C46.2693 35.6486 47.0099 35.3312 47.6447 34.8552ZM62.2971 30.0416V37.3413H59.9167V30.4647C59.9167 28.7191 59.3348 27.9257 56.9545 27.9257C56.3726 27.9257 55.7379 27.9786 55.0502 28.0844V37.3413H52.6698V26.4446C54.2039 26.0743 55.8965 25.8098 57.0074 25.8098C61.0275 25.8627 62.2971 27.3967 62.2971 30.0416ZM68.962 35.5957C69.6497 35.5957 70.3374 35.4899 70.8134 35.2783C70.7605 35.9131 70.6547 36.6536 70.5489 37.2884C69.9142 37.5529 69.1736 37.6587 68.5389 37.6587C66.2114 37.6587 64.7303 36.6008 64.7303 33.9559V22.4773C65.4709 22.2128 66.3701 22.107 67.1106 22.107V26.233H70.9192C70.8663 26.9735 70.8134 27.6612 70.7076 28.296H67.1106V33.6385C67.1106 35.0138 67.7983 35.5957 68.962 35.5957ZM81.8159 26.4446V37.3413H79.5943L79.4885 36.0189C78.8537 36.971 77.9545 37.6058 76.4205 37.6058C73.564 37.6058 71.6069 35.4899 71.6069 31.84C71.6069 28.0315 73.6698 25.8098 77.69 25.8098C79.2769 25.8627 80.5464 26.0214 81.8159 26.4446ZM79.3827 34.8552V28.0315C78.9066 27.9257 78.3248 27.9257 77.6371 27.9257C75.151 27.9257 73.9872 29.4597 73.9872 31.8929C73.9872 34.1146 74.8865 35.7015 77.0023 35.7015C78.0074 35.6486 78.8008 35.3312 79.3827 34.8552ZM94.088 30.0416V37.3413H91.6547V30.4647C91.6547 28.7191 91.0729 27.9257 88.6925 27.9257C88.1106 27.9257 87.4759 27.9786 86.7882 28.0844V37.3413H84.4079V26.4446C85.9419 26.0743 87.6346 25.8098 88.7454 25.8098C92.7656 25.8627 94.088 27.3967 94.088 30.0416ZM106.201 22.107V37.3413H103.98L103.874 35.966C103.239 36.971 102.34 37.6058 100.753 37.6058C97.8965 37.6058 95.9394 35.4899 95.9394 31.84C95.9394 28.0315 98.0023 25.8098 102.022 25.8098C102.657 25.8098 103.239 25.8627 103.821 25.9685V22.3715C104.562 22.1599 105.408 22.107 106.201 22.107ZM103.821 34.8552V28.1373C103.186 28.0315 102.551 27.9257 101.917 27.9257C99.5363 27.9257 98.4255 29.4068 98.4255 31.8929C98.4255 34.1146 99.3248 35.7015 101.441 35.7015C102.393 35.6486 103.186 35.3312 103.821 34.8552ZM118.262 32.6864H110.592C110.909 34.6436 112.02 35.5428 114.189 35.5428C115.511 35.5428 116.834 35.2783 117.997 34.6965C117.892 35.3312 117.786 36.1776 117.627 36.8652C116.516 37.3413 115.405 37.5529 114.083 37.5529C110.063 37.5529 108.159 35.3312 108.159 31.6285C108.159 28.4018 109.64 25.8098 113.448 25.8098C116.886 25.8098 118.368 28.0315 118.368 30.7821C118.368 31.5227 118.368 32.0516 118.262 32.6864ZM110.592 30.6763H115.987C115.987 28.8778 115.035 27.8199 113.395 27.8199C111.65 27.8728 110.75 28.8249 110.592 30.6763ZM126.672 25.9685C126.672 26.7091 126.567 27.5554 126.461 28.0315C125.879 27.9786 125.35 27.9257 124.662 27.9257C124.08 27.9257 123.499 27.9786 122.917 28.0315V37.3413H120.536V26.4446C121.541 26.0743 123.287 25.8098 124.609 25.8098C125.297 25.8627 126.143 25.8627 126.672 25.9685Z" fill="#EA1D25"/>
</svg>
