<svg width="108" height="54" viewBox="0 0 108 54" fill="none" xmlns="http://www.w3.org/2000/svg">
<path d="M53.2084 31.6249H49.0165V34.7083H53.056V36.0523H49.0165V39.2938H53.3608V40.6378H47.5684V30.2809H53.2084V31.6249Z" fill="#009B3E"/>
<path d="M56.4859 30.2809H57.7816V40.6378H56.4859V30.2809Z" fill="#009B3E"/>
<path d="M62.7354 37.3962H67.3847C67.3847 34.8663 66.2414 33.6804 64.5647 33.6804C62.7354 33.6804 61.5159 35.0244 61.5159 37.159C61.5159 39.0565 62.6592 40.7958 64.7171 40.7958C65.7841 40.7958 66.5463 40.4796 67.3085 40.0052V38.7402C66.5463 39.2937 65.7841 39.5308 65.022 39.5308C63.7263 39.4518 62.9641 38.7402 62.7354 37.3962ZM64.5647 34.7872C65.4793 34.7872 66.089 35.4197 66.089 36.5265H62.8117C62.9641 35.4197 63.5738 34.7872 64.5647 34.7872Z" fill="#009B3E"/>
<path d="M75.6163 35.5778C74.8541 35.0244 74.3968 34.8663 73.7871 34.8663C72.5676 34.8663 71.8054 35.815 71.8054 37.159C71.8054 38.5821 72.6438 39.4518 74.0158 39.4518C74.5493 39.4518 75.0828 39.2936 75.7688 38.9774V40.3214C75.3115 40.5586 74.4731 40.7167 73.7871 40.7167C71.8054 40.7167 70.4335 39.2936 70.4335 37.3171C70.4335 35.1034 71.653 33.6804 73.6347 33.6804C74.3968 33.6804 74.9304 33.8385 75.5401 34.1547V35.5778H75.6163Z" fill="#009B3E"/>
<path d="M83.4665 33.7594V34.9453H81.4086V38.424C81.4086 39.2146 81.9422 39.4518 82.3232 39.4518C82.7805 39.4518 83.2379 39.2937 83.7714 38.9774V40.2424C83.3141 40.4796 82.6281 40.7168 82.1708 40.7168C80.7989 40.7168 80.0367 39.768 80.0367 38.5821V35.0244H78.8934V34.8663L81.3324 32.4154V33.7594H83.4665Z" fill="#009B3E"/>
<path d="M88.1919 33.7594V35.3406C88.8779 34.1547 89.4876 33.6012 90.0974 33.6012C90.6309 33.6012 91.0882 33.8384 91.6979 34.3918L91.012 35.5777C90.6309 35.1824 90.0974 34.9453 89.7925 34.9453C88.8779 34.9453 88.1919 35.894 88.1919 37.0008V40.5585H86.8962V33.7594H88.1919Z" fill="#009B3E"/>
<path d="M95.2802 33.7595H96.5759V40.6377H95.2802V33.7595Z" fill="#009B3E"/>
<path d="M105.036 35.5778C104.274 35.0244 103.817 34.8663 103.207 34.8663C101.987 34.8663 101.225 35.815 101.225 37.159C101.225 38.5821 102.064 39.4518 103.435 39.4518C103.969 39.4518 104.503 39.2936 105.188 38.9774V40.3214C104.731 40.5586 103.893 40.7167 103.207 40.7167C101.225 40.7167 99.8532 39.2936 99.8532 37.3171C99.8532 35.1034 101.073 33.6804 103.054 33.6804C103.817 33.6804 104.35 33.8385 104.96 34.1547V35.5778H105.036Z" fill="#009B3E"/>
<path d="M12.2793 15.0221C9.84033 13.9153 8.31598 13.52 6.86786 13.52C5.34351 13.52 4.35269 14.0734 4.35269 14.943C4.35269 17.6311 13.0415 16.8405 13.0415 23.0072C13.0415 26.3278 10.2976 28.3833 6.48677 28.3833C3.43808 28.3833 1.98995 27.5927 0.31317 26.644V22.8491C2.75212 24.5884 4.20025 25.1419 6.10568 25.1419C7.78246 25.1419 8.62085 24.5884 8.62085 23.4816C8.69707 20.6354 0.00830078 21.6632 0.00830078 15.3383C0.00830078 12.255 2.59969 10.2785 6.56299 10.2785C8.46842 10.2785 10.2214 10.6738 12.3555 11.6225V15.0221H12.2793Z" fill="#009B3E"/>
<path d="M24.4743 27.5926C23.0262 28.067 21.8067 28.3832 20.5872 28.3832C16.5477 28.3832 13.8801 25.9323 13.8801 22.2165C13.8801 18.5797 16.6239 16.0498 20.4348 16.0498C21.578 16.0498 23.1024 16.366 24.3219 16.8404V19.6075C23.331 19.1331 22.264 18.7378 21.3494 18.7378C19.1391 18.7378 17.7672 20.0819 17.7672 22.2165C17.7672 24.3511 19.1391 25.7742 21.1969 25.7742C22.1116 25.7742 22.8737 25.537 24.3981 24.9046V27.5926H24.4743Z" fill="#009B3E"/>
<path d="M33.8488 26.0906V21.347C33.8488 19.6076 33.1629 18.738 32.0196 18.738C31.1812 18.738 30.4952 19.2914 29.5806 20.5564V28.1462H25.9222V10.5157H29.5806V17.9474H29.6568C30.7239 16.6033 31.8672 15.9708 33.3153 15.9708C35.4494 15.9708 37.5073 17.3149 37.5073 20.5564V25.379C36.2878 25.379 34.8397 25.8534 33.8488 26.0906Z" fill="#009B3E"/>
<path d="M39.1844 25.1418C39.1844 23.0071 39.1844 16.2079 39.1844 16.2079H42.8428V17.9472C43.9861 16.6032 45.1293 16.0498 46.6537 16.0498C48.4829 16.0498 50.8456 17.1566 50.8456 20.6353V28.2251H47.1872V20.9515C47.1872 19.2122 46.425 18.5797 45.358 18.5797C44.4434 18.5797 43.8336 19.0541 42.8428 20.5562C42.8428 20.5562 42.8428 23.8768 42.8428 25.7742C41.6233 25.3789 40.3277 25.2208 39.1844 25.1418Z" fill="#009B3E"/>
<path d="M58.3148 15.9708C54.7326 15.9708 52.2174 18.5798 52.2174 22.2166C52.2174 25.9324 54.885 28.3833 58.9245 28.3833C59.8391 28.3833 61.9732 28.3833 64.1073 26.8021V24.4303C62.4305 25.6953 61.2873 26.1696 59.8391 26.1696C57.5526 26.1696 56.1807 24.9046 56.0283 22.8491H64.2598C64.4122 18.4217 61.6684 15.9708 58.3148 15.9708ZM56.0283 20.7935C56.1807 19.1332 57.0953 18.1845 58.5434 18.1845C59.9154 18.1845 60.9062 19.2123 60.9824 20.7935H56.0283Z" fill="#009B3E"/>
<path d="M65.6312 16.208H69.2897V28.1462H65.6312V16.208Z" fill="#009B3E"/>
<path d="M79.3509 10.5157V16.7614C78.4362 16.2871 77.4454 16.0499 76.3784 16.0499C73.101 16.0499 70.8145 18.5798 70.8145 22.2166C70.8145 25.7743 73.101 28.3833 76.2259 28.3833C77.4454 28.3833 78.4362 28.0671 79.4271 27.1974V28.1461H83.0855V10.5157H79.3509ZM79.3509 24.9047C78.6649 25.6162 77.9789 25.8534 77.2168 25.8534C75.54 25.8534 74.3967 24.3512 74.3967 22.2166C74.3967 19.8448 75.4638 18.4217 77.293 18.4217C77.9789 18.4217 78.8173 18.7379 79.3509 19.1332V24.9047Z" fill="#009B3E"/>
<path d="M90.5546 15.9708C86.9724 15.9708 84.4573 18.5798 84.4573 22.2166C84.4573 25.9324 87.1249 28.3833 91.1644 28.3833C92.079 28.3833 94.2131 28.3833 96.3472 26.8021V24.4303C94.6704 25.6953 93.5271 26.1696 92.079 26.1696C89.7925 26.1696 88.4206 24.9046 88.2681 22.8491H96.5758C96.652 18.4217 93.9082 15.9708 90.5546 15.9708ZM88.3443 20.7935C88.4968 19.1332 89.4114 18.1845 90.7833 18.1845C92.2314 18.1845 93.146 19.2123 93.2985 20.7935H88.3443Z" fill="#009B3E"/>
<path d="M101.911 19.6076C102.978 17.0777 104.197 15.9708 105.646 15.9708C106.332 15.9708 106.941 16.2871 108.008 17.0777L107.017 20.3982C106.103 19.7657 105.493 19.5285 104.883 19.5285C103.588 19.5285 102.673 20.8726 101.911 23.0072V28.2252H98.3287V16.208H101.987V19.6076H101.911Z" fill="#009B3E"/>
<path d="M69.4425 11.1481C69.7474 12.0968 69.1376 13.4408 68.0706 14.0733C67.0035 14.7849 65.784 14.5477 65.4791 13.599C65.1743 12.6502 65.784 11.3853 66.8511 10.6737C67.9181 9.96219 69.1376 10.1994 69.4425 11.1481Z" fill="#009B3E"/>
<path d="M96.6518 31.3876C96.8042 31.7039 96.4994 32.1782 96.1183 32.4154C95.7372 32.6526 95.3561 32.5735 95.2037 32.2573C95.0512 31.941 95.2799 31.4667 95.661 31.2295C96.1183 30.9133 96.4994 30.9923 96.6518 31.3876Z" fill="#009B3E"/>
<path fill-rule="evenodd" clip-rule="evenodd" d="M42.5373 27.6718C39.7172 25.1419 34.382 26.4859 30.5712 30.518C26.7603 34.5501 25.9981 39.9262 28.8182 42.4561C31.6382 44.9861 37.0496 43.642 40.7843 39.6099C41.3274 39.0241 41.8085 38.4141 42.2262 37.7915H39.3363L39.7936 36.2894H43.1009C43.3365 35.8154 43.5361 35.3395 43.6991 34.8663H40.0984L40.5557 33.3641H44.0955C44.5098 31.0858 44.016 28.9984 42.5373 27.6718ZM29.3521 32.0994C29.0472 32.5737 28.7423 33.048 28.4374 33.6015H31.1051L31.5624 32.0993L29.3521 32.0994ZM27.3702 36.5265C27.4464 36.0522 27.5989 35.4988 27.8275 35.0244H30.8762L30.4189 36.5265H27.3702ZM29.4282 40.2425H33.2391C34.9921 40.2425 37.1261 38.8985 37.5834 37.1591L38.7267 32.4946C38.8029 32.0993 38.9553 32.0202 39.4127 32.0202H41.3943L41.9278 29.8856H38.117C36.4402 29.8856 34.3061 31.3087 33.925 33.048L33.0104 37.3173C32.9342 37.6335 32.4769 37.8707 32.172 37.8707H30.0379L29.4282 40.2425Z" fill="#009B3E"/>
</svg>
