<svg width="77" height="54" viewBox="0 0 77 54" fill="none" xmlns="http://www.w3.org/2000/svg">
<path d="M71.2828 0.963025H4.80328C4.21577 0.963023 3.63402 1.07892 3.09136 1.30407C2.5487 1.52922 2.05579 1.8592 1.64084 2.27513C1.2259 2.69105 0.897074 3.18474 0.673202 3.72793C0.44933 4.27112 0.334808 4.85313 0.336194 5.44065V47.3196C0.334506 48.4607 0.770627 49.559 1.55468 50.3882C2.33873 51.2173 3.41097 51.7141 4.55043 51.7761H71.5567C72.6944 51.7091 73.7637 51.2108 74.5467 50.3827C75.3297 49.5547 75.7676 48.4592 75.771 47.3196V5.44065C75.771 4.85175 75.6548 4.26864 75.4291 3.7247C75.2034 3.18076 74.8727 2.68668 74.4558 2.27076C74.0389 1.85484 73.544 1.52524 72.9995 1.30084C72.4551 1.07643 71.8717 0.961639 71.2828 0.963025Z" fill="white"/>
<path d="M74.4119 44.1905H1.68481V47.3196H74.4119V44.1905Z" fill="#0093D0"/>
<path d="M74.4119 41.0088H1.68481V44.1905H74.4119V41.0088Z" fill="#FFC425"/>
<path d="M4.62414 50.4803H71.4724C72.2717 50.4242 73.0199 50.0666 73.5656 49.4798C74.1113 48.893 74.4138 48.1209 74.4118 47.3196H1.71632C1.71435 48.1209 2.01681 48.893 2.56251 49.4798C3.10821 50.0666 3.85641 50.4242 4.65575 50.4803" fill="#EE3124"/>
<path d="M71.2828 2.31157H4.80325C3.96499 2.31157 3.16106 2.64457 2.56832 3.23732C1.97558 3.83006 1.64258 4.63399 1.64258 5.47225V40.9982H74.3381V5.44064C74.3381 4.60238 74.0051 3.79845 73.4123 3.20571C72.8196 2.61297 72.0157 2.27997 71.1774 2.27997" fill="#00467F"/>
<path d="M21.406 21.6491L21.4066 21.6496C21.4624 21.699 21.5201 21.7502 21.5655 21.7919H21.6182C21.635 21.8187 21.6439 21.8497 21.6439 21.8814C21.6439 21.9131 21.635 21.9441 21.6182 21.971C21.0164 22.8258 20.2203 23.5255 19.2953 24.0127C18.3704 24.4999 17.343 24.7606 16.2977 24.7734C15.402 24.8273 14.5048 24.6981 13.6607 24.3938C12.8166 24.0895 12.0434 23.6164 11.3881 23.0034C10.7347 22.3351 10.2197 21.5444 9.87257 20.6766C9.52545 19.8088 9.35306 18.881 9.36529 17.9464C9.33394 16.092 10.0167 14.2965 11.2722 12.9314C11.8993 12.2777 12.6565 11.7628 13.4948 11.4198C14.3332 11.0768 15.2342 10.9134 16.1397 10.9402C17.4343 10.9379 18.7102 11.2488 19.8587 11.8463C20.1221 11.9938 20.238 11.9938 20.238 11.8463L20.3855 11.3616C20.4007 11.3198 20.4104 11.2931 20.429 11.276C20.4619 11.2457 20.5227 11.2457 20.691 11.2457C20.7203 11.2457 20.7463 11.2452 20.7694 11.2448C20.8473 11.2432 20.8924 11.2423 20.9185 11.2641C20.9544 11.2941 20.9544 11.3672 20.9544 11.5407C20.9544 11.8779 21.3232 14.87 21.3969 15.4389C21.418 15.5443 21.3969 15.6285 21.3232 15.6285L20.965 15.7339C20.8807 15.776 20.7648 15.7023 20.7648 15.5443C20.4611 14.6354 19.9611 13.8045 19.3003 13.1105C18.8893 12.6749 18.3949 12.3264 17.8465 12.0856C17.2981 11.8449 16.7069 11.7169 16.1081 11.7093C13.1265 11.7093 11.8938 14.4064 11.8938 17.1035C11.88 18.8786 12.4917 20.6019 13.6217 21.971C14.0047 22.4368 14.4877 22.8104 15.0349 23.0639C15.5821 23.3174 16.1793 23.4444 16.7823 23.4354C17.6039 23.4513 18.4185 23.2825 19.1662 22.9415C19.9138 22.6005 20.5753 22.096 21.1019 21.4653C21.1078 21.4653 21.1179 21.4636 21.1296 21.4617C21.1594 21.4567 21.1997 21.4501 21.2073 21.4653C21.214 21.4787 21.3069 21.5611 21.406 21.6491Z" fill="white"/>
<path d="M45.3971 23.8463H44.6491C44.4594 23.8463 44.3857 23.6988 44.3435 23.3616C44.3169 23.1482 44.324 22.8462 44.3328 22.4715C44.3379 22.2543 44.3435 22.0126 44.3435 21.7497V16.6715C44.3435 16.5083 44.3435 16.4563 44.321 16.4433C44.3105 16.4373 44.2951 16.4397 44.2725 16.4433C44.2529 16.4464 44.2279 16.4503 44.196 16.4503C44.0394 16.4623 43.8861 16.5015 43.743 16.5662C43.6055 16.6212 43.1769 16.7759 42.7149 16.9426C42.1148 17.1592 41.4581 17.3962 41.3093 17.4617C41.2145 17.4617 41.1829 17.5355 41.1829 17.6092V17.8199C41.1829 17.8937 41.1829 17.9464 41.362 17.9885C42.2259 18.2097 42.3418 18.589 42.3418 19.1474V23.4775C42.3418 23.7831 42.2364 23.8463 42.0468 23.8463C41.7382 23.869 41.4283 23.869 41.1197 23.8463C40.7688 23.8672 40.417 23.8672 40.0661 23.8463C39.6552 23.8463 39.6131 23.5829 39.5815 23.2457V17.2194C39.5815 16.1658 39.5815 12.2887 39.6552 11.2773C39.6552 11.0139 39.5815 10.9402 39.4761 10.9402C39.3348 10.9611 39.1967 11.0001 39.0652 11.0561C38.1629 11.4951 37.221 11.8479 36.2522 12.1096C36.1363 12.1096 36.1047 12.215 36.1047 12.2571V12.5521C36.1047 12.6364 36.1047 12.668 36.2101 12.7102L36.5894 12.8155C36.8554 12.8605 37.0968 12.9985 37.2705 13.205C37.4442 13.4115 37.5388 13.673 37.5376 13.9428C37.5376 14.1263 37.5496 14.4728 37.5646 14.9034C37.5893 15.6104 37.6218 16.5446 37.6218 17.3564V23.2247C37.6218 23.7409 37.3374 23.8884 37.1477 23.8884H36.1785C35.8626 23.9045 35.5461 23.9045 35.2303 23.8884C34.8102 23.8884 34.7774 23.6267 34.7355 23.291L34.7351 23.2879V17.2194C34.7351 16.1658 34.7351 12.2887 34.8088 11.2773C34.8088 11.0139 34.7351 10.9402 34.6192 10.9402C34.4782 10.9625 34.3402 11.0014 34.2083 11.0561C33.306 11.4951 32.3641 11.8479 31.3953 12.1096C31.2794 12.1096 31.2478 12.215 31.2478 12.2571V12.5521C31.2478 12.6364 31.2478 12.668 31.3637 12.7102L31.7325 12.8155C31.9986 12.8622 32.2401 13.0004 32.4152 13.2062C32.5903 13.4121 32.6879 13.6726 32.6912 13.9428C32.6912 14.1263 32.7018 14.4728 32.7149 14.9034C32.7365 15.6104 32.7649 16.5447 32.7649 17.3564V23.2247C32.7649 23.7409 32.4805 23.8884 32.3014 23.8884H31.585C31.3637 23.8884 31.3216 23.8884 31.3216 24.0465V24.4047C31.3216 24.51 31.3216 24.5838 31.4691 24.5838H45.5025C45.5762 24.5838 45.6605 24.51 45.6605 24.4047V24.0254C45.6605 23.9306 45.6605 23.8884 45.4709 23.8884L45.3971 23.8463Z" fill="white"/>
<path d="M55.4268 19.6743C55.4268 18.8104 55.2793 18.5154 54.721 18.2099L54.3838 18.0202C54.2679 18.0202 54.2363 17.9465 54.2363 17.8727V17.7568C54.2363 17.6831 54.2363 17.6515 54.3838 17.5883L56.649 16.5347C56.7432 16.496 56.8426 16.4711 56.944 16.461C57.0599 16.461 57.0915 16.5769 57.1125 16.6822L57.2811 18.0308H57.3549C57.5596 17.5836 57.8733 17.195 58.2672 16.9005C58.6611 16.606 59.1226 16.415 59.6095 16.3451C59.736 16.3377 59.8627 16.3567 59.9815 16.4009C60.1003 16.445 60.2086 16.5132 60.2997 16.6013C60.3908 16.6895 60.4626 16.7955 60.5107 16.9128C60.5587 17.0301 60.5819 17.156 60.5787 17.2827C60.5787 17.5622 60.4677 17.8301 60.2702 18.0277C60.0726 18.2253 59.8046 18.3363 59.5252 18.3363C59.306 18.3361 59.0897 18.2857 58.8931 18.1888C58.7391 18.0817 58.5535 18.0297 58.3663 18.0413C58.1999 18.0569 58.0402 18.1144 57.9021 18.2083C57.7639 18.3023 57.6518 18.4297 57.5761 18.5786C57.4346 18.8674 57.359 19.1841 57.3549 19.5057V23.0878C57.3549 23.6884 57.5023 23.8675 57.8816 23.8675H58.7034C58.8193 23.8675 58.8509 23.8675 58.8509 24.0044V24.4364C58.8509 24.5312 58.8509 24.5628 58.7245 24.5628C58.695 24.5628 58.6273 24.56 58.5234 24.5556C58.1812 24.5411 57.4466 24.5101 56.3961 24.5101C55.3649 24.5101 54.7279 24.54 54.4131 24.5548C54.3098 24.5596 54.2412 24.5628 54.2047 24.5628C54.1313 24.5628 54.0996 24.5628 54.0863 24.5472C54.0763 24.5354 54.0768 24.5146 54.0777 24.4781L54.0781 24.4576L54.0782 24.4519L54.0783 24.4364V24.0255C54.0783 23.9096 54.0783 23.8675 54.2469 23.8675H54.9001C54.9673 23.8747 55.0353 23.8663 55.0989 23.8431C55.1624 23.8199 55.2198 23.7825 55.2666 23.7337C55.3134 23.6848 55.3484 23.6259 55.3688 23.5614C55.3893 23.497 55.3947 23.4287 55.3847 23.3618L55.4268 19.6743Z" fill="white"/>
<path fill-rule="evenodd" clip-rule="evenodd" d="M48.7579 22.3305C48.3049 21.7658 48.0862 21.0488 48.1468 20.3275V19.7375H52.6771C53.0142 19.7375 53.2039 19.7164 53.2039 19.4425C53.2039 18.6734 52.4769 16.4398 50.3698 16.4398C49.7538 16.3643 49.1288 16.4521 48.5574 16.6943C47.986 16.9366 47.4883 17.3248 47.1143 17.82C46.4571 18.5923 46.1248 19.5892 46.1872 20.6014C46.1489 21.1601 46.2223 21.7209 46.4032 22.2509C46.5841 22.7809 46.8688 23.2696 47.2407 23.6883C47.5785 24.0601 47.9978 24.3487 48.4657 24.5315C48.9336 24.7142 49.4375 24.7863 49.9379 24.7419C50.6354 24.7653 51.3254 24.5919 51.929 24.2417C52.5326 23.8914 53.0256 23.3784 53.3514 22.7612C53.4778 22.5189 53.4462 22.4346 53.3514 22.3819L53.0775 22.2133C52.9932 22.1817 52.9194 22.1817 52.8457 22.3082C52.5902 22.6634 52.2477 22.9469 51.851 23.1314C51.4543 23.3159 51.0168 23.3952 50.5805 23.3617C49.8632 23.2643 49.2108 22.8952 48.7579 22.3305ZM51.0862 18.8103C51.0862 18.9578 50.8544 19.0737 50.4646 19.0737H48.1995C48.4418 17.82 48.958 17.1457 49.9273 17.1457C50.8966 17.1457 51.0862 18.252 51.0862 18.8103Z" fill="white"/>
<path fill-rule="evenodd" clip-rule="evenodd" d="M30.5783 18.8888C30.3624 18.3736 30.0414 17.9091 29.6357 17.5251L29.5409 17.5567C29.167 17.1945 28.7248 16.9101 28.2401 16.7202C27.7554 16.5303 27.2378 16.4386 26.7174 16.4504C25.7506 16.4225 24.8056 16.74 24.0519 17.346C23.5839 17.7223 23.2017 18.1942 22.931 18.7303C22.6602 19.2663 22.5072 19.854 22.4821 20.454C22.4525 20.9847 22.5306 21.5158 22.7116 22.0156C22.8927 22.5153 23.173 22.9732 23.5356 23.3618C23.899 23.8101 24.3634 24.166 24.8908 24.4004C25.4182 24.6348 25.9936 24.741 26.5699 24.7103C27.1619 24.7202 27.7493 24.6052 28.2939 24.3729C28.8385 24.1405 29.328 23.796 29.7305 23.3618C30.454 22.5887 30.8667 21.5758 30.8895 20.5172C30.9002 19.9587 30.7942 19.4041 30.5783 18.8888ZM28.6454 20.4396C28.6405 18.3939 27.5897 17.1985 26.6963 17.1985C26.4741 17.1876 26.2524 17.2275 26.0479 17.3151C25.8435 17.4028 25.6617 17.5358 25.5163 17.7042C24.8904 18.5003 24.6027 19.5107 24.7156 20.5172C24.6391 21.4133 24.8415 22.3112 25.2951 23.0879C25.4385 23.3492 25.6534 23.5642 25.9146 23.7079C26.1758 23.8516 26.4725 23.9179 26.77 23.8991C28.0095 23.8991 28.6416 22.3492 28.6454 20.4396Z" fill="white"/>
<path d="M61.2213 21.9709C61.1581 21.992 61.1581 22.0552 61.1581 22.1289L61.432 24.0464C61.4658 24.1232 61.5162 24.1916 61.5795 24.2466C62.1988 24.585 62.897 24.7522 63.6024 24.7312C63.9903 24.7798 64.3841 24.7469 64.7586 24.6348C65.1331 24.5226 65.4802 24.3336 65.7776 24.0798C66.075 23.826 66.3162 23.513 66.4859 23.1608C66.6556 22.8086 66.75 22.4249 66.763 22.0341C66.7912 21.7541 66.7577 21.4712 66.6648 21.2055C66.572 20.9397 66.4221 20.6976 66.2257 20.4959C65.7202 19.9789 65.0635 19.6359 64.3504 19.5161C63.2231 19.2211 62.6647 18.9999 62.6647 18.2308C62.6791 18.0759 62.7243 17.9255 62.7976 17.7883C62.8708 17.6512 62.9707 17.53 63.0914 17.4319C63.212 17.3338 63.3511 17.2607 63.5003 17.217C63.6496 17.1733 63.806 17.1597 63.9606 17.1772C64.1865 17.1799 64.4089 17.2334 64.6113 17.3337C64.8137 17.434 64.991 17.5786 65.13 17.7567L66.0361 18.8102C66.0408 18.8248 66.0484 18.8383 66.0585 18.8499C66.0685 18.8616 66.0807 18.8711 66.0944 18.8779C66.1081 18.8848 66.1231 18.8889 66.1384 18.8899C66.1537 18.8909 66.1691 18.8889 66.1836 18.884L66.5418 18.726C66.5643 18.6575 66.5643 18.5837 66.5418 18.5152L66.2889 17.2404C66.2784 17.1245 66.2152 17.0508 65.9413 16.9033C65.3801 16.6094 64.7516 16.4677 64.1186 16.4924C63.4173 16.4729 62.7301 16.692 62.1695 17.114C61.8596 17.3347 61.6103 17.63 61.4446 17.9724C61.2789 18.3149 61.2021 18.6936 61.2213 19.0736C61.2213 20.3695 62.2011 21.0227 63.5075 21.4231C64.814 21.8234 65.2986 22.1289 65.2986 22.877C65.2908 23.0409 65.2498 23.2016 65.178 23.3492C65.1062 23.4969 65.0052 23.6284 64.881 23.7358C64.7569 23.8431 64.6122 23.9242 64.4558 23.974C64.2994 24.0238 64.1345 24.0412 63.9711 24.0253C63.627 24.0354 63.2881 23.9398 62.9999 23.7514C62.7117 23.5631 62.4881 23.291 62.3592 22.9718L61.7376 21.9182C61.706 21.8656 61.6533 21.8656 61.569 21.8656L61.2213 21.9709Z" fill="white"/>
<path d="M44.2485 14.0377C44.2638 14.197 44.2456 14.3578 44.1951 14.5097C44.1446 14.6616 44.063 14.8013 43.9553 14.9198C43.8477 15.0383 43.7165 15.1329 43.5701 15.1977C43.4237 15.2625 43.2654 15.296 43.1053 15.296C42.9453 15.296 42.787 15.2625 42.6406 15.1977C42.4942 15.1329 42.363 15.0383 42.2554 14.9198C42.1477 14.8013 42.066 14.6616 42.0156 14.5097C41.9651 14.3578 41.9469 14.197 41.9622 14.0377C41.9895 13.7535 42.1218 13.4896 42.3331 13.2976C42.5445 13.1056 42.8198 12.9992 43.1053 12.9992C43.3909 12.9992 43.6662 13.1056 43.8775 13.2976C44.0889 13.4896 44.2211 13.7535 44.2485 14.0377Z" fill="white"/>
<path d="M10.1133 27.8604H10.7349V32.0641H10.1133V27.8604Z" fill="white"/>
<path d="M15.4864 32.0641L13.0106 28.914V32.0641H12.3995V27.8604H12.9473L15.36 30.9263V27.8604H15.9816V32.0641H15.4864Z" fill="white"/>
<path d="M18.6577 28.4504V32.0641H19.2899V28.4504H20.649V27.8604H17.3092V28.4504H18.6577Z" fill="white"/>
<path d="M21.9764 32.0641V27.8604H25.0528V28.4399H22.598V29.6515H24.7999V30.2309H22.598V31.4741H25.0844V32.0641H21.9764Z" fill="white"/>
<path d="M34.3766 32.0641H34.8718V27.8604H34.2607V30.9263L31.8481 27.8604H31.2897V32.0641H31.9008V28.914L34.3766 32.0641Z" fill="white"/>
<path fill-rule="evenodd" clip-rule="evenodd" d="M39.7814 32.0641L39.3073 31.0105H37.2107L36.7366 32.0641H36.0834L38.0009 27.8498H38.5382L40.4452 32.0641H39.7814ZM37.4846 30.4627H39.0545L38.2643 28.6505L37.4846 30.4627Z" fill="white"/>
<path d="M42.2257 28.4504V32.0641H42.8578V28.4504H44.2169V27.8604H40.8771V28.4504H42.2257Z" fill="white"/>
<path d="M46.2081 27.8604H45.5865V32.0641H46.2081V27.8604Z" fill="white"/>
<path d="M56.5015 32.0641H56.9862V27.8604H56.3751V30.9263L53.9625 27.8604H53.4041V32.0641H54.0151V28.914L56.5015 32.0641Z" fill="white"/>
<path fill-rule="evenodd" clip-rule="evenodd" d="M61.8956 32.0641L61.4321 31.0105H59.3355L58.8509 32.0641H58.1976L60.1151 27.8498H60.6524L62.5699 32.0641H61.8956ZM59.5989 30.4627H61.1687L60.3891 28.6505L59.5989 30.4627Z" fill="white"/>
<path d="M63.8026 32.0641H66.6893V31.4741H64.4242V27.8604H63.8026V32.0641Z" fill="white"/>
<path fill-rule="evenodd" clip-rule="evenodd" d="M28.8036 30.3784C29.1004 30.3395 29.3724 30.192 29.5669 29.9643C29.7615 29.7367 29.8649 29.4451 29.8571 29.1458C29.8571 28.3661 29.2355 27.8604 28.3189 27.8604H26.4752V32.0747H27.1073V30.4627H28.1609L29.3303 32.0325H30.0994L28.8036 30.3784ZM28.2557 29.9149H27.1073V28.4504H28.2662C28.8878 28.4504 29.2039 28.7138 29.2144 29.1669C29.225 29.6199 28.8352 29.9043 28.2557 29.9149Z" fill="white"/>
<path fill-rule="evenodd" clip-rule="evenodd" d="M49.0297 27.9326C49.2903 27.8222 49.5704 27.7653 49.8534 27.7655C50.267 27.7657 50.6713 27.8877 51.0161 28.1161C51.3608 28.3446 51.6307 28.6694 51.7921 29.0501C51.9535 29.4309 51.9994 29.8507 51.9239 30.2573C51.8484 30.6639 51.6549 31.0393 51.3675 31.3367C51.0802 31.6341 50.7116 31.8404 50.3079 31.9299C49.9041 32.0193 49.483 31.9879 49.0969 31.8397C48.7108 31.6915 48.3769 31.4329 48.1367 31.0962C47.8966 30.7596 47.7608 30.3597 47.7463 29.9464C47.7364 29.6635 47.7836 29.3816 47.8851 29.1173C47.9865 28.8531 48.1401 28.612 48.3368 28.4085C48.5335 28.2049 48.7691 28.0431 49.0297 27.9326ZM48.9526 31.2911C49.2235 31.4546 49.5374 31.533 49.8534 31.5162C50.0563 31.5164 50.257 31.4754 50.4435 31.3957C50.63 31.3159 50.7983 31.1991 50.9383 31.0522C51.0782 30.9054 51.1868 30.7317 51.2575 30.5415C51.3282 30.3514 51.3595 30.1489 51.3495 29.9464C51.3512 29.6299 51.2577 29.3201 51.0814 29.0573C50.905 28.7946 50.6537 28.5908 50.3602 28.4724C50.0667 28.354 49.7443 28.3265 49.435 28.3935C49.1256 28.4604 48.8435 28.6187 48.6252 28.8478C48.4068 29.0769 48.2623 29.3663 48.2103 29.6785C48.1583 29.9907 48.2013 30.3114 48.3336 30.5989C48.466 30.8864 48.6816 31.1275 48.9526 31.2911Z" fill="white"/>
</svg>
