<svg width="114" height="54" viewBox="0 0 114 54" fill="none" xmlns="http://www.w3.org/2000/svg">
<path d="M51.7403 20.9519C49.883 20.9519 48.1204 21.6288 47.3434 22.1454C46.1493 21.2904 44.5194 20.9519 42.4915 20.9519C39.4212 20.9519 36.8816 21.8425 36.5215 21.985V36.8941H39.8192C40.1414 36.8941 40.4067 36.6447 40.4067 36.3063V24.3363C41.108 24.1582 41.7524 24.0691 42.3209 24.0691C44.5952 24.0691 45.1638 24.9241 45.1638 27.0616V36.3241C45.1638 36.5913 45.3912 36.9119 45.7513 36.9119H48.4805C48.8596 36.9119 49.068 36.6447 49.068 36.3241V24.8172C49.6745 24.3185 50.5463 24.0869 51.3423 24.0869C53.1049 24.0869 53.8251 24.835 53.8251 26.8657V36.3419C53.8251 36.5913 54.0146 36.9297 54.4126 36.9297H57.7104V26.3669C57.7104 22.3413 55.057 20.9519 51.7403 20.9519ZM0 36.8941H3.48726C3.7526 36.8941 4.07479 36.6625 4.07479 36.3419V27.685H10.5186C11.5989 27.685 12.376 28.5044 12.376 29.3416V36.3419C12.376 36.6447 12.6413 36.8941 12.9635 36.8941H16.4697V16.3029H12.9825C12.6792 16.3029 12.3949 16.5522 12.3949 16.8194V24.55H5.68575C4.79498 24.55 4.07479 23.8554 4.07479 23.0894V16.8194C4.07479 16.6235 3.86631 16.3029 3.48726 16.3029H0V36.8941ZM103.538 33.0822C102.817 33.6522 102.268 34.0085 100.733 34.0619C98.553 34.0619 97.6243 32.815 97.6243 30.1432V27.97C97.6243 24.9063 98.8183 24.0513 100.733 24.0513C102.344 24.0513 103.215 24.176 103.538 24.2472V33.0822ZM100.733 20.9697C96.4493 20.9697 93.7391 23.1607 93.7391 27.8454V30.1966C93.7391 35.38 96.6767 37.0722 99.8418 37.0722C101.396 37.0722 103.007 36.0391 103.538 35.38V36.3419C103.538 36.5913 103.784 36.8941 104.125 36.8941H107.442V21.8604C107.442 21.8604 104.182 20.9697 100.733 20.9697ZM70.219 33.0822C69.4988 33.6522 68.9492 34.0085 67.4141 34.0619C65.2345 34.0619 64.3058 32.815 64.3058 30.1432V27.97C64.3058 24.9063 65.4998 24.0513 67.4141 24.0513C69.025 24.0513 69.8968 24.176 70.219 24.2472V33.0822ZM67.4141 20.9697C63.1308 20.9697 60.4206 23.1607 60.4206 27.8454V30.1966C60.4206 35.38 63.3582 37.0722 66.5233 37.0722C68.0963 37.0722 69.6884 36.0391 70.219 35.38V36.3419C70.219 36.5913 70.4464 36.8941 70.8065 36.8941H74.1232V21.8604C74.1043 21.8604 70.8445 20.9697 67.4141 20.9697ZM80.6429 36.8941C80.9651 36.8941 81.2494 36.6447 81.2494 36.3063V24.3719C82.216 24.1582 83.1636 24.0691 84.1491 24.0691C86.3287 24.0691 87.1057 24.835 87.1057 27.0616V36.3241C87.1057 36.6982 87.4089 36.9119 87.6932 36.9119H91.0099V27.026C91.0099 22.4482 88.4324 20.9519 84.2628 20.9519C80.9272 20.9519 77.6295 21.8604 77.3641 21.9316V36.8941H80.6429ZM29.9829 21.2369C29.6607 21.2369 29.3764 21.4863 29.3764 21.8247V33.6522C28.4098 33.866 27.4622 33.955 26.4766 33.955C24.2971 33.955 23.5201 33.1891 23.5201 30.9625V21.8069C23.5201 21.4329 23.2168 21.2191 22.9325 21.2191H19.6158V30.9804C19.6158 35.5582 22.1934 37.0544 26.3629 37.0544C29.6986 37.0544 32.9963 36.146 33.2616 36.0747V21.2191H29.9829V21.2369ZM111.441 35.0772H111.763C112.066 35.0772 112.18 34.9347 112.18 34.7566C112.18 34.5072 111.933 34.4716 111.706 34.4716H111.441V35.0772ZM111.706 34.1332C112.237 34.1332 112.578 34.2757 112.578 34.721C112.578 35.0238 112.426 35.2375 112.142 35.3622L112.275 35.576C112.369 35.7541 112.502 35.9144 112.673 36.1282C112.692 36.1638 112.635 36.1816 112.521 36.1816H112.388C112.256 36.1816 112.218 36.1638 112.199 36.1282C112.085 35.9857 111.99 35.861 111.915 35.7185L111.725 35.4157H111.441V36.146C111.441 36.1638 111.403 36.1994 111.308 36.1994H111.137C111.062 36.1994 111.005 36.1816 111.005 36.146V34.151H111.706V34.1332ZM110.19 35.1663C110.19 36.0391 110.853 36.7338 111.744 36.7338C112.616 36.7338 113.298 36.0569 113.298 35.1663C113.298 34.2935 112.635 33.5988 111.744 33.5988C110.891 33.5988 110.19 34.2757 110.19 35.1663ZM113.715 35.1663C113.715 36.2172 112.862 37.0544 111.763 37.0544C110.664 37.0544 109.792 36.2172 109.792 35.1663C109.792 34.1154 110.664 33.2782 111.763 33.2782C112.862 33.2782 113.715 34.1154 113.715 35.1663Z" fill="#87C12E"/>
</svg>
