<?xml version="1.0" encoding="utf-8"?>
<!-- Generator: Adobe Illustrator 24.0.3, SVG Export Plug-In . SVG Version: 6.00 Build 0)  -->
<svg version="1.1" id="Layer_1" xmlns="http://www.w3.org/2000/svg" xmlns:xlink="http://www.w3.org/1999/xlink" x="0px" y="0px"
	 viewBox="0 0 1154.5 584.6" style="enable-background:new 0 0 1154.5 584.6;" xml:space="preserve">
<style type="text/css">
	.st0{fill:#FFFFFF;}
	.st1{fill:#FFBD00;}
</style>
<g>
	<path class="st0" d="M84.5,495.5c-48.6,0-67.8-27.8-59.7-74.1l21.6-122.3h-44l8.4-47.7h44l13.3-75.5H126l-13.3,75.5h60.7l-8.4,47.7
		h-60.7L83.7,416.3c-3.3,18.5,3.7,26.4,22.2,26.4c12,0,21.9-0.5,37.9-2.3l-8.6,48.6C118.3,493.2,101.6,495.5,84.5,495.5"/>
</g>
<polygon class="st0" points="167,490.9 209.2,251.4 267.7,251.4 225.5,490.9 "/>
<g>
	<path class="st0" d="M947.7,495.5c-48.6,0-67.8-27.8-59.7-74.1l21.6-122.3h-44l8.4-47.7h44l13.3-75.5h57.9l-13.3,75.5h60.7
		l-8.4,47.7h-60.7l-20.7,117.2c-3.3,18.5,3.7,26.4,22.2,26.4c12,0,21.9-0.5,37.9-2.3l-8.6,48.6C981.5,493.2,964.9,495.5,947.7,495.5
		"/>
</g>
<polygon class="st0" points="1030.2,490.9 1072.4,251.4 1130.9,251.4 1088.7,490.9 "/>
<g>
	<path class="st0" d="M436.8,313.9c-6.4-10.6-17.4-18.9-35.4-18.9c-45.1,0-61.9,42.8-68,77.4c-6.1,34.5-4.4,76.9,40.8,76.9
		c18,0,31.9-8.3,42-18.9c14.7-15.7,21.8-37.3,25.4-58C445.4,351.7,446,329.6,436.8,313.9 M438.7,478.4c-16.8,12-37.5,19.3-61.9,19.3
		c-28.5,0-49.8-10.1-58.5-23.5l-19.2,109.1h-57.5l58.4-331h53.8l-5,26.2c18.2-22.1,46.6-31.8,72.8-31.8c23.9,0,41.8,8.3,54.4,20.3
		c24.4,23.5,32.3,59.4,24.4,104.5C492,418.5,471.3,454.9,438.7,478.4"/>
	<path class="st0" d="M661.6,385.3l-61.6,4.6c-17.7,1.4-36.7,12-40.1,31.3c-3.2,18.4,10.8,29.9,28.8,29.9
		c35.9,0,64.7-19.3,70.9-54.8L661.6,385.3z M690.6,495.3c-24.9,0-35.9-15.7-34.6-33.6c-14.5,19.3-45,35.9-79.1,35.9
		c-57.1,0-80.3-35.9-73.4-75.1c8-45.6,48.1-71.9,94.3-75.1l71.4-5.1l2.6-14.7c4-22.6-1.2-37.8-33.9-37.8c-26.7,0-44.5,12-49.8,34.1
		h-55.7c12.7-53.9,59.8-77.8,113.2-77.8c41,0,73.7,12.9,81.2,48.8c3.3,15.2,1.2,32.2-1.6,48.4l-15.7,88.9
		c-1.9,11.1,1,15.2,10.7,15.2c3.7,0,7.5-0.9,7.5-0.9l-7.5,42.4C709.8,493,704.4,495.3,690.6,495.3"/>
	<path class="st0" d="M810.8,494.1c-39.2,0-62.1-18.9-54-64.5l44.7-253.8h58L816.5,420c-2.4,13.8-0.8,23,19,23
		c5.1,0,6.5-0.5,9.8-0.5l-8.5,48.4C824.7,493.2,822.3,494.1,810.8,494.1"/>
	<path class="st1" d="M1149.8,137.1c0.8,25.3-19,46.6-44.4,47.4c-8.5,0.3-16.6-1.8-23.5-5.6c-0.8-0.5-1.6-1-2.4-1.4
		c0-0.1-0.1-0.1-0.1-0.1c-120.8-71-262.5-109.8-412.9-104.8c-154.2,5.1-296.2,55.5-413.7,137.9c-0.6,0.4-1.2,0.8-1.8,1.3
		c-1,0.5-2.2,0.9-3.5,0.9c-4.6,0.2-8.4-3.4-8.6-8c-0.1-1.5,0.3-3,1-4.2c1.4-1.3,2.7-2.5,4.1-3.7C373.1,81.3,541.9,8.8,728.5,2.6
		c142.6-4.7,277.4,29.8,393.9,94c0,0,0.1,0,0.1,0.1c1.1,0.6,2.2,1.2,3.3,1.8c4.9,2.7,9.3,6.1,13,10.3
		C1145.4,116.4,1149.5,126.2,1149.8,137.1"/>
	<path class="st0" d="M1137.4,470.9c-0.4,0.4-1.2,0.7-2.4,0.7h-2.9V467h2.4c1.3,0,2.2,0.2,2.7,0.6c0.5,0.4,0.8,0.9,0.8,1.6
		C1138,469.9,1137.8,470.5,1137.4,470.9 M1139.4,473.9l0.1-0.1c1-0.6,1.7-1.2,2.1-2c0.4-0.7,0.6-1.7,0.6-2.9c0-0.6-0.1-1.3-0.3-1.9
		c-0.2-0.6-0.5-1.1-1.1-1.6c-0.5-0.5-1.3-0.9-2.3-1.2c-1-0.3-2.3-0.4-3.8-0.4h-6.6v17h4v-6.1h3.4l0,0.1l2.9,6h4.6L1139.4,473.9z
		 M1137.4,470.9c-0.4,0.4-1.2,0.7-2.4,0.7h-2.9V467h2.4c1.3,0,2.2,0.2,2.7,0.6c0.5,0.4,0.8,0.9,0.8,1.6
		C1138,469.9,1137.8,470.5,1137.4,470.9 M1139.4,473.9l0.1-0.1c1-0.6,1.7-1.2,2.1-2c0.4-0.7,0.6-1.7,0.6-2.9c0-0.6-0.1-1.3-0.3-1.9
		c-0.2-0.6-0.5-1.1-1.1-1.6c-0.5-0.5-1.3-0.9-2.3-1.2c-1-0.3-2.3-0.4-3.8-0.4h-6.6v17h4v-6.1h3.4l0,0.1l2.9,6h4.6L1139.4,473.9z
		 M1137.4,470.9c-0.4,0.4-1.2,0.7-2.4,0.7h-2.9V467h2.4c1.3,0,2.2,0.2,2.7,0.6c0.5,0.4,0.8,0.9,0.8,1.6
		C1138,469.9,1137.8,470.5,1137.4,470.9 M1139.4,473.9l0.1-0.1c1-0.6,1.7-1.2,2.1-2c0.4-0.7,0.6-1.7,0.6-2.9c0-0.6-0.1-1.3-0.3-1.9
		c-0.2-0.6-0.5-1.1-1.1-1.6c-0.5-0.5-1.3-0.9-2.3-1.2c-1-0.3-2.3-0.4-3.8-0.4h-6.6v17h4v-6.1h3.4l0,0.1l2.9,6h4.6L1139.4,473.9z
		 M1137.4,470.9c-0.4,0.4-1.2,0.7-2.4,0.7h-2.9V467h2.4c1.3,0,2.2,0.2,2.7,0.6c0.5,0.4,0.8,0.9,0.8,1.6
		C1138,469.9,1137.8,470.5,1137.4,470.9 M1139.4,473.9l0.1-0.1c1-0.6,1.7-1.2,2.1-2c0.4-0.7,0.6-1.7,0.6-2.9c0-0.6-0.1-1.3-0.3-1.9
		c-0.2-0.6-0.5-1.1-1.1-1.6c-0.5-0.5-1.3-0.9-2.3-1.2c-1-0.3-2.3-0.4-3.8-0.4h-6.6v17h4v-6.1h3.4l0,0.1l2.9,6h4.6L1139.4,473.9z
		 M1137.4,470.9c-0.4,0.4-1.2,0.7-2.4,0.7h-2.9V467h2.4c1.3,0,2.2,0.2,2.7,0.6c0.5,0.4,0.8,0.9,0.8,1.6
		C1138,469.9,1137.8,470.5,1137.4,470.9 M1139.5,473.9c1-0.6,1.7-1.2,2.1-2c0.4-0.7,0.6-1.7,0.6-2.9c0-0.6-0.1-1.3-0.3-1.9
		c-0.2-0.6-0.5-1.1-1.1-1.6c-0.5-0.5-1.3-0.9-2.3-1.2c-1-0.3-2.3-0.4-3.8-0.4h-6.6v17h4v-6.1h3.4l0,0.1l2.9,6h4.6l-3.6-7
		L1139.5,473.9z M1144.5,483.3c-2.4,2.4-5.6,3.6-9.5,3.6c-3.9,0-7.1-1.2-9.4-3.6c-2.4-2.4-3.6-6-3.6-10.5c0-4.5,1.2-8.1,3.6-10.5
		c2.4-2.4,5.5-3.7,9.4-3.7c3.9,0,7.1,1.2,9.5,3.7c2.4,2.4,3.6,5.9,3.6,10.5C1148.1,477.3,1146.9,480.8,1144.5,483.3 M1151.2,465.3
		c-0.8-2.2-2-4.1-3.5-5.6c-1.5-1.5-3.3-2.7-5.5-3.6c-2.1-0.8-4.5-1.3-7.2-1.3c-2.4,0-4.7,0.4-6.8,1.3c-2.1,0.8-3.9,2-5.5,3.6
		c-1.6,1.5-2.8,3.4-3.7,5.6c-0.9,2.2-1.3,4.7-1.3,7.4c0,2.8,0.4,5.3,1.3,7.5c0.8,2.2,2,4.1,3.5,5.6c1.5,1.5,3.3,2.7,5.5,3.5
		c2.1,0.8,4.5,1.2,7.1,1.2c2.4,0,4.7-0.4,6.9-1.2s4-2,5.6-3.5c1.6-1.5,2.8-3.4,3.7-5.6c0.9-2.2,1.3-4.7,1.3-7.5
		C1152.4,470,1152,467.5,1151.2,465.3 M1137.4,470.9c-0.4,0.4-1.2,0.7-2.4,0.7h-2.9V467h2.4c1.3,0,2.2,0.2,2.7,0.6
		c0.5,0.4,0.8,0.9,0.8,1.6C1138,469.9,1137.8,470.5,1137.4,470.9 M1139.4,473.9l0.1-0.1c1-0.6,1.7-1.2,2.1-2
		c0.4-0.7,0.6-1.7,0.6-2.9c0-0.6-0.1-1.3-0.3-1.9c-0.2-0.6-0.5-1.1-1.1-1.6c-0.5-0.5-1.3-0.9-2.3-1.2c-1-0.3-2.3-0.4-3.8-0.4h-6.6
		v17h4v-6.1h3.4l0,0.1l2.9,6h4.6L1139.4,473.9z M1137.4,470.9c-0.4,0.4-1.2,0.7-2.4,0.7h-2.9V467h2.4c1.3,0,2.2,0.2,2.7,0.6
		c0.5,0.4,0.8,0.9,0.8,1.6C1138,469.9,1137.8,470.5,1137.4,470.9 M1139.4,473.9l0.1-0.1c1-0.6,1.7-1.2,2.1-2
		c0.4-0.7,0.6-1.7,0.6-2.9c0-0.6-0.1-1.3-0.3-1.9c-0.2-0.6-0.5-1.1-1.1-1.6c-0.5-0.5-1.3-0.9-2.3-1.2c-1-0.3-2.3-0.4-3.8-0.4h-6.6
		v17h4v-6.1h3.4l0,0.1l2.9,6h4.6L1139.4,473.9z M1137.4,470.9c-0.4,0.4-1.2,0.7-2.4,0.7h-2.9V467h2.4c1.3,0,2.2,0.2,2.7,0.6
		c0.5,0.4,0.8,0.9,0.8,1.6C1138,469.9,1137.8,470.5,1137.4,470.9 M1139.4,473.9l0.1-0.1c1-0.6,1.7-1.2,2.1-2
		c0.4-0.7,0.6-1.7,0.6-2.9c0-0.6-0.1-1.3-0.3-1.9c-0.2-0.6-0.5-1.1-1.1-1.6c-0.5-0.5-1.3-0.9-2.3-1.2c-1-0.3-2.3-0.4-3.8-0.4h-6.6
		v17h4v-6.1h3.4l0,0.1l2.9,6h4.6L1139.4,473.9z M1137.4,470.9c-0.4,0.4-1.2,0.7-2.4,0.7h-2.9V467h2.4c1.3,0,2.2,0.2,2.7,0.6
		c0.5,0.4,0.8,0.9,0.8,1.6C1138,469.9,1137.8,470.5,1137.4,470.9 M1139.4,473.9l0.1-0.1c1-0.6,1.7-1.2,2.1-2
		c0.4-0.7,0.6-1.7,0.6-2.9c0-0.6-0.1-1.3-0.3-1.9c-0.2-0.6-0.5-1.1-1.1-1.6c-0.5-0.5-1.3-0.9-2.3-1.2c-1-0.3-2.3-0.4-3.8-0.4h-6.6
		v17h4v-6.1h3.4l0,0.1l2.9,6h4.6L1139.4,473.9z"/>
</g>
</svg>
